<svg width="19" height="19" viewBox="0 0 19 19" fill="none" xmlns="http://www.w3.org/2000/svg">
<rect className="fillColor strokeColor" x="9.03418" y="17.3613" width="11.7763" height="11.7763" rx="5.88817" transform="rotate(-135 9.03418 17.3613)" stroke="white"/>
<rect className="fillColor strokeColor" x="4.63245" y="2.9421" width="3.87312" height="1.14433" rx="0.572165" transform="rotate(129.234 4.63245 2.9421)" fill="white" stroke="white" stroke-width="0.264076"/>
<rect className="fillColor strokeColor" x="1.49277" y="9.7674" width="3.87312" height="1.14433" rx="0.572165" transform="rotate(67.3708 1.49277 9.7674)" fill="white" stroke="white" stroke-width="0.264076"/>
<rect  className="fillColor strokeColor" x="0.169184" y="-0.0790253" width="3.87312" height="1.14433" rx="0.572165" transform="matrix(0.939914 0.341411 0.341411 -0.939914 9.45133 1.36657)" fill="white" stroke="white" stroke-width="0.264076"/>
<rect className="fillColor strokeColor" x="5.38719" y="15.5663" width="3.87312" height="1.14433" rx="0.572165" transform="rotate(15 5.38719 15.5663)" fill="white" stroke="white" stroke-width="0.264076"/>
<rect className="fillColor strokeColor" x="0.161713" y="0.0933651" width="3.87312" height="1.14433" rx="0.572165" transform="matrix(0.258819 0.965926 0.965926 -0.258819 15.434 5.16738)" fill="white" stroke="white" stroke-width="0.264076"/>
<rect className="fillColor strokeColor" x="13.302" y="15.2317" width="3.87312" height="1.14433" rx="0.572165" transform="rotate(-48.4336 13.302 15.2317)" fill="white" stroke="white" stroke-width="0.264076"/>
</svg>
