<svg width="17" height="17" viewBox="0 0 17 17" fill="none" xmlns="http://www.w3.org/2000/svg">
<g clip-path="url(#clip0_217_79)">
<path className="fillColor strokeColor" d="M4.25 7.4375C4.25 9.19487 5.68012 10.625 7.4375 10.625C9.19487 10.625 10.625 9.19487 10.625 7.4375C10.625 5.68012 9.19487 4.25 7.4375 4.25C5.68012 4.25 4.25 5.68012 4.25 7.4375ZM9.91667 7.4375C9.91667 8.80458 8.80458 9.91667 7.4375 9.91667C6.07042 9.91667 4.95833 8.80458 4.95833 7.4375C4.95833 6.07042 6.07042 4.95833 7.4375 4.95833C8.80458 4.95833 9.91667 6.07042 9.91667 7.4375ZM7.4375 6.72917C7.8285 6.72917 8.14583 7.0465 8.14583 7.4375C8.14583 7.8285 7.8285 8.14583 7.4375 8.14583C7.0465 8.14583 6.72917 7.8285 6.72917 7.4375C6.72917 7.0465 7.0465 6.72917 7.4375 6.72917ZM15.9375 9.20833C15.798 9.20833 15.6648 9.23667 15.5422 9.28625C15.4197 8.83433 15.0103 8.5 14.5208 8.5C14.3813 8.5 14.2481 8.52833 14.1256 8.57792C14.003 8.126 13.5936 7.79167 13.1042 7.79167C12.6147 7.79167 12.2053 8.12671 12.0828 8.57792C11.9602 8.52833 11.8277 8.5 11.6875 8.5C11.1017 8.5 10.625 8.97671 10.625 9.5625V12.9497L10.4139 12.7387C10.3339 12.6586 10.0392 12.3965 9.60712 12.3958C9.32308 12.3958 9.05462 12.5141 8.83079 12.7373C8.40154 13.1665 8.39304 13.8833 8.81521 14.3055L10.8517 16.2945C11.3177 16.75 11.9326 17 12.5835 17H14.5215C15.8886 17 17.0007 15.8879 17.0007 14.5208V10.2708C17.0007 9.68504 16.5233 9.20833 15.9375 9.20833ZM16.2917 14.5208C16.2917 15.4976 15.4969 16.2917 14.5208 16.2917H12.5828C12.1182 16.2917 11.6783 16.1125 11.3454 15.788L9.31246 13.8019C9.24517 13.7346 9.20762 13.6361 9.20833 13.5313C9.20975 13.4201 9.25296 13.316 9.33088 13.238C9.42083 13.1481 9.51079 13.1042 9.60571 13.1042C9.724 13.1042 9.84725 13.1743 9.91242 13.2388L11.3333 14.6597V9.5625C11.3333 9.36771 11.492 9.20833 11.6875 9.20833C11.883 9.20833 12.0417 9.36771 12.0417 9.5625V12.75H12.75V8.85417C12.75 8.65938 12.9087 8.5 13.1042 8.5C13.2997 8.5 13.4583 8.65938 13.4583 8.85417V12.75H14.1667V9.5625C14.1667 9.36771 14.3253 9.20833 14.5208 9.20833C14.7163 9.20833 14.875 9.36771 14.875 9.5625V12.75H15.5833V10.2708C15.5833 10.076 15.742 9.91667 15.9375 9.91667C16.133 9.91667 16.2917 10.076 16.2917 10.2708V14.5208ZM7.17117 14.1532C7.23492 14.404 7.33196 14.6476 7.47433 14.8729C7.46229 14.8729 7.45025 14.875 7.4375 14.875C3.33625 14.875 0 11.5387 0 7.4375C0 3.33625 3.33625 0 7.4375 0C11.4261 0 14.6816 3.15775 14.858 7.10388C14.6434 6.88925 14.3884 6.71642 14.1072 6.59104C13.6892 3.27958 10.8609 0.708333 7.4375 0.708333C3.72725 0.708333 0.708333 3.72725 0.708333 7.4375C0.708333 11.0578 3.58487 14.0115 7.17117 14.1532Z" fill="white"/>
</g>
<defs>
<clipPath id="clip0_217_79">
<rect className="fillColor strokeColor"  width="17" height="17" fill="white"/>
</clipPath>
</defs>
</svg>
