<svg width="27" height="24" viewBox="0 0 27 24" fill="none" xmlns="http://www.w3.org/2000/svg">
<path d="M6 17V20M21 17V20" stroke="white" stroke-linecap="round" stroke-linejoin="round"/>
<path d="M23 9C23 7.13077 23 6.19615 22.5981 5.5C22.3348 5.04394 21.9561 4.66523 21.5 4.40192C20.8038 4 19.8692 4 18 4H9C7.13077 4 6.19615 4 5.5 4.40192C5.04394 4.66523 4.66523 5.04394 4.40192 5.5C4 6.19615 4 7.13077 4 9" stroke="white" stroke-linecap="round" stroke-linejoin="round"/>
<path d="M23 9C21.8954 9 21 9.89543 21 11V13C21 13.8273 20.8273 14 20 14L7 14C6.17267 14 6 13.8273 6 13V11C6 9.89543 5.10457 9 4 9C2.89543 9 2 9.89543 2 11C2 11.7403 2.4022 12.3866 3 12.7324V13C3 14.8856 3 15.8284 3.58579 16.4142C4.17157 17 5.11438 17 7 17L20 17C21.8856 17 22.8284 17 23.4142 16.4142C24 15.8284 24 14.8856 24 13V12.7324C24.5978 12.3866 25 11.7403 25 11C25 9.89543 24.1046 9 23 9Z" stroke="white" stroke-linejoin="round"/>
<path d="M14 4V14" stroke="white" stroke-linecap="round" stroke-linejoin="round"/>
</svg>
