<svg width="21" height="12" viewBox="0 0 21 12" fill="none" xmlns="http://www.w3.org/2000/svg">
<path d="M19.9912 0C20.3334 0.000140804 20.6113 0.277861 20.6113 0.620117V10.8486L20.5986 10.9727C20.541 11.2552 20.2908 11.4677 19.9912 11.4678H16.8047V10.3945H16.8057V4.39453H3.80566V9.11035H3.80469V11.4678H0.620117L0.495117 11.4551C0.252838 11.4055 0.0621279 11.215 0.0126953 10.9727L0 10.8486V0.620117C1.54017e-05 0.320523 0.212589 0.0704469 0.495117 0.0126953L0.620117 0H19.9912ZM1 10.4678H2.80566V4.01465C2.80567 3.71505 3.01825 3.46498 3.30078 3.40723L3.42578 3.39453H17.1855C17.5277 3.39471 17.8057 3.67241 17.8057 4.01465V10.4678H19.6113V1H1V10.4678Z" fill="white"/>
<path d="M19.9912 0C20.3334 0.000140804 20.6113 0.277861 20.6113 0.620117V10.8486L20.5986 10.9727C20.541 11.2552 20.2908 11.4677 19.9912 11.4678H16.8047V10.3945H16.8057V4.39453H3.80566V9.11035H3.80469V11.4678H0.620117L0.495117 11.4551C0.252838 11.4055 0.0621279 11.215 0.0126953 10.9727L0 10.8486V0.620117C1.54017e-05 0.320523 0.212589 0.0704469 0.495117 0.0126953L0.620117 0H19.9912ZM1 10.4678H2.80566V4.01465C2.80567 3.71505 3.01825 3.46498 3.30078 3.40723L3.42578 3.39453H17.1855C17.5277 3.39471 17.8057 3.67241 17.8057 4.01465V10.4678H19.6113V1H1V10.4678Z" fill="white"/>
<rect x="7.90125" y="5.73438" width="4.95915" height="2.47958" rx="0.619894" fill="white"/>
</svg>
