<svg width="25" height="21" viewBox="0 0 25 21" fill="none" xmlns="http://www.w3.org/2000/svg">
<path d="M2 5.99174C2 5.99174 2 13.6143 2 15.0083C2 16.4022 2 18 2 18C2 18 3.5 18 5 18H7.5H11.5C11.5 18 11.5 17.4402 11.5 15.5C11.5 13.5598 11.5 5.5 11.5 5.5C11.5 3.55971 11.5 3.00003 11.5 3.00003C11.5 3.00003 9.5 2.99994 7.5 3.00009L5 3H2C2 3 2 4.59775 2 5.99174Z" stroke="white" stroke-linecap="round" stroke-linejoin="round"/>
<path d="M23 5.99174C23 5.99174 23 13.6143 23 15.0083C23 16.4022 23 18 23 18C23 18 21.5 18 20 18H17.5H13.5C13.5 18 13.5 17.4402 13.5 15.5C13.5 13.5598 13.5 5.5 13.5 5.5C13.5 3.55971 13.5 3.00003 13.5 3.00003C13.5 3.00003 15.5 2.99994 17.5 3.00009L20 3H23C23 3 23 4.59775 23 5.99174Z" stroke="white" stroke-linecap="round" stroke-linejoin="round"/>
<path d="M8.5625 10.4985V10.4897" stroke="white" stroke-linecap="round" stroke-linejoin="round"/>
<path d="M16.4375 10.4985V10.4897" stroke="white" stroke-linecap="round" stroke-linejoin="round"/>
</svg>
