<svg width="21" height="24" viewBox="0 0 21 24" fill="none" xmlns="http://www.w3.org/2000/svg">
<path d="M6 17V20M15 17V20" stroke="white" stroke-linecap="round" stroke-linejoin="round"/>
<path d="M17 9C17 7.13077 17 6.19615 16.5981 5.5C16.3348 5.04394 15.9561 4.66523 15.5 4.40192C14.8038 4 13.8692 4 12 4H9C7.13077 4 6.19615 4 5.5 4.40192C5.04394 4.66523 4.66523 5.04394 4.40192 5.5C4 6.19615 4 7.13077 4 9" stroke="white" stroke-linecap="round" stroke-linejoin="round"/>
<path d="M17 9C15.8954 9 15 9.89543 15 11V13C15 13.8273 14.8273 14 14 14L7 14C6.17267 14 6 13.8273 6 13V11C6 9.89543 5.10457 9 4 9C2.89543 9 2 9.89543 2 11C2 11.7403 2.4022 12.3866 3 12.7324V13C3 14.8856 3 15.8284 3.58579 16.4142C4.17157 17 5.11438 17 7 17L14 17C15.8856 17 16.8284 17 17.4142 16.4142C18 15.8284 18 14.8856 18 13V12.7324C18.5978 12.3866 19 11.7403 19 11C19 9.89543 18.1046 9 17 9Z" stroke="white" stroke-linejoin="round"/>
</svg>
