<svg width="20" height="20" viewBox="0 0 20 20" fill="none" xmlns="http://www.w3.org/2000/svg">
<path d="M15 16.6666C15.9205 16.6666 16.6667 15.9204 16.6667 14.9999V4.99992C16.6667 4.07944 15.9205 3.33325 15 3.33325" stroke="white" stroke-linecap="round" stroke-linejoin="round"/>
<path d="M3.33337 5.70651V14.2937C3.33337 15.6212 3.33337 16.2851 3.72046 16.7481C4.10753 17.211 4.76183 17.3297 6.07042 17.5672L8.57046 18.021C10.3918 18.3515 11.3025 18.5168 11.9013 18.018C12.5 17.5192 12.5 16.5952 12.5 14.7474V5.25279C12.5 3.4049 12.5 2.48095 11.9013 1.98215C11.3025 1.48336 10.3918 1.64864 8.57046 1.9792L6.07042 2.43292C4.76183 2.67041 4.10753 2.78916 3.72046 3.25211C3.33337 3.71507 3.33337 4.37889 3.33337 5.70651Z" stroke="white" stroke-linecap="round" stroke-linejoin="round"/>
<path d="M9.58337 9.99898V9.99023" stroke="white" stroke-linecap="round" stroke-linejoin="round"/>
</svg>
