<svg width="21" height="21" viewBox="0 0 21 21" fill="none" xmlns="http://www.w3.org/2000/svg">
<path d="M3.5 8.75C3.5 4.884 6.634 1.75 10.5 1.75C14.366 1.75 17.5 4.884 17.5 8.75V16.3334C17.5 17.4237 17.5 17.9689 17.2656 18.375C17.1119 18.641 16.891 18.8619 16.625 19.0155C16.2189 19.25 15.6737 19.25 14.5834 19.25H6.41666C5.32628 19.25 4.78109 19.25 4.375 19.0155C4.10896 18.8619 3.88805 18.641 3.73446 18.375C3.5 17.9689 3.5 17.4237 3.5 16.3334V8.75Z" stroke="white" stroke-linecap="round" stroke-linejoin="round"/>
<path d="M17.5 15.75H7.875C7.05004 15.75 6.63757 15.75 6.38128 16.0063C6.125 16.2626 6.125 16.6751 6.125 17.5V19.25" stroke="white" stroke-linecap="round" stroke-linejoin="round"/>
<path d="M17.5 12.25H11.375C10.5501 12.25 10.1376 12.25 9.88129 12.5063C9.625 12.7626 9.625 13.1751 9.625 14V15.75" stroke="white" stroke-linecap="round" stroke-linejoin="round"/>
<path d="M17.5 8.75H14.875C14.0501 8.75 13.6376 8.75 13.3813 9.00629C13.125 9.26258 13.125 9.67505 13.125 10.5V12.25" stroke="white" stroke-linecap="round" stroke-linejoin="round"/>
</svg>
