<svg width="25" height="21" viewBox="0 0 25 21" fill="none" xmlns="http://www.w3.org/2000/svg">
<path d="M19.1275 5.90625C20.0331 5.90625 20.7681 5.17125 20.7681 4.26562C20.7681 3.36 20.0331 2.625 19.1275 2.625C18.2219 2.625 17.4869 3.36 17.4869 4.26562C17.4869 5.17125 18.2219 5.90625 19.1275 5.90625ZM19.1275 3.28125C19.6722 3.28125 20.1119 3.72094 20.1119 4.26562C20.1119 4.81031 19.6722 5.25 19.1275 5.25C18.5828 5.25 18.1431 4.81031 18.1431 4.26562C18.1431 3.72094 18.5828 3.28125 19.1275 3.28125ZM22.7172 13.8797L21.6278 8.60344C21.385 7.42219 20.335 6.5625 19.1275 6.5625C17.92 6.5625 16.87 7.42219 16.6272 8.60344L15.5312 13.9059C15.4722 14.3719 15.6166 14.8444 15.9316 15.1922C16.24 15.5466 16.6928 15.75 17.1588 15.75H17.4869V18.0469C17.4869 18.2306 17.6313 18.375 17.815 18.375C17.9988 18.375 18.1431 18.2306 18.1431 18.0469V15.75H20.1119V18.0469C20.1119 18.2306 20.2563 18.375 20.44 18.375C20.6238 18.375 20.7681 18.2306 20.7681 18.0469V15.75H21.0963C21.5688 15.75 22.015 15.5466 22.3234 15.1922C22.6319 14.8378 22.7828 14.3719 22.7172 13.8797ZM21.8313 14.7591C21.6409 14.9691 21.3719 15.0938 21.0963 15.0938H17.1588C16.8766 15.0938 16.6075 14.9756 16.4237 14.7591C16.24 14.5491 16.1481 14.2669 16.1809 14.0109L17.2703 8.73469C17.4541 7.85531 18.235 7.21875 19.1275 7.21875C20.02 7.21875 20.8075 7.85531 20.9847 8.73469L22.0675 13.9847C22.1003 14.2669 22.015 14.5491 21.8313 14.7591ZM4.70312 5.90625C5.60875 5.90625 6.34375 5.17125 6.34375 4.26562C6.34375 3.36 5.60875 2.625 4.70312 2.625C3.7975 2.625 3.0625 3.36 3.0625 4.26562C3.0625 5.17125 3.7975 5.90625 4.70312 5.90625ZM4.70312 3.28125C5.24781 3.28125 5.6875 3.72094 5.6875 4.26562C5.6875 4.81031 5.24781 5.25 4.70312 5.25C4.15844 5.25 3.71875 4.81031 3.71875 4.26562C3.71875 3.72094 4.15844 3.28125 4.70312 3.28125ZM5.35938 6.5625H4.04688C2.78031 6.5625 1.75 7.59281 1.75 8.85938V11.4844C1.75 12.3966 2.28813 13.1906 3.0625 13.5581V18.0469C3.0625 18.2306 3.20687 18.375 3.39062 18.375C3.57438 18.375 3.71875 18.2306 3.71875 18.0469V13.755C3.82375 13.7681 3.93531 13.7812 4.04688 13.7812H5.35938C5.47094 13.7812 5.5825 13.7747 5.6875 13.755V18.0469C5.6875 18.2306 5.83187 18.375 6.01562 18.375C6.19938 18.375 6.34375 18.2306 6.34375 18.0469V13.5581C7.11812 13.1906 7.65625 12.3966 7.65625 11.4844V8.85938C7.65625 7.59281 6.62594 6.5625 5.35938 6.5625ZM7 11.4844C7 12.39 6.265 13.125 5.35938 13.125H4.04688C3.14125 13.125 2.40625 12.39 2.40625 11.4844V8.85938C2.40625 7.95375 3.14125 7.21875 4.04688 7.21875H5.35938C6.265 7.21875 7 7.95375 7 8.85938V11.4844Z" fill="white"/>
<line x1="11.8125" y1="1.3125" x2="11.8125" y2="19.6875" stroke="white" stroke-width="0.875" stroke-linecap="round"/>
</svg>
