<svg width="181" height="66" viewBox="0 0 181 66" fill="none" xmlns="http://www.w3.org/2000/svg">
<mask id="path-1-inside-1_19_188" fill="white">
<rect x="8" y="8.46289" width="165" height="49" rx="4"/>
</mask>
<rect x="8" y="8.46289" width="165" height="49" rx="4" stroke="#00D4AB" stroke-width="26" mask="url(#path-1-inside-1_19_188)"/>
<rect x="22.5" y="1.96289" width="21" height="5" rx="2.5" fill="#2B2B2B" stroke="#2B2B2B" stroke-width="3"/>
<rect x="101.5" y="1.96289" width="21" height="5" rx="2.5" fill="#2B2B2B" stroke="#2B2B2B" stroke-width="3"/>
<rect x="138.5" y="1.96289" width="21" height="5" rx="2.5" fill="#2B2B2B" stroke="#2B2B2B" stroke-width="3"/>
<rect x="62.5" y="1.96289" width="21" height="5" rx="2.5" fill="#2B2B2B" stroke="#2B2B2B" stroke-width="3"/>
<rect x="22.5" y="58.9629" width="21" height="5" rx="2.5" fill="#2B2B2B" stroke="#2B2B2B" stroke-width="3"/>
<rect x="101.5" y="58.9629" width="21" height="5" rx="2.5" fill="#2B2B2B" stroke="#2B2B2B" stroke-width="3"/>
<rect x="138.5" y="58.9629" width="21" height="5" rx="2.5" fill="#2B2B2B" stroke="#2B2B2B" stroke-width="3"/>
<rect x="62.5" y="58.9629" width="21" height="5" rx="2.5" fill="#2B2B2B" stroke="#2B2B2B" stroke-width="3"/>
<rect x="1.5" y="43.9629" width="21" height="5" rx="2.5" transform="rotate(-90 1.5 43.9629)" fill="#2B2B2B" stroke="#2B2B2B" stroke-width="3"/>
<rect x="174.5" y="43.9629" width="21" height="5" rx="2.5" transform="rotate(-90 174.5 43.9629)" fill="#2B2B2B" stroke="#2B2B2B" stroke-width="3"/>
</svg>
