<svg width="107" height="7" viewBox="0 0 107 7" fill="none" xmlns="http://www.w3.org/2000/svg">
<path d="M6.18391 3.21256C6.18391 4.81179 4.88747 6.10822 3.28824 6.10822C1.68901 6.10822 0.392578 4.81179 0.392578 3.21256C0.392578 1.61333 1.68901 0.316895 3.28824 0.316895C4.88747 0.316895 6.18391 1.61333 6.18391 3.21256Z" fill="white"/>
<path d="M106.903 3.21244C106.903 4.81167 105.606 6.1081 104.007 6.1081C102.408 6.1081 101.111 4.81167 101.111 3.21244C101.111 1.61321 102.408 0.316772 104.007 0.316772C105.606 0.316772 106.903 1.61321 106.903 3.21244Z" fill="white"/>
<path d="M4.67029 2.83447V3.84229H3.41443V2.83447H4.67029ZM9.69373 2.83447V3.84229H7.18201V2.83447H9.69373ZM14.7172 2.83447V3.84229H12.2054V2.83447H14.7172ZM19.7406 2.83447V3.84229H17.2289V2.83447H19.7406ZM24.764 2.83447V3.84229H22.2523V2.83447H24.764ZM29.7875 2.83447V3.84229H27.2758V2.83447H29.7875ZM34.8099 2.83447V3.84229H32.2982V2.83447H34.8099ZM39.8334 2.83447V3.84229H37.3217V2.83447H39.8334ZM44.8568 2.83447V3.84229H42.3451V2.83447H44.8568ZM49.8802 2.83447V3.84229H47.3685V2.83447H49.8802ZM54.9037 2.83447V3.84229H52.392V2.83447H54.9037ZM59.9271 2.83447V3.84229H57.4154V2.83447H59.9271ZM64.9506 2.83447V3.84229H62.4388V2.83447H64.9506ZM69.974 2.83447V3.84229H67.4623V2.83447H69.974ZM74.9974 2.83447V3.84229H72.4857V2.83447H74.9974ZM80.0209 2.83447V3.84229H77.5092V2.83447H80.0209ZM85.0433 2.83447V3.84229H82.5326V2.83447H85.0433ZM90.0668 2.83447V3.84229H87.5551V2.83447H90.0668ZM95.0902 2.83447V3.84229H92.5785V2.83447H95.0902ZM100.114 2.83447V3.84229H97.6019V2.83447H100.114ZM103.881 2.83447V3.84229H102.625V2.83447H103.881Z" fill="white"/>
</svg>
