<svg width="75" height="75" viewBox="0 0 75 75" fill="none" xmlns="http://www.w3.org/2000/svg">
<path d="M22.2526 22.1342C13.8822 30.5047 13.8815 44.076 22.2519 52.4465C30.6224 60.817 44.1944 60.817 52.5649 52.4465C60.9354 44.076 60.9347 30.5047 52.5643 22.1342L55.8546 18.8438L56.3249 19.3265C65.8854 29.3844 65.8851 45.1965 56.3242 55.2542L55.8546 55.7362C45.6671 65.9237 29.1498 65.9237 18.9623 55.7362L18.4927 55.2542C8.77744 45.0342 8.93381 28.8722 18.9623 18.8438L19.4442 18.3742C29.6642 8.65898 45.8262 8.81537 55.8546 18.8438L52.5643 22.1342C44.1938 13.7637 30.6231 13.7637 22.2526 22.1342Z" fill="white"/>
<path d="M17.9647 10.5164C19.1949 11.5209 19.3778 13.3325 18.3733 14.5626L11.3252 23.1939C10.3207 24.4241 8.50913 24.607 7.27896 23.6025C6.04878 22.5979 5.86586 20.7864 6.87038 19.5562L13.9184 10.9249C14.923 9.69475 16.7345 9.51183 17.9647 10.5164Z" fill="white"/>
<path d="M7.70609 20.238L6.87101 19.5561L13.9186 10.9254L14.7537 11.6073L7.70609 20.238ZM7.96077 22.7671C8.72963 23.3949 9.86263 23.2805 10.4905 22.5116L17.538 13.8809C18.1659 13.1121 18.0515 11.9791 17.2826 11.3513C16.5137 10.7236 15.3814 10.8385 14.7537 11.6073L13.9186 10.9254L14.1159 10.707C15.0783 9.74544 16.5922 9.5921 17.7276 10.3416L17.9645 10.5162C19.1179 11.458 19.351 13.1095 18.5477 14.3259L18.3731 14.5628L11.3255 23.1935C10.321 24.4237 8.50904 24.6067 7.27887 23.6021L7.06045 23.4049C6.03053 22.3736 5.92931 20.7093 6.87101 19.5561L7.70609 20.238C7.07832 21.0068 7.19211 22.1392 7.96077 22.7671Z" fill="white"/>
<path d="M4.24803 40.6856C5.71397 40.0745 7.39773 40.7675 8.00881 42.2334L12.2964 52.5189C12.9075 53.9848 12.2145 55.6686 10.7485 56.2796C9.28261 56.8907 7.59885 56.1977 6.98777 54.7318L2.70019 44.4464C2.08911 42.9804 2.7821 41.2967 4.24803 40.6856Z" fill="white"/>
<path d="M7.9831 54.3164L6.98797 54.7312L2.70069 44.4464L3.69581 44.0316L7.9831 54.3164ZM10.3334 55.2844C11.2496 54.9025 11.683 53.8495 11.3011 52.9333L7.0138 42.6485C6.63187 41.7323 5.57881 41.2989 4.6626 41.6808C3.74657 42.0628 3.31392 43.1155 3.69581 44.0316L2.70069 44.4464L2.60111 44.1695C2.20705 42.8674 2.78577 41.46 3.9821 40.8123L4.24778 40.6857C5.62221 40.1127 7.18852 40.686 7.8823 41.968L8.00892 42.2337L12.2962 52.5184C12.9073 53.9844 12.2142 55.6685 10.7482 56.2796L10.4713 56.3792C9.0762 56.801 7.56084 56.1055 6.98797 54.7312L7.9831 54.3164C8.36499 55.2325 9.41724 55.6662 10.3334 55.2844Z" fill="white"/>
<path d="M39.9416 4.13718C39.3994 5.62995 40.17 7.27965 41.6627 7.82188L52.1365 11.6263C53.6293 12.1686 55.279 11.398 55.8212 9.90522C56.3635 8.41245 55.5929 6.76275 54.1001 6.22052L43.6263 2.41606C42.1336 1.87383 40.4839 2.6444 39.9416 4.13718Z" fill="white"/>
<path d="M53.7314 7.23409L54.0995 6.22075L43.6265 2.41655L43.2584 3.4299L53.7314 7.23409ZM54.8078 9.53681C54.4689 10.4698 53.4371 10.9517 52.5042 10.6128L42.0311 6.80863C41.0981 6.46974 40.6162 5.43799 40.9551 4.505C41.2941 3.57219 42.3255 3.09104 43.2584 3.4299L43.6265 2.41655L43.3452 2.32997C42.0261 1.99691 40.6472 2.64047 40.0559 3.86563L39.9417 4.13692C39.4333 5.53651 40.0788 7.07446 41.3917 7.70785L41.663 7.82198L52.1361 11.6262C53.6289 12.1684 55.2789 11.3977 55.8211 9.90489L55.9077 9.62361C56.2643 8.21043 55.4989 6.72907 54.0995 6.22075L53.7314 7.23409C54.6643 7.57296 55.1465 8.60389 54.8078 9.53681Z" fill="white"/>
<path d="M21.3899 66.0812C21.8009 64.5471 23.3778 63.6367 24.9119 64.0478L35.6755 66.9319C37.2096 67.3429 38.12 68.9198 37.7089 70.4539C37.2979 71.9879 35.721 72.8983 34.1869 72.4873L23.4233 69.6032C21.8892 69.1921 20.9788 67.6153 21.3899 66.0812Z" fill="white"/>
<path d="M34.4656 71.4454L34.1866 72.4868L23.4237 69.6028L23.7027 68.5615L34.4656 71.4454ZM36.6673 70.175C36.9242 69.2162 36.3548 68.23 35.396 67.9731L24.6331 65.0892C23.6743 64.8323 22.6881 65.4017 22.4312 66.3605C22.1745 67.3192 22.744 68.3046 23.7027 68.5615L23.4237 69.6028L23.1435 69.5126C21.8717 69.0297 21.1104 67.7121 21.3279 66.3692L21.3898 66.0814C21.7752 64.6431 23.1855 63.7526 24.6244 63.9859L24.9121 64.0478L35.675 66.9317C37.2091 67.3428 38.1197 68.92 37.7087 70.4541L37.6184 70.7342C37.1008 72.0967 35.6247 72.8721 34.1866 72.4868L34.4656 71.4454C35.4243 71.7023 36.4102 71.1337 36.6673 70.175Z" fill="white"/>
<path d="M66.1992 20.9125C64.6651 21.3235 63.7547 22.9004 64.1658 24.4345L67.0499 35.1981C67.461 36.7322 69.0378 37.6426 70.5719 37.2315C72.106 36.8205 73.0164 35.2436 72.6053 33.7095L69.7212 22.9459C69.3102 21.4118 67.7333 20.5014 66.1992 20.9125Z" fill="white"/>
<path d="M71.5634 33.9882L72.6048 33.7092L69.7209 22.9463L68.6795 23.2253L71.5634 33.9882ZM70.2931 36.1899C69.3343 36.4468 68.3481 35.8774 68.0912 34.9186L65.2073 24.1557C64.9503 23.1969 65.5197 22.2107 66.4785 21.9538C67.4372 21.697 68.4226 22.2666 68.6795 23.2253L69.7209 22.9463L69.6307 22.6661C69.1477 21.3943 67.8301 20.633 66.4872 20.8505L66.1995 20.9124C64.7612 21.2978 63.8707 22.7081 64.1039 24.147L64.1659 24.4347L67.0498 35.1976C67.4608 36.7317 69.038 37.6423 70.5721 37.2312L70.8523 37.141C72.2147 36.6234 72.9901 35.1473 72.6048 33.7092L71.5634 33.9882C71.8203 34.9469 71.2517 35.9328 70.2931 36.1899Z" fill="white"/>
<path d="M56.2269 64.5519C55.0386 63.4982 54.9296 61.6806 55.9833 60.4924L63.3768 52.1551C64.4305 50.9668 66.248 50.8577 67.4363 51.9115C68.6246 52.9652 68.7336 54.7828 67.6799 55.971L60.2864 64.3083C59.2327 65.4966 57.4152 65.6057 56.2269 64.5519Z" fill="white"/>
<path d="M66.8726 55.2558L67.6793 55.9711L60.2863 64.3079L59.4797 63.5925L66.8726 55.2558ZM66.7211 52.7185C65.9784 52.0599 64.8417 52.1281 64.1831 52.8707L56.7901 61.2075C56.1315 61.9501 56.1997 63.0869 56.9424 63.7455C57.6851 64.4039 58.8211 64.3351 59.4797 63.5925L60.2863 64.3079L60.0803 64.5181C59.0795 65.4396 57.5606 65.5313 56.4567 64.7362L56.2271 64.5521C55.113 63.5641 54.9472 61.9045 55.7994 60.7218L55.9835 60.4922L63.3765 52.1554C64.4302 50.9671 66.2481 50.8581 67.4364 51.9118L67.6466 52.1178C68.6337 53.1901 68.6671 54.8572 67.6793 55.9711L66.8726 55.2558C67.5312 54.5132 67.4635 53.3771 66.7211 52.7185Z" fill="white"/>
</svg>
