<svg width="206" height="206" viewBox="0 0 206 206" fill="none" xmlns="http://www.w3.org/2000/svg">
<rect x="102.632" y="196.072" width="132.144" height="132.144" rx="66.0719" transform="rotate(-135 102.632 196.072)" stroke="#00D4AB" stroke-width="13"/>
<rect x="52.6277" y="33.4223" width="44" height="13" rx="6.5" transform="rotate(129.234 52.6277 33.4223)" fill="#2B2B2B" stroke="#2B2B2B" stroke-width="3"/>
<rect x="16.9608" y="110.962" width="44" height="13" rx="6.5" transform="rotate(67.3708 16.9608 110.962)" fill="#2B2B2B" stroke="#2B2B2B" stroke-width="3"/>
<rect x="1.92199" y="-0.897755" width="44" height="13" rx="6.5" transform="matrix(0.939914 0.341411 0.341411 -0.939914 107.372 15.5245)" fill="#2B2B2B" stroke="#2B2B2B" stroke-width="3"/>
<rect x="61.2018" y="176.837" width="44" height="13" rx="6.5" transform="rotate(15 61.2018 176.837)" fill="#2B2B2B" stroke="#2B2B2B" stroke-width="3"/>
<rect x="1.83712" y="1.06066" width="44" height="13" rx="6.5" transform="matrix(0.258819 0.965926 0.965926 -0.258819 175.337 58.7019)" fill="#2B2B2B" stroke="#2B2B2B" stroke-width="3"/>
<rect x="151.118" y="173.038" width="44" height="13" rx="6.5" transform="rotate(-48.4336 151.118 173.038)" fill="#2B2B2B" stroke="#2B2B2B" stroke-width="3"/>
</svg>
