<svg width="232" height="232" viewBox="0 0 232 232" fill="none" xmlns="http://www.w3.org/2000/svg">
<rect x="1" y="1" width="230" height="230" rx="8.13386" stroke="black" stroke-width="2"/>
<line x1="39.3622" y1="4.37114e-08" x2="39.3622" y2="232" stroke="black" stroke-width="2"/>
<line x1="13.25" y1="1.09278e-08" x2="13.25" y2="232" stroke="black" stroke-width="0.5"/>
<line x1="51.25" y1="1.09278e-08" x2="51.25" y2="232" stroke="black" stroke-width="0.5"/>
<line x1="89.25" y1="1.09278e-08" x2="89.25" y2="232" stroke="black" stroke-width="0.5"/>
<line x1="128.25" y1="1.09278e-08" x2="128.25" y2="232" stroke="black" stroke-width="0.5"/>
<line x1="166.25" y1="1.09278e-08" x2="166.25" y2="232" stroke="black" stroke-width="0.5"/>
<line x1="204.25" y1="1.09278e-08" x2="204.25" y2="232" stroke="black" stroke-width="0.5"/>
<line y1="28.75" x2="232" y2="28.75" stroke="black" stroke-width="0.5"/>
<line y1="67.75" x2="232" y2="67.75" stroke="black" stroke-width="0.5"/>
<line y1="105.75" x2="232" y2="105.75" stroke="black" stroke-width="0.5"/>
<line y1="145.75" x2="232" y2="145.75" stroke="black" stroke-width="0.5"/>
<line y1="182.75" x2="232" y2="182.75" stroke="black" stroke-width="0.5"/>
<line y1="220.75" x2="232" y2="220.75" stroke="black" stroke-width="0.5"/>
<line x1="26.25" y1="1.09278e-08" x2="26.25" y2="232" stroke="black" stroke-width="0.5"/>
<line x1="64.25" y1="1.09278e-08" x2="64.25" y2="232" stroke="black" stroke-width="0.5"/>
<line x1="102.25" y1="1.09278e-08" x2="102.25" y2="232" stroke="black" stroke-width="0.5"/>
<line x1="141.25" y1="1.09278e-08" x2="141.25" y2="232" stroke="black" stroke-width="0.5"/>
<line x1="179.25" y1="1.09278e-08" x2="179.25" y2="232" stroke="black" stroke-width="0.5"/>
<line x1="217.25" y1="1.09278e-08" x2="217.25" y2="232" stroke="black" stroke-width="0.5"/>
<line y1="15.75" x2="232" y2="15.75" stroke="black" stroke-width="0.5"/>
<line y1="54.75" x2="232" y2="54.75" stroke="black" stroke-width="0.5"/>
<line y1="92.75" x2="232" y2="92.75" stroke="black" stroke-width="0.5"/>
<line y1="132.75" x2="232" y2="132.75" stroke="black" stroke-width="0.5"/>
<line y1="169.75" x2="232" y2="169.75" stroke="black" stroke-width="0.5"/>
<line y1="207.75" x2="232" y2="207.75" stroke="black" stroke-width="0.5"/>
<line y1="41.9291" x2="232" y2="41.9291" stroke="black" stroke-width="2"/>
<line y1="80.2914" x2="232" y2="80.2914" stroke="black" stroke-width="2"/>
<line y1="118.654" x2="232" y2="118.654" stroke="black" stroke-width="2"/>
<line y1="157.016" x2="232" y2="157.016" stroke="black" stroke-width="2"/>
<line y1="195.378" x2="232" y2="195.378" stroke="black" stroke-width="2"/>
<line x1="77.7244" y1="4.37114e-08" x2="77.7244" y2="232" stroke="black" stroke-width="2"/>
<line x1="116.087" y1="4.37114e-08" x2="116.087" y2="232" stroke="black" stroke-width="2"/>
<line x1="154.449" y1="4.37114e-08" x2="154.449" y2="232" stroke="black" stroke-width="2"/>
<line x1="192.811" y1="4.37114e-08" x2="192.811" y2="232" stroke="black" stroke-width="2"/>
</svg>
