<svg width="51" height="51" viewBox="0 0 51 51" fill="none" xmlns="http://www.w3.org/2000/svg">
<path d="M50.3424 50.2201V50.6546H0.880493V50.2201H50.3424ZM50.4029 50.1595V0.697632C50.4029 0.664616 50.3754 0.637085 50.3424 0.637085H0.880493C0.847478 0.637085 0.819946 0.664619 0.819946 0.697632V50.1595C0.819946 50.1925 0.84748 50.2201 0.880493 50.2201V50.6546L0.779907 50.6449C0.554675 50.5986 0.385376 50.3985 0.385376 50.1595V0.697632C0.385376 0.458706 0.554677 0.258564 0.779907 0.21228L0.880493 0.202515H50.3424C50.6156 0.202515 50.8375 0.424411 50.8375 0.697632V50.1595L50.8277 50.2591C50.7883 50.4528 50.6357 50.6055 50.442 50.6449L50.3424 50.6546V50.2201C50.3754 50.2201 50.4029 50.1925 50.4029 50.1595Z" fill="white"/>
<path d="M9.16296 50.6547L8.72839 50.6547L8.72839 0.202515L9.16296 0.202515L9.16296 50.6547Z" fill="white"/>
<path d="M50.8375 9.10364V9.53821L0.385376 9.53821L0.385376 9.10364L50.8375 9.10364Z" fill="white"/>
<path d="M50.8375 17.446V17.8806L0.385376 17.8806L0.385376 17.446L50.8375 17.446Z" fill="white"/>
<path d="M50.8375 25.7886V26.2231L0.385376 26.2231L0.385376 25.7886L50.8375 25.7886Z" fill="white"/>
<path d="M50.8375 34.131V34.5656L0.385376 34.5656L0.385376 34.131L50.8375 34.131Z" fill="white"/>
<path d="M50.8375 42.4735V42.9081L0.385376 42.9081L0.385376 42.4735L50.8375 42.4735Z" fill="white"/>
<path d="M17.5045 50.6547L17.0699 50.6547L17.0699 0.202515L17.5045 0.202515L17.5045 50.6547Z" fill="white"/>
<path d="M25.8475 50.6547L25.413 50.6547L25.413 0.202515L25.8475 0.202515L25.8475 50.6547Z" fill="white"/>
<path d="M34.1898 50.6547L33.7552 50.6547L33.7552 0.202515L34.1898 0.202515L34.1898 50.6547Z" fill="white"/>
<path d="M42.5328 50.6547L42.0983 50.6547L42.0983 0.202515L42.5328 0.202515L42.5328 50.6547Z" fill="white"/>
</svg>
