<svg width="148" height="42" viewBox="0 0 148 42" fill="none" xmlns="http://www.w3.org/2000/svg">
<path d="M2.5293 30.1944C2.5293 30.3645 2.66777 30.503 2.83789 30.503L56.8379 30.503C57.4916 30.503 58.0982 30.8073 58.501 31.2793C65.0947 39.0063 71.618 40.5749 77.0986 39.5303C82.6689 38.4685 87.3582 34.6692 90.0928 31.3135C90.5034 30.8097 91.1192 30.503 91.7881 30.503L145.762 30.503C145.932 30.503 146.07 30.3645 146.07 30.1944L146.07 2.54886C146.07 2.37874 145.932 2.24125 145.762 2.24125L2.83789 2.24126C2.66777 2.24126 2.5293 2.37876 2.52929 2.54888L2.5293 30.1944ZM0.681637 2.54888C0.68164 1.35805 1.64706 0.392625 2.83789 0.392625L145.762 0.392613C146.953 0.392613 147.918 1.35804 147.918 2.54886L147.918 30.1944C147.918 31.3852 146.953 32.3506 145.762 32.3506L91.7881 32.3506C91.6935 32.3506 91.5971 32.3935 91.5254 32.4815C88.6221 36.0441 83.5819 40.1759 77.4443 41.3457C71.217 42.5327 64.0531 40.6329 57.0947 32.4786C57.0212 32.3927 56.9178 32.3506 56.8379 32.3506L2.83789 32.3506C1.64706 32.3506 0.681645 31.3852 0.68164 30.1944L0.681637 2.54888Z" fill="white"/>
</svg>
