<svg width="32" height="18" viewBox="0 0 32 18" fill="none" xmlns="http://www.w3.org/2000/svg">
<path d="M3.02783 15.9558V4.62769C3.0276 4.16447 2.65126 3.78882 2.18799 3.78882C1.72492 3.78905 1.34935 4.16462 1.34912 4.62769V15.9558C1.34916 16.419 1.7248 16.7944 2.18799 16.7947V17.6335C1.31941 17.6333 0.605136 16.9736 0.519043 16.1277L0.510254 15.9558V4.62769C0.510488 3.7012 1.26151 2.95019 2.18799 2.94995C3.11467 2.94995 3.86647 3.70106 3.8667 4.62769V15.9558L3.85791 16.1277C3.77181 16.9737 3.05677 17.6335 2.18799 17.6335V16.7947C2.65138 16.7947 3.0278 16.4192 3.02783 15.9558Z" fill="white"/>
<path d="M30.7181 15.9558V4.62769C30.7179 4.16447 30.3416 3.78882 29.8783 3.78882C29.4152 3.78905 29.0397 4.16462 29.0394 4.62769V15.9558C29.0395 16.419 29.4151 16.7944 29.8783 16.7947V17.6335C29.0097 17.6333 28.2954 16.9736 28.2094 16.1277L28.2006 15.9558V4.62769C28.2008 3.7012 28.9518 2.95019 29.8783 2.94995C30.805 2.94995 31.5568 3.70106 31.557 4.62769V15.9558L31.5482 16.1277C31.4621 16.9737 30.7471 17.6335 29.8783 17.6335V16.7947C30.3417 16.7947 30.7181 16.4192 30.7181 15.9558Z" fill="white"/>
<path d="M15.1943 16.795V17.6339H4.70605V16.795H15.1943ZM15.6142 16.3751V14.2774H4.28613V16.3751C4.28613 16.6068 4.47434 16.795 4.70605 16.795V17.6339L4.57714 17.6271C3.94252 17.5626 3.44727 17.0267 3.44727 16.3751V13.4385H16.4531V16.3751L16.4462 16.504C16.3818 17.1387 15.846 17.6339 15.1943 17.6339V16.795C15.426 16.795 15.6142 16.6068 15.6142 16.3751Z" fill="white"/>
<path d="M27.3611 16.795V17.6339H16.8729V16.795H27.3611ZM27.7811 16.3751V14.2774H16.453V16.3751C16.453 16.6068 16.6412 16.795 16.8729 16.795V17.6339L16.744 17.6271C16.1094 17.5626 15.6141 17.0267 15.6141 16.3751V13.4385H28.6199V16.3751L28.6131 16.504C28.5487 17.1387 28.0128 17.6339 27.3611 17.6339V16.795C27.5929 16.795 27.7811 16.6068 27.7811 16.3751Z" fill="white"/>
<path d="M15.6142 2.11034C15.614 1.64713 15.2376 1.27148 14.7744 1.27148H5.12499C4.66192 1.27171 4.28636 1.64728 4.28613 2.11034V12.5995H15.6142V2.11034ZM16.4531 13.4384H3.44727V2.11034C3.4475 1.18386 4.19851 0.432851 5.12499 0.432617H14.7744C15.701 0.432617 16.4528 1.18372 16.4531 2.11034V13.4384Z" fill="white"/>
<path d="M27.7811 2.11034C27.7808 1.64713 27.4045 1.27148 26.9412 1.27148H17.2919C16.8288 1.27171 16.4532 1.64728 16.453 2.11034V12.5995H27.7811V2.11034ZM28.6199 13.4384H15.6141V2.11034C15.6144 1.18386 16.3654 0.432851 17.2919 0.432617H26.9412C27.8679 0.432617 28.6197 1.18372 28.6199 2.11034V13.4384Z" fill="white"/>
</svg>
