<svg width="49" height="28" viewBox="0 0 49 28" fill="none" xmlns="http://www.w3.org/2000/svg">
<path d="M47.2041 0.880859C48.0124 0.881 48.668 1.53645 48.668 2.34473V26.4961L48.6611 26.6455C48.5861 27.3835 47.9618 27.9589 47.2041 27.959H40.2695L40.251 27.96H40.248V26.4961H40.251V10.3604H8.41602V24.4941H8.41309V27.959H1.46387L1.31445 27.9521C0.625432 27.8824 0.0778593 27.3344 0.0078125 26.6455L0 26.4961V2.34473C1.64984e-05 1.58676 0.576202 0.963455 1.31445 0.888672L1.46387 0.880859H47.2041ZM1.46387 26.4961H6.95215V10.3604C6.95216 9.60237 7.52835 8.97908 8.2666 8.9043L8.41602 8.89648H40.251C41.0591 8.89674 41.7148 9.55213 41.7148 10.3604V26.4961H47.2041V2.34473H1.46387V26.4961Z" fill="white"/>
<path d="M47.2041 0.880859C48.0124 0.881 48.668 1.53645 48.668 2.34473V26.4961L48.6611 26.6455C48.5861 27.3835 47.9618 27.9589 47.2041 27.959H40.2695L40.251 27.96H40.248V26.4961H40.251V10.3604H8.41602V24.4941H8.41309V27.959H1.46387L1.31445 27.9521C0.625432 27.8824 0.0778593 27.3344 0.0078125 26.6455L0 26.4961V2.34473C1.64984e-05 1.58676 0.576202 0.963455 1.31445 0.888672L1.46387 0.880859H47.2041ZM1.46387 26.4961H6.95215V10.3604C6.95216 9.60237 7.52835 8.97908 8.2666 8.9043L8.41602 8.89648H40.251C41.0591 8.89674 41.7148 9.55213 41.7148 10.3604V26.4961H47.2041V2.34473H1.46387V26.4961Z" fill="white"/>
<path d="M18.6567 15.8851C18.6567 15.0767 19.3121 14.4214 20.1204 14.4214H28.9027C29.7111 14.4214 30.3664 15.0767 30.3664 15.8851V18.8125C30.3664 19.6209 29.7111 20.2762 28.9027 20.2762H20.1204C19.3121 20.2762 18.6567 19.6209 18.6567 18.8125V15.8851Z" fill="white"/>
</svg>
