<svg width="133" height="74" viewBox="0 0 133 74" fill="none" xmlns="http://www.w3.org/2000/svg">
<path d="M129.206 0.00488281C131.319 0.112115 133 1.85996 133 4V70L132.995 70.2061C132.891 72.2512 131.251 73.8913 129.206 73.9951L129 74H110V25.9043H23V74H4C1.79086 74 0 72.2091 0 70V4C1.09525e-06 1.79086 1.79086 5.43592e-08 4 0H129L129.206 0.00488281ZM4 70H19V25.9043C19 23.6952 20.7909 21.9043 23 21.9043H110C112.209 21.9043 114 23.6952 114 25.9043V70H129V4H4V70Z" fill="black"/>
<path d="M129.206 0.00488281C131.319 0.112115 133 1.85996 133 4V70L132.995 70.2061C132.891 72.2512 131.251 73.8913 129.206 73.9951L129 74H110V25.9043H23V74H4C1.79086 74 0 72.2091 0 70V4C1.09525e-06 1.79086 1.79086 5.43592e-08 4 0H129L129.206 0.00488281ZM4 70H19V25.9043C19 23.6952 20.7909 21.9043 23 21.9043H110C112.209 21.9043 114 23.6952 114 25.9043V70H129V4H4V70Z" fill="black"/>
<rect x="51" y="37" width="32" height="16" rx="4" fill="black"/>
</svg>
