<svg width="112" height="60" viewBox="0 0 112 60" fill="none" xmlns="http://www.w3.org/2000/svg">
<path d="M31.2695 56.4816C31.2695 58.0698 29.982 59.3573 28.3938 59.3573L17.2505 59.3573C15.6623 59.3573 14.3748 58.0698 14.3748 56.4816C14.3748 54.8934 15.6623 53.6059 17.2505 53.6059L28.3938 53.6059C29.982 53.6059 31.2695 54.8934 31.2695 56.4816Z" fill="white"/>
<path d="M17.251 54.6844L17.251 53.6063L28.3936 53.6063L28.3936 54.6844L17.251 54.6844ZM15.4531 56.4813C15.4531 57.474 16.2583 58.2792 17.251 58.2792L28.3936 58.2792C29.3862 58.2792 30.1914 57.474 30.1914 56.4813C30.1913 55.4888 29.3861 54.6844 28.3936 54.6844L28.3936 53.6063L28.6875 53.621C30.041 53.7583 31.1173 54.8339 31.2549 56.1874L31.2695 56.4813C31.2695 57.9704 30.1378 59.1956 28.6875 59.3427L28.3936 59.3573L17.251 59.3573C15.6628 59.3573 14.375 58.0695 14.375 56.4813L14.3896 56.1874C14.537 54.7374 15.7621 53.6063 17.251 53.6063L17.251 54.6844C16.2584 54.6844 15.4533 55.4888 15.4531 56.4813Z" fill="white"/>
<path d="M53.1967 56.4816C53.1967 58.0698 51.9092 59.3573 50.321 59.3573L39.1776 59.3573C37.5894 59.3573 36.3019 58.0698 36.3019 56.4816C36.3019 54.8934 37.5894 53.6059 39.1776 53.6059L50.321 53.6059C51.9092 53.6059 53.1967 54.8934 53.1967 56.4816Z" fill="white"/>
<path d="M39.1781 54.6844L39.1781 53.6063L50.3207 53.6063L50.3207 54.6844L39.1781 54.6844ZM37.3802 56.4813C37.3802 57.474 38.1855 58.2792 39.1781 58.2792L50.3207 58.2792C51.3133 58.2792 52.1185 57.474 52.1185 56.4813C52.1184 55.4888 51.3132 54.6844 50.3207 54.6844L50.3207 53.6063L50.6146 53.621C51.9681 53.7583 53.0445 54.8339 53.182 56.1874L53.1967 56.4813C53.1967 57.9704 52.0649 59.1956 50.6146 59.3427L50.3207 59.3573L39.1781 59.3573C37.5899 59.3573 36.3021 58.0695 36.3021 56.4813L36.3168 56.1874C36.4641 54.7374 37.6892 53.6063 39.1781 53.6063L39.1781 54.6844C38.1856 54.6844 37.3804 55.4888 37.3802 56.4813Z" fill="white"/>
<path d="M75.1244 56.4816C75.1244 58.0698 73.8369 59.3573 72.2487 59.3573L61.1054 59.3573C59.5172 59.3573 58.2297 58.0698 58.2297 56.4816C58.2297 54.8934 59.5172 53.6059 61.1054 53.6059L72.2487 53.6059C73.8369 53.6059 75.1244 54.8934 75.1244 56.4816Z" fill="white"/>
<path d="M61.1058 54.6844L61.1058 53.6063L72.2484 53.6063L72.2484 54.6844L61.1058 54.6844ZM59.308 56.4813C59.308 57.474 60.1132 58.2792 61.1058 58.2792L72.2484 58.2792C73.241 58.2792 74.0463 57.474 74.0463 56.4813C74.0461 55.4888 73.2409 54.6844 72.2484 54.6844L72.2484 53.6063L72.5424 53.621C73.8959 53.7583 74.9722 54.8339 75.1097 56.1874L75.1244 56.4813C75.1244 57.9704 73.9926 59.1956 72.5424 59.3427L72.2484 59.3573L61.1058 59.3573C59.5176 59.3573 58.2299 58.0695 58.2299 56.4813L58.2445 56.1874C58.3919 54.7374 59.617 53.6063 61.1058 53.6063L61.1058 54.6844C60.1133 54.6844 59.3081 55.4888 59.308 56.4813Z" fill="white"/>
<path d="M97.0514 56.4816C97.0514 58.0698 95.7639 59.3573 94.1757 59.3573L83.0324 59.3573C81.4442 59.3573 80.1567 58.0698 80.1567 56.4816C80.1567 54.8934 81.4442 53.6059 83.0324 53.6059L94.1757 53.6059C95.7639 53.6059 97.0514 54.8934 97.0514 56.4816Z" fill="white"/>
<path d="M83.0328 54.6844L83.0328 53.6063L94.1754 53.6063L94.1754 54.6844L83.0328 54.6844ZM81.235 56.4813C81.235 57.474 82.0402 58.2792 83.0328 58.2792L94.1754 58.2792C95.168 58.2792 95.9733 57.474 95.9733 56.4813C95.9731 55.4888 95.168 54.6844 94.1754 54.6844L94.1754 53.6063L94.4694 53.621C95.8229 53.7583 96.8992 54.8339 97.0367 56.1874L97.0514 56.4813C97.0514 57.9704 95.9196 59.1956 94.4694 59.3427L94.1754 59.3573L83.0328 59.3573C81.4446 59.3573 80.1569 58.0695 80.1569 56.4813L80.1715 56.1874C80.3189 54.7374 81.544 53.6063 83.0328 53.6063L83.0328 54.6844C82.0403 54.6844 81.2351 55.4888 81.235 56.4813Z" fill="white"/>
<path d="M31.2695 3.28116C31.2695 4.86937 29.982 6.15686 28.3938 6.15686L17.2505 6.15686C15.6623 6.15686 14.3748 4.86937 14.3748 3.28116C14.3748 1.69296 15.6623 0.405462 17.2505 0.405462L28.3938 0.405463C29.982 0.405464 31.2695 1.69296 31.2695 3.28116Z" fill="white"/>
<path d="M17.251 1.48401L17.251 0.405883L28.3936 0.405884L28.3936 1.48401L17.251 1.48401ZM15.4531 3.28088C15.4531 4.27351 16.2583 5.07873 17.251 5.07873L28.3936 5.07874C29.3862 5.07874 30.1914 4.27351 30.1914 3.28088C30.1913 2.28838 29.3861 1.48401 28.3936 1.48401L28.3936 0.405884L28.6875 0.420532C30.041 0.557831 31.1173 1.6335 31.2549 2.98694L31.2695 3.28088C31.2695 4.76995 30.1378 5.99512 28.6875 6.14221L28.3936 6.15686L17.251 6.15686C15.6628 6.15686 14.375 4.86909 14.375 3.28088L14.3896 2.98694C14.537 1.53694 15.7621 0.405882 17.251 0.405883L17.251 1.48401C16.2584 1.48401 15.4533 2.28838 15.4531 3.28088Z" fill="white"/>
<path d="M53.1967 3.28116C53.1967 4.86937 51.9092 6.15686 50.321 6.15686L39.1776 6.15686C37.5894 6.15686 36.3019 4.86937 36.3019 3.28116C36.3019 1.69296 37.5894 0.405462 39.1776 0.405462L50.321 0.405463C51.9092 0.405464 53.1967 1.69296 53.1967 3.28116Z" fill="white"/>
<path d="M39.1781 1.48401L39.1781 0.405883L50.3207 0.405884L50.3207 1.48401L39.1781 1.48401ZM37.3802 3.28088C37.3802 4.27351 38.1855 5.07873 39.1781 5.07873L50.3207 5.07874C51.3133 5.07874 52.1185 4.27351 52.1185 3.28088C52.1184 2.28838 51.3132 1.48401 50.3207 1.48401L50.3207 0.405884L50.6146 0.420532C51.9681 0.557831 53.0445 1.6335 53.182 2.98694L53.1967 3.28088C53.1967 4.76995 52.0649 5.99512 50.6146 6.14221L50.3207 6.15686L39.1781 6.15686C37.5899 6.15686 36.3021 4.86909 36.3021 3.28088L36.3168 2.98694C36.4641 1.53694 37.6892 0.405882 39.1781 0.405883L39.1781 1.48401C38.1856 1.48401 37.3804 2.28838 37.3802 3.28088Z" fill="white"/>
<path d="M75.1244 3.28116C75.1244 4.86937 73.8369 6.15686 72.2487 6.15686L61.1054 6.15686C59.5172 6.15686 58.2297 4.86937 58.2297 3.28116C58.2297 1.69296 59.5172 0.405462 61.1054 0.405462L72.2487 0.405463C73.8369 0.405464 75.1244 1.69296 75.1244 3.28116Z" fill="white"/>
<path d="M61.1058 1.48401L61.1058 0.405883L72.2484 0.405884L72.2484 1.48401L61.1058 1.48401ZM59.308 3.28088C59.308 4.27351 60.1132 5.07873 61.1058 5.07873L72.2484 5.07874C73.241 5.07874 74.0463 4.27351 74.0463 3.28088C74.0461 2.28838 73.2409 1.48401 72.2484 1.48401L72.2484 0.405884L72.5424 0.420532C73.8959 0.557831 74.9722 1.6335 75.1097 2.98694L75.1244 3.28088C75.1244 4.76995 73.9926 5.99512 72.5424 6.14221L72.2484 6.15686L61.1058 6.15686C59.5176 6.15686 58.2299 4.86909 58.2299 3.28088L58.2445 2.98694C58.3919 1.53694 59.617 0.405882 61.1058 0.405883L61.1058 1.48401C60.1133 1.48401 59.3081 2.28838 59.308 3.28088Z" fill="white"/>
<path d="M97.0514 3.28116C97.0514 4.86937 95.7639 6.15686 94.1757 6.15686L83.0324 6.15686C81.4442 6.15686 80.1567 4.86937 80.1567 3.28116C80.1567 1.69296 81.4442 0.405462 83.0324 0.405462L94.1757 0.405463C95.7639 0.405464 97.0514 1.69296 97.0514 3.28116Z" fill="white"/>
<path d="M83.0328 1.48401L83.0328 0.405883L94.1754 0.405884L94.1754 1.48401L83.0328 1.48401ZM81.235 3.28088C81.235 4.27351 82.0402 5.07873 83.0328 5.07873L94.1754 5.07874C95.168 5.07874 95.9733 4.27351 95.9733 3.28088C95.9731 2.28838 95.168 1.48401 94.1754 1.48401L94.1754 0.405884L94.4694 0.420532C95.8229 0.557831 96.8992 1.6335 97.0367 2.98694L97.0514 3.28088C97.0514 4.76995 95.9196 5.99512 94.4694 6.14221L94.1754 6.15686L83.0328 6.15686C81.4446 6.15686 80.1569 4.86909 80.1569 3.28088L80.1715 2.98694C80.3189 1.53694 81.544 0.405882 83.0328 0.405883L83.0328 1.48401C82.0403 1.48401 81.2351 2.28838 81.235 3.28088Z" fill="white"/>
<path d="M3.23214 27.3651C1.64394 27.3651 0.356445 26.0776 0.356446 24.4894L0.356447 13.3461C0.356447 11.7579 1.64394 10.4704 3.23215 10.4704C4.82035 10.4704 6.10784 11.7579 6.10784 13.3461L6.10784 24.4894C6.10784 26.0776 4.82035 27.3651 3.23214 27.3651Z" fill="white"/>
<path d="M5.0293 13.3466L6.10742 13.3466L6.10742 24.4891L5.0293 24.4891L5.0293 13.3466ZM3.23242 11.5487C2.2398 11.5487 1.43457 12.3539 1.43457 13.3466L1.43457 24.4891C1.43457 25.4818 2.23979 26.287 3.23242 26.287C4.22492 26.2868 5.0293 25.4817 5.0293 24.4891L6.10742 24.4891L6.09277 24.7831C5.95547 26.1366 4.87981 27.2129 3.52637 27.3505L3.23242 27.3651C1.74335 27.3651 0.518187 26.2333 0.371094 24.7831L0.356446 24.4891L0.356447 13.3466C0.356447 11.7584 1.64422 10.4706 3.23242 10.4706L3.52637 10.4852C4.97636 10.6326 6.10742 11.8577 6.10742 13.3466L5.0293 13.3466C5.0293 12.354 4.22492 11.5489 3.23242 11.5487Z" fill="white"/>
<path d="M3.23214 49.2922C1.64394 49.2922 0.356445 48.0047 0.356446 46.4165L0.356447 35.2732C0.356447 33.685 1.64394 32.3975 3.23215 32.3975C4.82035 32.3975 6.10784 33.685 6.10784 35.2732L6.10784 46.4165C6.10784 48.0047 4.82035 49.2922 3.23214 49.2922Z" fill="white"/>
<path d="M5.0293 35.2737L6.10742 35.2737L6.10742 46.4163L5.0293 46.4163L5.0293 35.2737ZM3.23242 33.4758C2.2398 33.4758 1.43457 34.2811 1.43457 35.2737L1.43457 46.4163C1.43457 47.4089 2.23979 48.2141 3.23242 48.2141C4.22492 48.214 5.0293 47.4088 5.0293 46.4163L6.10742 46.4163L6.09277 46.7102C5.95547 48.0637 4.87981 49.1401 3.52637 49.2776L3.23242 49.2922C1.74335 49.2922 0.518187 48.1605 0.371094 46.7102L0.356446 46.4163L0.356447 35.2737C0.356447 33.6855 1.64422 32.3977 3.23242 32.3977L3.52637 32.4124C4.97636 32.5597 6.10742 33.7848 6.10742 35.2737L5.0293 35.2737C5.0293 34.2811 4.22492 33.476 3.23242 33.4758Z" fill="white"/>
<path d="M108.195 27.3651C106.607 27.3651 105.319 26.0776 105.319 24.4894L105.319 13.3461C105.319 11.7579 106.607 10.4704 108.195 10.4704C109.783 10.4704 111.071 11.7579 111.071 13.3461L111.071 24.4894C111.071 26.0776 109.783 27.3651 108.195 27.3651Z" fill="white"/>
<path d="M109.992 13.3466L111.07 13.3466L111.07 24.4891L109.992 24.4891L109.992 13.3466ZM108.195 11.5487C107.203 11.5487 106.397 12.3539 106.397 13.3466L106.397 24.4891C106.397 25.4818 107.203 26.287 108.195 26.287C109.188 26.2868 109.992 25.4817 109.992 24.4891L111.07 24.4891L111.056 24.7831C110.918 26.1366 109.843 27.2129 108.489 27.3505L108.195 27.3651C106.706 27.3651 105.481 26.2333 105.334 24.7831L105.319 24.4891L105.319 13.3466C105.319 11.7584 106.607 10.4706 108.195 10.4706L108.489 10.4852C109.939 10.6326 111.07 11.8577 111.07 13.3466L109.992 13.3466C109.992 12.354 109.188 11.5489 108.195 11.5487Z" fill="white"/>
<path d="M108.195 49.2922C106.607 49.2922 105.319 48.0047 105.319 46.4165L105.319 35.2732C105.319 33.685 106.607 32.3975 108.195 32.3975C109.783 32.3975 111.071 33.685 111.071 35.2732L111.071 46.4165C111.071 48.0047 109.783 49.2922 108.195 49.2922Z" fill="white"/>
<path d="M109.992 35.2737L111.07 35.2737L111.07 46.4163L109.992 46.4163L109.992 35.2737ZM108.195 33.4758C107.203 33.4758 106.397 34.2811 106.397 35.2737L106.397 46.4163C106.397 47.4089 107.203 48.2141 108.195 48.2141C109.188 48.214 109.992 47.4088 109.992 46.4163L111.07 46.4163L111.056 46.7102C110.918 48.0637 109.843 49.1401 108.489 49.2776L108.195 49.2922C106.706 49.2922 105.481 48.1605 105.334 46.7102L105.319 46.4163L105.319 35.2737C105.319 33.6855 106.607 32.3977 108.195 32.3977L108.489 32.4124C109.939 32.5597 111.07 33.7848 111.07 35.2737L109.992 35.2737C109.992 34.2811 109.188 33.476 108.195 33.4758Z" fill="white"/>
<path d="M13.2764 46.4365H98.1504V13.3252H13.2764V46.4365ZM102.803 49.6514C102.803 50.3957 102.238 51.0082 101.513 51.082L101.365 51.0898H10.0615L9.91504 51.082C9.18991 51.0085 8.62402 50.3959 8.62402 49.6514V10.1104C8.62421 9.31653 9.2677 8.67304 10.0615 8.67285H101.365C102.159 8.67285 102.803 9.31641 102.803 10.1104V49.6514Z" fill="white"/>
</svg>
