<svg width="52" height="34" viewBox="0 0 52 34" fill="none" xmlns="http://www.w3.org/2000/svg">
<path d="M50.7031 33.4138L50.0615 33.3875C40.8206 33.0102 34.8396 29.042 31.1436 24.2078C28.606 20.8886 27.1556 17.1745 26.4473 13.9597C24.7125 21.2476 20.8565 26.0038 16.5039 28.9841C11.4416 32.4504 5.7445 33.4932 2.01758 33.3874L1.41894 33.3708L1.41895 8.75268L2.65039 8.75268L2.65039 32.1609C6.15706 32.1377 11.2569 31.0834 15.8076 27.9675C20.6007 24.6857 24.819 19.0965 25.9141 9.91186L27.1416 9.95874C27.2923 13.4989 28.6241 18.8832 32.123 23.4597C35.5191 27.9015 40.975 31.6079 49.4707 32.1218L49.4707 8.75269L50.7031 8.75269L50.7031 33.4138Z" fill="white"/>
<path d="M3.26672 8.75037L0.802856 8.75037L0.802856 0.741577L3.26672 0.741577L3.26672 8.75037Z" fill="white"/>
<path d="M51.3184 8.75037L48.8545 8.75037L48.8545 0.741577L51.3184 0.741577L51.3184 8.75037Z" fill="white"/>
</svg>
