<svg width="94" height="35" viewBox="0 0 94 35" fill="none" xmlns="http://www.w3.org/2000/svg">
<path d="M22.7231 31.7875C22.7231 33.3666 21.443 34.6467 19.8639 34.6467L8.78435 34.6467C7.20524 34.6467 5.92511 33.3666 5.92511 31.7875C5.92511 30.2084 7.20524 28.9282 8.78435 28.9282L19.8639 28.9283C21.443 28.9283 22.7231 30.2084 22.7231 31.7875Z" fill="white"/>
<path d="M8.78467 30.0002L8.78467 28.928L19.8638 28.928L19.8638 30.0002L8.78467 30.0002ZM6.99756 31.7874C6.99756 32.7743 7.79772 33.5745 8.78467 33.5745L19.8638 33.5745C20.8507 33.5745 21.6509 32.7743 21.6509 31.7874C21.6508 30.8005 20.8507 30.0002 19.8638 30.0002L19.8638 28.928L20.1558 28.9426C21.5017 29.0791 22.5719 30.1494 22.7085 31.4954L22.7231 31.7874C22.7231 33.2679 21.5978 34.4859 20.1558 34.6321L19.8638 34.6467L8.78467 34.6467C7.20555 34.6467 5.92529 33.3665 5.92529 31.7874L5.93994 31.4954C6.07651 30.1497 7.14609 29.0794 8.4917 28.9426L8.78467 28.928L8.78467 30.0002C7.79777 30.0002 6.99763 30.8005 6.99756 31.7874Z" fill="white"/>
<path d="M44.5236 31.7875C44.5236 33.3666 43.2434 34.6467 41.6643 34.6467L30.5848 34.6467C29.0057 34.6467 27.7255 33.3666 27.7255 31.7875C27.7255 30.2084 29.0057 28.9282 30.5848 28.9282L41.6643 28.9283C43.2434 28.9283 44.5236 30.2084 44.5236 31.7875Z" fill="white"/>
<path d="M30.5851 30.0002L30.5851 28.928L41.6642 28.928L41.6642 30.0002L30.5851 30.0002ZM28.798 31.7874C28.798 32.7743 29.5981 33.5745 30.5851 33.5745L41.6642 33.5745C42.6511 33.5745 43.4513 32.7743 43.4513 31.7874C43.4512 30.8005 42.6511 30.0002 41.6642 30.0002L41.6642 28.928L41.9562 28.9426C43.3022 29.0791 44.3723 30.1494 44.5089 31.4954L44.5236 31.7874C44.5236 33.2679 43.3982 34.4859 41.9562 34.6321L41.6642 34.6467L30.5851 34.6467C29.006 34.6467 27.7257 33.3665 27.7257 31.7874L27.7404 31.4954C27.8769 30.1497 28.9465 29.0794 30.2921 28.9426L30.5851 28.928L30.5851 30.0002C29.5982 30.0002 28.798 30.8005 28.798 31.7874Z" fill="white"/>
<path d="M66.3261 31.7875C66.326 33.3666 65.0459 34.6467 63.4668 34.6467L52.3873 34.6467C50.8081 34.6467 49.528 33.3666 49.528 31.7875C49.528 30.2084 50.8081 28.9282 52.3873 28.9282L63.4668 28.9283C65.0459 28.9283 66.3261 30.2084 66.3261 31.7875Z" fill="white"/>
<path d="M52.3876 30.0002L52.3876 28.928L63.4667 28.928L63.4667 30.0002L52.3876 30.0002ZM50.6005 31.7874C50.6005 32.7743 51.4006 33.5745 52.3876 33.5745L63.4667 33.5745C64.4536 33.5745 65.2538 32.7743 65.2538 31.7874C65.2537 30.8005 64.4536 30.0002 63.4667 30.0002L63.4667 28.928L63.7587 28.9426C65.1047 29.0791 66.1748 30.1494 66.3114 31.4954L66.3261 31.7874C66.326 33.2679 65.2007 34.4859 63.7587 34.6321L63.4667 34.6467L52.3876 34.6467C50.8085 34.6467 49.5282 33.3665 49.5282 31.7874L49.5428 31.4954C49.6794 30.1497 50.749 29.0794 52.0946 28.9426L52.3876 28.928L52.3876 30.0002C51.4007 30.0002 50.6005 30.8005 50.6005 31.7874Z" fill="white"/>
<path d="M88.1272 31.7875C88.1272 33.3666 86.8471 34.6467 85.268 34.6467L74.1884 34.6467C72.6093 34.6467 71.3292 33.3666 71.3292 31.7875C71.3292 30.2084 72.6093 28.9282 74.1884 28.9282L85.268 28.9283C86.8471 28.9283 88.1272 30.2084 88.1272 31.7875Z" fill="white"/>
<path d="M74.1887 30.0002L74.1887 28.928L85.2678 28.928L85.2678 30.0002L74.1887 30.0002ZM72.4016 31.7874C72.4016 32.7743 73.2018 33.5745 74.1887 33.5745L85.2678 33.5745C86.2548 33.5745 87.0549 32.7743 87.0549 31.7874C87.0549 30.8005 86.2547 30.0002 85.2678 30.0002L85.2678 28.928L85.5598 28.9426C86.9058 29.0791 87.976 30.1494 88.1125 31.4954L88.1272 31.7874C88.1272 33.2679 87.0018 34.4859 85.5598 34.6321L85.2678 34.6467L74.1887 34.6467C72.6096 34.6467 71.3293 33.3665 71.3293 31.7874L71.344 31.4954C71.4806 30.1497 72.5501 29.0794 73.8958 28.9426L74.1887 28.928L74.1887 30.0002C73.2018 30.0002 72.4017 30.8005 72.4016 31.7874Z" fill="white"/>
<path d="M4.85059 21.8621L89.1982 21.8621V4.66479L4.85059 4.66479L4.85059 21.8621ZM93.8438 25.0789C93.8438 25.8192 93.2816 26.4286 92.5605 26.5017L92.415 26.5085L1.63379 26.5085L1.4873 26.5017C0.766502 26.4284 0.204102 25.819 0.204102 25.0789L0.204102 1.448C0.204102 0.707887 0.766548 0.0994664 1.4873 0.026123L1.63379 0.0183105L92.415 0.0183105L92.5605 0.026123C93.2815 0.099259 93.8438 0.707733 93.8438 1.448V25.0789Z" fill="white"/>
</svg>
