<svg width="20" height="18" viewBox="0 0 20 18" fill="none" xmlns="http://www.w3.org/2000/svg">
<path d="M3.02783 15.7878V4.45972C3.0276 3.9965 2.65126 3.62085 2.18799 3.62085C1.72492 3.62108 1.34935 3.99665 1.34912 4.45972V15.7878C1.34916 16.2511 1.7248 16.6265 2.18799 16.6267V17.4656C1.31941 17.4654 0.605136 16.8056 0.519043 15.9597L0.510254 15.7878V4.45972C0.510488 3.53323 1.26151 2.78222 2.18799 2.78198C3.11467 2.78198 3.86647 3.53309 3.8667 4.45972V15.7878L3.85791 15.9597C3.77181 16.8058 3.05677 17.4656 2.18799 17.4656V16.6267C2.65138 16.6267 3.0278 16.2512 3.02783 15.7878Z" fill="white"/>
<path d="M18.5505 15.7878V4.45972C18.5503 3.9965 18.174 3.62085 17.7107 3.62085C17.2476 3.62108 16.8721 3.99665 16.8718 4.45972V15.7878C16.8719 16.2511 17.2475 16.6265 17.7107 16.6267V17.4656C16.8421 17.4654 16.1278 16.8056 16.0417 15.9597L16.033 15.7878V4.45972C16.0332 3.53323 16.7842 2.78222 17.7107 2.78198C18.6374 2.78198 19.3892 3.53309 19.3894 4.45972V15.7878L19.3806 15.9597C19.2945 16.8058 18.5795 17.4656 17.7107 17.4656V16.6267C18.1741 16.6267 18.5505 16.2512 18.5505 15.7878Z" fill="white"/>
<path d="M15.1943 16.627V17.4659H4.70605V16.627H15.1943ZM15.6142 16.2071V14.1094H4.28613V16.2071C4.28613 16.4388 4.47434 16.627 4.70605 16.627V17.4659L4.57714 17.4591C3.94252 17.3946 3.44727 16.8588 3.44727 16.2071V13.2705H16.4531V16.2071L16.4462 16.336C16.3818 16.9707 15.846 17.4659 15.1943 17.4659V16.627C15.426 16.627 15.6142 16.4388 15.6142 16.2071Z" fill="white"/>
<path d="M15.6142 1.94237C15.614 1.47916 15.2376 1.10351 14.7744 1.10351H5.12499C4.66192 1.10375 4.28636 1.47931 4.28613 1.94237V12.4316H15.6142V1.94237ZM16.4531 13.2704H3.44727V1.94237C3.4475 1.0159 4.19851 0.264882 5.12499 0.264648H14.7744C15.701 0.264648 16.4528 1.01575 16.4531 1.94237V13.2704Z" fill="white"/>
</svg>
