<svg width="35" height="31" viewBox="0 0 35 31" fill="none" xmlns="http://www.w3.org/2000/svg">
<path d="M34.4374 0.25V6.42188H33.8202V0.867188H1.4198V6.42188H0.802612V0.25H34.4374Z" fill="white"/>
<path d="M34.4374 6.42139V12.5933H0.802612V6.42139H34.4374ZM1.11121 12.2847H34.1288V6.72998H1.11121V12.2847Z" fill="white"/>
<path d="M34.4374 6.42139V12.5933H33.8202V7.03857H1.4198V12.5933H0.802612V6.42139H34.4374Z" fill="white"/>
<path d="M34.4374 12.2844V18.4563H33.8202V12.9016H1.4198V18.4563H0.802612V12.2844H34.4374Z" fill="white"/>
<path d="M1.4198 24.3188V29.8735H33.8202V24.3188L34.4374 30.4907H0.802612V24.3188H1.4198Z" fill="white"/>
<path d="M34.4374 18.4558V24.6277H0.802612V18.4558H34.4374ZM1.4198 24.0105H33.8202V19.073H1.4198V24.0105Z" fill="white"/>
</svg>
