<svg width="65" height="24" viewBox="0 0 65 24" fill="none" xmlns="http://www.w3.org/2000/svg">
<path d="M7.72266 16.3661H57.2803V8.16589H7.72266V16.3661ZM61.916 19.5751L61.9082 19.7206C61.8353 20.4398 61.2277 21.0009 60.4893 21.0009H4.51367C3.77535 21.0007 3.16862 20.4397 3.0957 19.7206L3.08789 19.5751V4.95691C3.08808 4.16955 3.72632 3.53131 4.51367 3.53113H60.4893C61.2768 3.53113 61.9158 4.16944 61.916 4.95691V19.5751Z" fill="#AFAFAF"/>
<path d="M7.72302 2.10508C7.72302 1.31745 8.36152 0.678955 9.14915 0.678955H14.8536C15.6413 0.678955 16.2798 1.31745 16.2798 2.10508C16.2798 2.89271 15.6413 3.53121 14.8536 3.53121H9.14915C8.36152 3.53121 7.72302 2.89271 7.72302 2.10508Z" fill="white"/>
<path d="M14.8539 2.46118V3.53149H9.1488V2.46118H14.8539ZM15.2103 2.10474C15.2101 1.90807 15.0506 1.74842 14.8539 1.74829H9.1488C8.95217 1.74848 8.79254 1.9081 8.79236 2.10474C8.79236 2.30153 8.95206 2.461 9.1488 2.46118V3.53149L9.0033 3.52368C8.28419 3.45062 7.72302 2.84312 7.72302 2.10474C7.72321 1.31738 8.36145 0.679141 9.1488 0.678955H14.8539L14.9994 0.686768C15.7184 0.759776 16.2795 1.36648 16.2797 2.10474C16.2797 2.84316 15.7185 3.45067 14.9994 3.52368L14.8539 3.53149V2.46118C15.0507 2.46106 15.2103 2.30157 15.2103 2.10474Z" fill="white"/>
<path d="M35.8889 2.10508C35.8889 1.31745 36.5274 0.678955 37.315 0.678955H43.0195C43.8072 0.678955 44.4457 1.31745 44.4457 2.10508C44.4457 2.89271 43.8072 3.53121 43.0195 3.53121H37.315C36.5274 3.53121 35.8889 2.89271 35.8889 2.10508Z" fill="white"/>
<path d="M43.0198 2.46118V3.53149H37.3147V2.46118H43.0198ZM43.3762 2.10474C43.376 1.90807 43.2165 1.74842 43.0198 1.74829H37.3147C37.1181 1.74848 36.9584 1.9081 36.9583 2.10474C36.9583 2.30153 37.1179 2.461 37.3147 2.46118V3.53149L37.1692 3.52368C36.4501 3.45062 35.8889 2.84312 35.8889 2.10474C35.8891 1.31738 36.5273 0.679141 37.3147 0.678955H43.0198L43.1653 0.686768C43.8843 0.759776 44.4454 1.36648 44.4456 2.10474C44.4456 2.84316 43.8844 3.45067 43.1653 3.52368L43.0198 3.53149V2.46118C43.2166 2.46106 43.3762 2.30157 43.3762 2.10474Z" fill="white"/>
<path d="M49.0804 2.10508C49.0804 1.31745 49.7189 0.678955 50.5066 0.678955H56.2111C56.9987 0.678955 57.6372 1.31745 57.6372 2.10508C57.6372 2.89271 56.9987 3.53121 56.2111 3.53121H50.5066C49.7189 3.53121 49.0804 2.89271 49.0804 2.10508Z" fill="white"/>
<path d="M56.2113 2.46118V3.53149H50.5062V2.46118H56.2113ZM56.5677 2.10474C56.5676 1.90807 56.408 1.74842 56.2113 1.74829H50.5062C50.3096 1.74848 50.15 1.9081 50.1498 2.10474C50.1498 2.30153 50.3095 2.461 50.5062 2.46118V3.53149L50.3607 3.52368C49.6416 3.45062 49.0804 2.84312 49.0804 2.10474C49.0806 1.31738 49.7189 0.679141 50.5062 0.678955H56.2113L56.3568 0.686768C57.0758 0.759776 57.6369 1.36648 57.6371 2.10474C57.6371 2.84316 57.076 3.45067 56.3568 3.52368L56.2113 3.53149V2.46118C56.4081 2.46106 56.5677 2.30157 56.5677 2.10474Z" fill="white"/>
<path d="M21.9843 2.10508C21.9843 1.31745 22.6228 0.678955 23.4104 0.678955H29.1149C29.9025 0.678955 30.541 1.31745 30.541 2.10508C30.541 2.89271 29.9025 3.53121 29.1149 3.53121H23.4104C22.6228 3.53121 21.9843 2.89271 21.9843 2.10508Z" fill="white"/>
<path d="M29.1151 2.46118V3.53149H23.41V2.46118H29.1151ZM29.4716 2.10474C29.4714 1.90807 29.3118 1.74842 29.1151 1.74829H23.41C23.2134 1.74848 23.0538 1.9081 23.0536 2.10474C23.0536 2.30153 23.2133 2.461 23.41 2.46118V3.53149L23.2645 3.52368C22.5454 3.45062 21.9843 2.84312 21.9843 2.10474C21.9844 1.31738 22.6227 0.679141 23.41 0.678955H29.1151L29.2606 0.686768C29.9797 0.759776 30.5407 1.36648 30.5409 2.10474C30.5409 2.84316 29.9798 3.45067 29.2606 3.52368L29.1151 3.53149V2.46118C29.3119 2.46106 29.4716 2.30157 29.4716 2.10474Z" fill="white"/>
<path d="M7.72302 22.4275C7.72302 21.6398 8.36152 21.0013 9.14915 21.0013H14.8536C15.6413 21.0013 16.2798 21.6398 16.2798 22.4275C16.2798 23.2151 15.6413 23.8536 14.8536 23.8536H9.14915C8.36152 23.8536 7.72302 23.2151 7.72302 22.4275Z" fill="white"/>
<path d="M14.8539 22.7836V23.8539H9.1488V22.7836H14.8539ZM15.2103 22.4271C15.2101 22.2305 15.0506 22.0708 14.8539 22.0707H9.1488C8.95217 22.0709 8.79254 22.2305 8.79236 22.4271C8.79236 22.6239 8.95206 22.7834 9.1488 22.7836V23.8539L9.0033 23.8461C8.28419 23.773 7.72302 23.1655 7.72302 22.4271C7.72321 21.6398 8.36145 21.0015 9.1488 21.0013H14.8539L14.9994 21.0092C15.7184 21.0822 16.2795 21.6889 16.2797 22.4271C16.2797 23.1655 15.7185 23.7731 14.9994 23.8461L14.8539 23.8539V22.7836C15.0507 22.7834 15.2103 22.624 15.2103 22.4271Z" fill="white"/>
<path d="M35.8889 22.4275C35.8889 21.6398 36.5274 21.0013 37.315 21.0013H43.0195C43.8072 21.0013 44.4457 21.6398 44.4457 22.4275C44.4457 23.2151 43.8072 23.8536 43.0195 23.8536H37.315C36.5274 23.8536 35.8889 23.2151 35.8889 22.4275Z" fill="white"/>
<path d="M43.0198 22.7836V23.8539H37.3147V22.7836H43.0198ZM43.3762 22.4271C43.376 22.2305 43.2165 22.0708 43.0198 22.0707H37.3147C37.1181 22.0709 36.9584 22.2305 36.9583 22.4271C36.9583 22.6239 37.1179 22.7834 37.3147 22.7836V23.8539L37.1692 23.8461C36.4501 23.773 35.8889 23.1655 35.8889 22.4271C35.8891 21.6398 36.5273 21.0015 37.3147 21.0013H43.0198L43.1653 21.0092C43.8843 21.0822 44.4454 21.6889 44.4456 22.4271C44.4456 23.1655 43.8844 23.7731 43.1653 23.8461L43.0198 23.8539V22.7836C43.2166 22.7834 43.3762 22.624 43.3762 22.4271Z" fill="white"/>
<path d="M49.0804 22.4275C49.0804 21.6398 49.7189 21.0013 50.5066 21.0013H56.2111C56.9987 21.0013 57.6372 21.6398 57.6372 22.4275C57.6372 23.2151 56.9987 23.8536 56.2111 23.8536H50.5066C49.7189 23.8536 49.0804 23.2151 49.0804 22.4275Z" fill="white"/>
<path d="M56.2113 22.7836V23.8539H50.5062V22.7836H56.2113ZM56.5677 22.4271C56.5676 22.2305 56.408 22.0708 56.2113 22.0707H50.5062C50.3096 22.0709 50.15 22.2305 50.1498 22.4271C50.1498 22.6239 50.3095 22.7834 50.5062 22.7836V23.8539L50.3607 23.8461C49.6416 23.773 49.0804 23.1655 49.0804 22.4271C49.0806 21.6398 49.7189 21.0015 50.5062 21.0013H56.2113L56.3568 21.0092C57.0758 21.0822 57.6369 21.6889 57.6371 22.4271C57.6371 23.1655 57.076 23.7731 56.3568 23.8461L56.2113 23.8539V22.7836C56.4081 22.7834 56.5677 22.624 56.5677 22.4271Z" fill="white"/>
<path d="M21.9843 22.4275C21.9843 21.6398 22.6228 21.0013 23.4104 21.0013H29.1149C29.9025 21.0013 30.541 21.6398 30.541 22.4275C30.541 23.2151 29.9025 23.8536 29.1149 23.8536H23.4104C22.6228 23.8536 21.9843 23.2151 21.9843 22.4275Z" fill="white"/>
<path d="M29.1151 22.7836V23.8539H23.41V22.7836H29.1151ZM29.4716 22.4271C29.4714 22.2305 29.3118 22.0708 29.1151 22.0707H23.41C23.2134 22.0709 23.0538 22.2305 23.0536 22.4271C23.0536 22.6239 23.2133 22.7834 23.41 22.7836V23.8539L23.2645 23.8461C22.5454 23.773 21.9843 23.1655 21.9843 22.4271C21.9844 21.6398 22.6227 21.0015 23.41 21.0013H29.1151L29.2606 21.0092C29.9797 21.0822 30.5407 21.6889 30.5409 22.4271C30.5409 23.1655 29.9798 23.7731 29.2606 23.8461L29.1151 23.8539V22.7836C29.3119 22.7834 29.4716 22.624 29.4716 22.4271Z" fill="white"/>
<path d="M1.66184 16.7229C0.874216 16.7229 0.235718 16.0844 0.235718 15.2968L0.235717 9.59227C0.235717 8.80465 0.874216 8.16615 1.66184 8.16615C2.44947 8.16615 3.08797 8.80465 3.08797 9.59228L3.08797 15.2968C3.08797 16.0844 2.44947 16.7229 1.66184 16.7229Z" fill="white"/>
<path d="M2.01794 9.59204L3.08826 9.59204L3.08826 15.2971L2.01794 15.2971L2.01794 9.59204ZM1.6615 9.2356C1.46483 9.23578 1.30518 9.39536 1.30505 9.59204L1.30505 15.2971C1.30524 15.4938 1.46486 15.6534 1.6615 15.6536C1.85829 15.6536 2.01776 15.4939 2.01794 15.2971L3.08826 15.2971L3.08044 15.4426C3.00739 16.1617 2.39988 16.7229 1.6615 16.7229C0.874145 16.7227 0.235903 16.0845 0.235718 15.2971L0.235717 9.59204L0.24353 9.44653C0.316539 8.7275 0.923245 8.16643 1.6615 8.16626C2.39992 8.16626 3.00744 8.72737 3.08044 9.44653L3.08826 9.59204L2.01794 9.59204C2.01782 9.39524 1.85833 9.2356 1.6615 9.2356Z" fill="white"/>
<path d="M63.3417 16.7229C62.554 16.7229 61.9155 16.0844 61.9155 15.2968L61.9155 9.59227C61.9155 8.80465 62.554 8.16615 63.3417 8.16615C64.1293 8.16615 64.7678 8.80465 64.7678 9.59228L64.7678 15.2968C64.7678 16.0844 64.1293 16.7229 63.3417 16.7229Z" fill="white"/>
<path d="M63.6978 9.59204L64.7681 9.59204L64.7681 15.2971L63.6978 15.2971L63.6978 9.59204ZM63.3413 9.2356C63.1446 9.23578 62.985 9.39536 62.9849 9.59204L62.9849 15.2971C62.985 15.4938 63.1447 15.6534 63.3413 15.6536C63.5381 15.6536 63.6976 15.4939 63.6978 15.2971L64.7681 15.2971L64.7603 15.4426C64.6872 16.1617 64.0797 16.7229 63.3413 16.7229C62.554 16.7227 61.9157 16.0845 61.9155 15.2971L61.9155 9.59204L61.9233 9.44653C61.9963 8.7275 62.6031 8.16643 63.3413 8.16626C64.0797 8.16626 64.6872 8.72737 64.7603 9.44653L64.7681 9.59204L63.6978 9.59204C63.6976 9.39524 63.5381 9.2356 63.3413 9.2356Z" fill="white"/>
</svg>
