<svg width="66" height="24" viewBox="0 0 66 24" fill="none" xmlns="http://www.w3.org/2000/svg">
<path d="M8.44592 16.3661H58.0035V8.16589H8.44592V16.3661ZM62.6393 19.5751L62.6315 19.7206C62.5586 20.4398 61.951 21.0009 61.2125 21.0009H5.23694C4.49862 21.0007 3.89189 20.4397 3.81897 19.7206L3.81116 19.5751V4.95691C3.81134 4.16955 4.44958 3.53131 5.23694 3.53113H61.2125C62 3.53113 62.6391 4.16944 62.6393 4.95691V19.5751Z" fill="#22AC00"/>
<path d="M8.44629 2.10508C8.44629 1.31745 9.08479 0.678955 9.87241 0.678955H15.5769C16.3645 0.678955 17.003 1.31745 17.003 2.10508C17.003 2.89271 16.3645 3.53121 15.5769 3.53121H9.87241C9.08479 3.53121 8.44629 2.89271 8.44629 2.10508Z" fill="white"/>
<path d="M15.5771 2.46118V3.53149H9.87207V2.46118H15.5771ZM15.9336 2.10474C15.9334 1.90807 15.7738 1.74842 15.5771 1.74829H9.87207C9.67544 1.74848 9.51581 1.9081 9.51562 2.10474C9.51562 2.30153 9.67532 2.461 9.87207 2.46118V3.53149L9.72656 3.52368C9.00746 3.45062 8.44629 2.84312 8.44629 2.10474C8.44647 1.31738 9.08472 0.679141 9.87207 0.678955H15.5771L15.7227 0.686768C16.4417 0.759776 17.0028 1.36648 17.0029 2.10474C17.0029 2.84316 16.4418 3.45067 15.7227 3.52368L15.5771 3.53149V2.46118C15.7739 2.46106 15.9336 2.30157 15.9336 2.10474Z" fill="white"/>
<path d="M36.6121 2.10508C36.6121 1.31745 37.2506 0.678955 38.0382 0.678955H43.7427C44.5303 0.678955 45.1688 1.31745 45.1688 2.10508C45.1688 2.89271 44.5303 3.53121 43.7427 3.53121H38.0382C37.2506 3.53121 36.6121 2.89271 36.6121 2.10508Z" fill="white"/>
<path d="M43.7429 2.46118V3.53149H38.0378V2.46118H43.7429ZM44.0994 2.10474C44.0992 1.90807 43.9396 1.74842 43.7429 1.74829H38.0378C37.8412 1.74848 37.6816 1.9081 37.6814 2.10474C37.6814 2.30153 37.8411 2.461 38.0378 2.46118V3.53149L37.8923 3.52368C37.1732 3.45062 36.6121 2.84312 36.6121 2.10474C36.6122 1.31738 37.2505 0.679141 38.0378 0.678955H43.7429L43.8884 0.686768C44.6075 0.759776 45.1685 1.36648 45.1687 2.10474C45.1687 2.84316 44.6076 3.45067 43.8884 3.52368L43.7429 3.53149V2.46118C43.9397 2.46106 44.0994 2.30157 44.0994 2.10474Z" fill="white"/>
<path d="M49.8037 2.10508C49.8037 1.31745 50.4422 0.678955 51.2298 0.678955H56.9343C57.722 0.678955 58.3605 1.31745 58.3605 2.10508C58.3605 2.89271 57.722 3.53121 56.9343 3.53121H51.2298C50.4422 3.53121 49.8037 2.89271 49.8037 2.10508Z" fill="white"/>
<path d="M56.9346 2.46118V3.53149H51.2295V2.46118H56.9346ZM57.291 2.10474C57.2908 1.90807 57.1313 1.74842 56.9346 1.74829H51.2295C51.0329 1.74848 50.8732 1.9081 50.873 2.10474C50.873 2.30153 51.0327 2.461 51.2295 2.46118V3.53149L51.084 3.52368C50.3649 3.45062 49.8037 2.84312 49.8037 2.10474C49.8039 1.31738 50.4421 0.679141 51.2295 0.678955H56.9346L57.0801 0.686768C57.7991 0.759776 58.3602 1.36648 58.3604 2.10474C58.3604 2.84316 57.7992 3.45067 57.0801 3.52368L56.9346 3.53149V2.46118C57.1314 2.46106 57.291 2.30157 57.291 2.10474Z" fill="white"/>
<path d="M22.7074 2.10508C22.7074 1.31745 23.3459 0.678955 24.1335 0.678955H29.838C30.6257 0.678955 31.2641 1.31745 31.2641 2.10508C31.2641 2.89271 30.6256 3.53121 29.838 3.53121H24.1335C23.3459 3.53121 22.7074 2.89271 22.7074 2.10508Z" fill="white"/>
<path d="M29.8383 2.46118V3.53149H24.1332V2.46118H29.8383ZM30.1947 2.10474C30.1945 1.90807 30.0349 1.74842 29.8383 1.74829H24.1332C23.9365 1.74848 23.7769 1.9081 23.7767 2.10474C23.7767 2.30153 23.9364 2.461 24.1332 2.46118V3.53149L23.9877 3.52368C23.2686 3.45062 22.7074 2.84312 22.7074 2.10474C22.7076 1.31738 23.3458 0.679141 24.1332 0.678955H29.8383L29.9838 0.686768C30.7028 0.759776 31.2639 1.36648 31.264 2.10474C31.264 2.84316 30.7029 3.45067 29.9838 3.52368L29.8383 3.53149V2.46118C30.0351 2.46106 30.1947 2.30157 30.1947 2.10474Z" fill="white"/>
<path d="M8.44629 22.4275C8.44629 21.6398 9.08479 21.0013 9.87241 21.0013H15.5769C16.3645 21.0013 17.003 21.6398 17.003 22.4275C17.003 23.2151 16.3645 23.8536 15.5769 23.8536H9.87241C9.08479 23.8536 8.44629 23.2151 8.44629 22.4275Z" fill="white"/>
<path d="M15.5771 22.7836V23.8539H9.87207V22.7836H15.5771ZM15.9336 22.4271C15.9334 22.2305 15.7738 22.0708 15.5771 22.0707H9.87207C9.67544 22.0709 9.51581 22.2305 9.51562 22.4271C9.51562 22.6239 9.67532 22.7834 9.87207 22.7836V23.8539L9.72656 23.8461C9.00746 23.773 8.44629 23.1655 8.44629 22.4271C8.44647 21.6398 9.08472 21.0015 9.87207 21.0013H15.5771L15.7227 21.0092C16.4417 21.0822 17.0028 21.6889 17.0029 22.4271C17.0029 23.1655 16.4418 23.7731 15.7227 23.8461L15.5771 23.8539V22.7836C15.7739 22.7834 15.9336 22.624 15.9336 22.4271Z" fill="white"/>
<path d="M36.6121 22.4275C36.6121 21.6398 37.2506 21.0013 38.0382 21.0013H43.7427C44.5303 21.0013 45.1688 21.6398 45.1688 22.4275C45.1688 23.2151 44.5303 23.8536 43.7427 23.8536H38.0382C37.2506 23.8536 36.6121 23.2151 36.6121 22.4275Z" fill="white"/>
<path d="M43.7429 22.7836V23.8539H38.0378V22.7836H43.7429ZM44.0994 22.4271C44.0992 22.2305 43.9396 22.0708 43.7429 22.0707H38.0378C37.8412 22.0709 37.6816 22.2305 37.6814 22.4271C37.6814 22.6239 37.8411 22.7834 38.0378 22.7836V23.8539L37.8923 23.8461C37.1732 23.773 36.6121 23.1655 36.6121 22.4271C36.6122 21.6398 37.2505 21.0015 38.0378 21.0013H43.7429L43.8884 21.0092C44.6075 21.0822 45.1685 21.6889 45.1687 22.4271C45.1687 23.1655 44.6076 23.7731 43.8884 23.8461L43.7429 23.8539V22.7836C43.9397 22.7834 44.0994 22.624 44.0994 22.4271Z" fill="white"/>
<path d="M49.8037 22.4275C49.8037 21.6398 50.4422 21.0013 51.2298 21.0013H56.9343C57.722 21.0013 58.3605 21.6398 58.3605 22.4275C58.3605 23.2151 57.722 23.8536 56.9343 23.8536H51.2298C50.4422 23.8536 49.8037 23.2151 49.8037 22.4275Z" fill="white"/>
<path d="M56.9346 22.7836V23.8539H51.2295V22.7836H56.9346ZM57.291 22.4271C57.2908 22.2305 57.1313 22.0708 56.9346 22.0707H51.2295C51.0329 22.0709 50.8732 22.2305 50.873 22.4271C50.873 22.6239 51.0327 22.7834 51.2295 22.7836V23.8539L51.084 23.8461C50.3649 23.773 49.8037 23.1655 49.8037 22.4271C49.8039 21.6398 50.4421 21.0015 51.2295 21.0013H56.9346L57.0801 21.0092C57.7991 21.0822 58.3602 21.6889 58.3604 22.4271C58.3604 23.1655 57.7992 23.7731 57.0801 23.8461L56.9346 23.8539V22.7836C57.1314 22.7834 57.291 22.624 57.291 22.4271Z" fill="white"/>
<path d="M22.7074 22.4275C22.7074 21.6398 23.3459 21.0013 24.1335 21.0013H29.838C30.6257 21.0013 31.2641 21.6398 31.2641 22.4275C31.2641 23.2151 30.6256 23.8536 29.838 23.8536H24.1335C23.3459 23.8536 22.7074 23.2151 22.7074 22.4275Z" fill="white"/>
<path d="M29.8383 22.7836V23.8539H24.1332V22.7836H29.8383ZM30.1947 22.4271C30.1945 22.2305 30.0349 22.0708 29.8383 22.0707H24.1332C23.9365 22.0709 23.7769 22.2305 23.7767 22.4271C23.7767 22.6239 23.9364 22.7834 24.1332 22.7836V23.8539L23.9877 23.8461C23.2686 23.773 22.7074 23.1655 22.7074 22.4271C22.7076 21.6398 23.3458 21.0015 24.1332 21.0013H29.8383L29.9838 21.0092C30.7028 21.0822 31.2639 21.6889 31.264 22.4271C31.264 23.1655 30.7029 23.7731 29.9838 23.8461L29.8383 23.8539V22.7836C30.0351 22.7834 30.1947 22.624 30.1947 22.4271Z" fill="white"/>
<path d="M2.38511 16.7229C1.59748 16.7229 0.958984 16.0844 0.958984 15.2968L0.958984 9.59227C0.958984 8.80465 1.59748 8.16615 2.38511 8.16615C3.17274 8.16615 3.81123 8.80465 3.81123 9.59228L3.81123 15.2968C3.81123 16.0844 3.17274 16.7229 2.38511 16.7229Z" fill="white"/>
<path d="M2.74121 9.59204L3.81152 9.59204L3.81152 15.2971L2.74121 15.2971L2.74121 9.59204ZM2.38477 9.2356C2.18809 9.23578 2.02845 9.39536 2.02832 9.59204L2.02832 15.2971C2.02851 15.4938 2.18813 15.6534 2.38477 15.6536C2.58156 15.6536 2.74103 15.4939 2.74121 15.2971L3.81152 15.2971L3.80371 15.4426C3.73065 16.1617 3.12315 16.7229 2.38477 16.7229C1.59741 16.7227 0.95917 16.0845 0.958984 15.2971L0.958984 9.59204L0.966797 9.44653C1.03981 8.7275 1.64651 8.16643 2.38477 8.16626C3.12318 8.16626 3.7307 8.72737 3.80371 9.44653L3.81152 9.59204L2.74121 9.59204C2.74108 9.39524 2.58159 9.2356 2.38477 9.2356Z" fill="white"/>
<path d="M64.0649 16.7229C63.2773 16.7229 62.6388 16.0844 62.6388 15.2968L62.6388 9.59227C62.6388 8.80465 63.2773 8.16615 64.0649 8.16615C64.8525 8.16615 65.491 8.80465 65.491 9.59228L65.491 15.2968C65.491 16.0844 64.8525 16.7229 64.0649 16.7229Z" fill="white"/>
<path d="M64.421 9.59204L65.4913 9.59204L65.4913 15.2971L64.421 15.2971L64.421 9.59204ZM64.0646 9.2356C63.8679 9.23578 63.7083 9.39536 63.7081 9.59204L63.7081 15.2971C63.7083 15.4938 63.8679 15.6534 64.0646 15.6536C64.2614 15.6536 64.4208 15.4939 64.421 15.2971L65.4913 15.2971L65.4835 15.4426C65.4105 16.1617 64.803 16.7229 64.0646 16.7229C63.2772 16.7227 62.639 16.0845 62.6388 15.2971L62.6388 9.59204L62.6466 9.44653C62.7196 8.7275 63.3263 8.16643 64.0646 8.16626C64.803 8.16626 65.4105 8.72737 65.4835 9.44653L65.4913 9.59204L64.421 9.59204C64.4209 9.39524 64.2614 9.2356 64.0646 9.2356Z" fill="white"/>
</svg>
