<svg width="24" height="65" viewBox="0 0 24 65" fill="none" xmlns="http://www.w3.org/2000/svg">
<path d="M16.5126 57.045L16.5126 7.48743L8.31238 7.48743L8.31238 57.045L16.5126 57.045ZM19.7216 2.85168L19.8671 2.8595C20.5863 2.93241 21.1473 3.53995 21.1473 4.27844L21.1473 60.254C21.1472 60.9923 20.5862 61.5991 19.8671 61.672L19.7216 61.6798L5.10339 61.6798C4.31604 61.6796 3.6778 61.0414 3.67761 60.254L3.67761 4.27844C3.67761 3.49093 4.31593 2.85187 5.10339 2.85168L19.7216 2.85168Z" fill="#AFAFAF"/>
<path d="M2.25156 57.045C1.46394 57.045 0.825439 56.4065 0.825439 55.6189L0.82544 49.9144C0.82544 49.1268 1.46394 48.4883 2.25156 48.4883C3.03919 48.4883 3.67769 49.1268 3.67769 49.9144L3.67769 55.6189C3.67769 56.4065 3.03919 57.045 2.25156 57.045Z" fill="white"/>
<path d="M2.60767 49.9142L3.67798 49.9142L3.67798 55.6193L2.60767 55.6193L2.60767 49.9142ZM2.25122 49.5577C2.05455 49.5579 1.8949 49.7175 1.89478 49.9142L1.89478 55.6193C1.89496 55.8159 2.05459 55.9755 2.25122 55.9757C2.44801 55.9757 2.60748 55.816 2.60767 55.6193L3.67798 55.6193L3.67017 55.7648C3.59711 56.4839 2.9896 57.045 2.25122 57.045C1.46387 57.0449 0.825625 56.4066 0.825439 55.6193L0.82544 49.9142L0.833252 49.7687C0.906261 49.0496 1.51297 48.4886 2.25122 48.4884C2.98964 48.4884 3.59716 49.0495 3.67017 49.7687L3.67798 49.9142L2.60767 49.9142C2.60754 49.7174 2.44805 49.5577 2.25122 49.5577Z" fill="white"/>
<path d="M2.25156 28.879C1.46394 28.879 0.825439 28.2405 0.825439 27.4529L0.82544 21.7484C0.82544 20.9608 1.46394 20.3223 2.25156 20.3223C3.03919 20.3223 3.67769 20.9608 3.67769 21.7484L3.67769 27.4529C3.67769 28.2405 3.03919 28.879 2.25156 28.879Z" fill="white"/>
<path d="M2.60767 21.7482L3.67798 21.7482L3.67798 27.4532L2.60767 27.4532L2.60767 21.7482ZM2.25122 21.3917C2.05455 21.3919 1.8949 21.5515 1.89478 21.7482L1.89478 27.4532C1.89496 27.6499 2.05459 27.8095 2.25122 27.8097C2.44801 27.8097 2.60748 27.65 2.60767 27.4532L3.67798 27.4532L3.67017 27.5988C3.59711 28.3179 2.9896 28.879 2.25122 28.879C1.46387 28.8788 0.825625 28.2406 0.825439 27.4532L0.82544 21.7482L0.833252 21.6027C0.906261 20.8836 1.51297 20.3226 2.25122 20.3224C2.98964 20.3224 3.59716 20.8835 3.67017 21.6027L3.67798 21.7482L2.60767 21.7482C2.60754 21.5514 2.44805 21.3917 2.25122 21.3917Z" fill="white"/>
<path d="M2.25156 15.6873C1.46394 15.6873 0.825439 15.0488 0.825439 14.2611L0.82544 8.55663C0.82544 7.769 1.46394 7.13051 2.25156 7.13051C3.03919 7.13051 3.67769 7.769 3.67769 8.55663L3.67769 14.2611C3.67769 15.0488 3.03919 15.6873 2.25156 15.6873Z" fill="white"/>
<path d="M2.60767 8.5564L3.67798 8.5564L3.67798 14.2615L2.60767 14.2615L2.60767 8.5564ZM2.25122 8.19995C2.05455 8.20014 1.8949 8.35971 1.89478 8.5564L1.89478 14.2615C1.89496 14.4581 2.05459 14.6177 2.25122 14.6179C2.44801 14.6179 2.60748 14.4582 2.60767 14.2615L3.67798 14.2615L3.67017 14.407C3.59711 15.1261 2.9896 15.6873 2.25122 15.6873C1.46387 15.6871 0.825625 15.0488 0.825439 14.2615L0.82544 8.5564L0.833252 8.41089C0.906261 7.69186 1.51297 7.13079 2.25122 7.13062C2.98964 7.13062 3.59716 7.69173 3.67017 8.41089L3.67798 8.5564L2.60767 8.5564C2.60754 8.3596 2.44805 8.19995 2.25122 8.19995Z" fill="white"/>
<path d="M2.25156 42.7837C1.46394 42.7837 0.825439 42.1452 0.825439 41.3576L0.82544 35.6531C0.82544 34.8654 1.46394 34.2269 2.25156 34.2269C3.03919 34.2269 3.67769 34.8654 3.67769 35.6531L3.67769 41.3576C3.67769 42.1452 3.03919 42.7837 2.25156 42.7837Z" fill="white"/>
<path d="M2.60767 35.6528L3.67798 35.6528L3.67798 41.3579L2.60767 41.3579L2.60767 35.6528ZM2.25122 35.2964C2.05455 35.2966 1.8949 35.4561 1.89478 35.6528L1.89478 41.3579C1.89496 41.5545 2.05459 41.7142 2.25122 41.7144C2.44801 41.7144 2.60748 41.5547 2.60767 41.3579L3.67798 41.3579L3.67017 41.5034C3.59711 42.2225 2.9896 42.7837 2.25122 42.7837C1.46387 42.7835 0.825625 42.1453 0.825439 41.3579L0.82544 35.6528L0.833252 35.5073C0.906261 34.7883 1.51297 34.2272 2.25122 34.2271C2.98964 34.2271 3.59716 34.7882 3.67017 35.5073L3.67798 35.6528L2.60767 35.6528C2.60754 35.456 2.44805 35.2964 2.25122 35.2964Z" fill="white"/>
<path d="M22.574 57.045C21.7863 57.045 21.1478 56.4065 21.1478 55.6189L21.1478 49.9144C21.1478 49.1268 21.7863 48.4883 22.574 48.4883C23.3616 48.4883 24.0001 49.1268 24.0001 49.9144L24.0001 55.6189C24.0001 56.4065 23.3616 57.045 22.574 57.045Z" fill="white"/>
<path d="M22.9301 49.9142L24.0004 49.9142L24.0004 55.6193L22.9301 55.6193L22.9301 49.9142ZM22.5736 49.5577C22.3769 49.5579 22.2173 49.7175 22.2172 49.9142L22.2172 55.6193C22.2173 55.8159 22.377 55.9755 22.5736 55.9757C22.7704 55.9757 22.9299 55.816 22.9301 55.6193L24.0004 55.6193L23.9926 55.7648C23.9195 56.4839 23.312 57.045 22.5736 57.045C21.7863 57.0449 21.148 56.4066 21.1478 55.6193L21.1478 49.9142L21.1556 49.7687C21.2286 49.0496 21.8354 48.4886 22.5736 48.4884C23.312 48.4884 23.9195 49.0495 23.9926 49.7687L24.0004 49.9142L22.9301 49.9142C22.9299 49.7174 22.7704 49.5577 22.5736 49.5577Z" fill="white"/>
<path d="M22.574 28.879C21.7863 28.879 21.1478 28.2405 21.1478 27.4529L21.1478 21.7484C21.1478 20.9608 21.7863 20.3223 22.574 20.3223C23.3616 20.3223 24.0001 20.9608 24.0001 21.7484L24.0001 27.4529C24.0001 28.2405 23.3616 28.879 22.574 28.879Z" fill="white"/>
<path d="M22.9301 21.7482L24.0004 21.7482L24.0004 27.4532L22.9301 27.4532L22.9301 21.7482ZM22.5736 21.3917C22.3769 21.3919 22.2173 21.5515 22.2172 21.7482L22.2172 27.4532C22.2173 27.6499 22.377 27.8095 22.5736 27.8097C22.7704 27.8097 22.9299 27.65 22.9301 27.4532L24.0004 27.4532L23.9926 27.5988C23.9195 28.3179 23.312 28.879 22.5736 28.879C21.7863 28.8788 21.148 28.2406 21.1478 27.4532L21.1478 21.7482L21.1556 21.6027C21.2286 20.8836 21.8354 20.3226 22.5736 20.3224C23.312 20.3224 23.9195 20.8835 23.9926 21.6027L24.0004 21.7482L22.9301 21.7482C22.9299 21.5514 22.7704 21.3917 22.5736 21.3917Z" fill="white"/>
<path d="M22.574 15.6873C21.7863 15.6873 21.1478 15.0488 21.1478 14.2611L21.1478 8.55663C21.1478 7.769 21.7863 7.13051 22.574 7.13051C23.3616 7.13051 24.0001 7.769 24.0001 8.55663L24.0001 14.2611C24.0001 15.0488 23.3616 15.6873 22.574 15.6873Z" fill="white"/>
<path d="M22.9301 8.5564L24.0004 8.5564L24.0004 14.2615L22.9301 14.2615L22.9301 8.5564ZM22.5736 8.19995C22.3769 8.20014 22.2173 8.35971 22.2172 8.5564L22.2172 14.2615C22.2173 14.4581 22.377 14.6177 22.5736 14.6179C22.7704 14.6179 22.9299 14.4582 22.9301 14.2615L24.0004 14.2615L23.9926 14.407C23.9195 15.1261 23.312 15.6873 22.5736 15.6873C21.7863 15.6871 21.148 15.0488 21.1478 14.2615L21.1478 8.5564L21.1556 8.41089C21.2286 7.69186 21.8354 7.13079 22.5736 7.13062C23.312 7.13062 23.9195 7.69173 23.9926 8.41089L24.0004 8.5564L22.9301 8.5564C22.9299 8.3596 22.7704 8.19995 22.5736 8.19995Z" fill="white"/>
<path d="M22.574 42.7837C21.7863 42.7837 21.1478 42.1452 21.1478 41.3576L21.1478 35.6531C21.1478 34.8654 21.7863 34.2269 22.574 34.2269C23.3616 34.2269 24.0001 34.8654 24.0001 35.6531L24.0001 41.3576C24.0001 42.1452 23.3616 42.7837 22.574 42.7837Z" fill="white"/>
<path d="M22.9301 35.6528L24.0004 35.6528L24.0004 41.3579L22.9301 41.3579L22.9301 35.6528ZM22.5736 35.2964C22.3769 35.2966 22.2173 35.4561 22.2172 35.6528L22.2172 41.3579C22.2173 41.5545 22.377 41.7142 22.5736 41.7144C22.7704 41.7144 22.9299 41.5547 22.9301 41.3579L24.0004 41.3579L23.9926 41.5034C23.9195 42.2225 23.312 42.7837 22.5736 42.7837C21.7863 42.7835 21.148 42.1453 21.1478 41.3579L21.1478 35.6528L21.1556 35.5073C21.2286 34.7883 21.8354 34.2272 22.5736 34.2271C23.312 34.2271 23.9195 34.7882 23.9926 35.5073L24.0004 35.6528L22.9301 35.6528C22.9299 35.456 22.7704 35.2964 22.5736 35.2964Z" fill="white"/>
<path d="M16.8693 63.106C16.8693 63.8936 16.2308 64.5321 15.4431 64.5321L9.73864 64.5321C8.95101 64.5321 8.31251 63.8936 8.31251 63.106C8.31251 62.3184 8.95101 61.6799 9.73864 61.6799L15.4431 61.6799C16.2308 61.6799 16.8693 62.3184 16.8693 63.106Z" fill="white"/>
<path d="M9.7384 62.7499L9.7384 61.6796L15.4435 61.6796L15.4435 62.7499L9.7384 62.7499ZM9.38196 63.1063C9.38214 63.303 9.54172 63.4626 9.7384 63.4628L15.4435 63.4628C15.6401 63.4626 15.7997 63.303 15.7999 63.1063C15.7999 62.9095 15.6402 62.7501 15.4435 62.7499L15.4435 61.6796L15.589 61.6874C16.3081 61.7604 16.8693 62.3679 16.8693 63.1063C16.8691 63.8937 16.2308 64.5319 15.4435 64.5321L9.7384 64.5321L9.5929 64.5243C8.87386 64.4513 8.3128 63.8446 8.31262 63.1063C8.31262 62.3679 8.87374 61.7604 9.5929 61.6874L9.7384 61.6796L9.7384 62.7499C9.5416 62.75 9.38196 62.9095 9.38196 63.1063Z" fill="white"/>
<path d="M16.8693 1.42605C16.8693 2.21367 16.2308 2.85217 15.4431 2.85217L9.73864 2.85217C8.95101 2.85217 8.31251 2.21367 8.31251 1.42605C8.31251 0.638421 8.95101 -7.72343e-05 9.73864 -7.72594e-05L15.4431 -7.74407e-05C16.2308 -7.74657e-05 16.8693 0.638421 16.8693 1.42605Z" fill="white"/>
<path d="M9.7384 1.06995L9.7384 -0.000365984L15.4435 -0.000366166L15.4435 1.06995L9.7384 1.06995ZM9.38196 1.42639C9.38214 1.62306 9.54172 1.78271 9.7384 1.78284L15.4435 1.78284C15.6401 1.78265 15.7997 1.62303 15.7999 1.42639C15.7999 1.2296 15.6402 1.07013 15.4435 1.06995L15.4435 -0.000366166L15.589 0.00744633C16.3081 0.0805031 16.8693 0.68801 16.8693 1.42639C16.8691 2.21375 16.2308 2.85199 15.4435 2.85217L9.7384 2.85217L9.5929 2.84436C8.87386 2.77135 8.3128 2.16465 8.31262 1.42639C8.31262 0.687973 8.87374 0.0804533 9.5929 0.00744652L9.7384 -0.000365984L9.7384 1.06995C9.5416 1.07007 9.38196 1.22956 9.38196 1.42639Z" fill="white"/>
</svg>
