<svg width="24" height="65" viewBox="0 0 24 65" fill="none" xmlns="http://www.w3.org/2000/svg">
<path d="M16.4764 57.045L16.4764 7.48743L8.27618 7.48743L8.27618 57.045L16.4764 57.045ZM19.6854 2.85168L19.8309 2.8595C20.5501 2.9324 21.1111 3.53995 21.1111 4.27844L21.1111 60.254C21.111 60.9923 20.55 61.5991 19.8309 61.672L19.6854 61.6798L5.0672 61.6798C4.27984 61.6796 3.6416 61.0414 3.64142 60.254L3.64142 4.27844C3.64142 3.49093 4.27973 2.85187 5.0672 2.85168L19.6854 2.85168Z" fill="#22AC00"/>
<path d="M2.21537 57.045C1.42774 57.045 0.789246 56.4065 0.789246 55.6189L0.789245 49.9144C0.789245 49.1268 1.42774 48.4883 2.21537 48.4883C3.003 48.4883 3.6415 49.1268 3.6415 49.9144L3.6415 55.6189C3.6415 56.4065 3.003 57.045 2.21537 57.045Z" fill="white"/>
<path d="M2.57147 49.9142L3.64178 49.9142L3.64178 55.6193L2.57147 55.6193L2.57147 49.9142ZM2.21503 49.5577C2.01836 49.5579 1.85871 49.7175 1.85858 49.9142L1.85858 55.6193C1.85877 55.8159 2.01839 55.9755 2.21503 55.9757C2.41182 55.9757 2.57129 55.816 2.57147 55.6193L3.64178 55.6193L3.63397 55.7648C3.56092 56.4839 2.95341 57.045 2.21503 57.045C1.42767 57.0449 0.789431 56.4066 0.789246 55.6193L0.789245 49.9142L0.797058 49.7687C0.870067 49.0496 1.47677 48.4886 2.21503 48.4884C2.95345 48.4884 3.56097 49.0495 3.63397 49.7687L3.64178 49.9142L2.57147 49.9142C2.57135 49.7174 2.41186 49.5577 2.21503 49.5577Z" fill="white"/>
<path d="M2.21537 28.879C1.42774 28.879 0.789246 28.2405 0.789246 27.4529L0.789245 21.7484C0.789245 20.9608 1.42774 20.3223 2.21537 20.3223C3.003 20.3223 3.6415 20.9608 3.6415 21.7484L3.6415 27.4529C3.6415 28.2405 3.003 28.879 2.21537 28.879Z" fill="white"/>
<path d="M2.57147 21.7482L3.64178 21.7482L3.64178 27.4532L2.57147 27.4532L2.57147 21.7482ZM2.21503 21.3917C2.01836 21.3919 1.85871 21.5515 1.85858 21.7482L1.85858 27.4532C1.85877 27.6499 2.01839 27.8095 2.21503 27.8097C2.41182 27.8097 2.57129 27.65 2.57147 27.4532L3.64178 27.4532L3.63397 27.5988C3.56092 28.3179 2.95341 28.879 2.21503 28.879C1.42767 28.8788 0.789431 28.2406 0.789246 27.4532L0.789245 21.7482L0.797058 21.6027C0.870067 20.8836 1.47677 20.3226 2.21503 20.3224C2.95345 20.3224 3.56097 20.8835 3.63397 21.6027L3.64178 21.7482L2.57147 21.7482C2.57135 21.5514 2.41186 21.3917 2.21503 21.3917Z" fill="white"/>
<path d="M2.21537 15.6873C1.42774 15.6873 0.789246 15.0488 0.789246 14.2611L0.789245 8.55663C0.789245 7.769 1.42774 7.13051 2.21537 7.13051C3.003 7.13051 3.6415 7.769 3.6415 8.55663L3.6415 14.2611C3.6415 15.0488 3.003 15.6873 2.21537 15.6873Z" fill="white"/>
<path d="M2.57147 8.5564L3.64178 8.5564L3.64178 14.2615L2.57147 14.2615L2.57147 8.5564ZM2.21503 8.19995C2.01836 8.20014 1.85871 8.35971 1.85858 8.5564L1.85858 14.2615C1.85877 14.4581 2.01839 14.6177 2.21503 14.6179C2.41182 14.6179 2.57129 14.4582 2.57147 14.2615L3.64178 14.2615L3.63397 14.407C3.56092 15.1261 2.95341 15.6873 2.21503 15.6873C1.42767 15.6871 0.789431 15.0488 0.789246 14.2615L0.789245 8.5564L0.797058 8.41089C0.870067 7.69186 1.47677 7.13079 2.21503 7.13062C2.95345 7.13062 3.56097 7.69173 3.63397 8.41089L3.64178 8.5564L2.57147 8.5564C2.57135 8.3596 2.41186 8.19995 2.21503 8.19995Z" fill="white"/>
<path d="M2.21537 42.7837C1.42774 42.7837 0.789246 42.1452 0.789246 41.3576L0.789245 35.6531C0.789245 34.8654 1.42774 34.2269 2.21537 34.2269C3.003 34.2269 3.6415 34.8654 3.6415 35.6531L3.6415 41.3576C3.6415 42.1452 3.003 42.7837 2.21537 42.7837Z" fill="white"/>
<path d="M2.57147 35.6528L3.64178 35.6528L3.64178 41.3579L2.57147 41.3579L2.57147 35.6528ZM2.21503 35.2964C2.01836 35.2966 1.85871 35.4561 1.85858 35.6528L1.85858 41.3579C1.85877 41.5545 2.01839 41.7142 2.21503 41.7144C2.41182 41.7144 2.57129 41.5547 2.57147 41.3579L3.64178 41.3579L3.63397 41.5034C3.56092 42.2225 2.95341 42.7837 2.21503 42.7837C1.42767 42.7835 0.789431 42.1453 0.789246 41.3579L0.789245 35.6528L0.797058 35.5073C0.870067 34.7883 1.47677 34.2272 2.21503 34.2271C2.95345 34.2271 3.56097 34.7882 3.63397 35.5073L3.64178 35.6528L2.57147 35.6528C2.57135 35.456 2.41186 35.2964 2.21503 35.2964Z" fill="white"/>
<path d="M22.5378 57.045C21.7501 57.045 21.1116 56.4065 21.1116 55.6189L21.1116 49.9144C21.1116 49.1268 21.7501 48.4883 22.5378 48.4883C23.3254 48.4883 23.9639 49.1268 23.9639 49.9144L23.9639 55.6189C23.9639 56.4065 23.3254 57.045 22.5378 57.045Z" fill="white"/>
<path d="M22.8939 49.9142L23.9642 49.9142L23.9642 55.6193L22.8939 55.6193L22.8939 49.9142ZM22.5374 49.5577C22.3407 49.5579 22.1811 49.7175 22.181 49.9142L22.181 55.6193C22.1812 55.8159 22.3408 55.9755 22.5374 55.9757C22.7342 55.9757 22.8937 55.816 22.8939 55.6193L23.9642 55.6193L23.9564 55.7648C23.8833 56.4839 23.2758 57.045 22.5374 57.045C21.7501 57.0449 21.1118 56.4066 21.1116 55.6193L21.1116 49.9142L21.1194 49.7687C21.1925 49.0496 21.7992 48.4886 22.5374 48.4884C23.2758 48.4884 23.8834 49.0495 23.9564 49.7687L23.9642 49.9142L22.8939 49.9142C22.8937 49.7174 22.7342 49.5577 22.5374 49.5577Z" fill="white"/>
<path d="M22.5378 28.879C21.7501 28.879 21.1116 28.2405 21.1116 27.4529L21.1116 21.7484C21.1116 20.9608 21.7501 20.3223 22.5378 20.3223C23.3254 20.3223 23.9639 20.9608 23.9639 21.7484L23.9639 27.4529C23.9639 28.2405 23.3254 28.879 22.5378 28.879Z" fill="white"/>
<path d="M22.8939 21.7482L23.9642 21.7482L23.9642 27.4532L22.8939 27.4532L22.8939 21.7482ZM22.5374 21.3917C22.3407 21.3919 22.1811 21.5515 22.181 21.7482L22.181 27.4532C22.1812 27.6499 22.3408 27.8095 22.5374 27.8097C22.7342 27.8097 22.8937 27.65 22.8939 27.4532L23.9642 27.4532L23.9564 27.5988C23.8833 28.3179 23.2758 28.879 22.5374 28.879C21.7501 28.8788 21.1118 28.2406 21.1116 27.4532L21.1116 21.7482L21.1194 21.6027C21.1925 20.8836 21.7992 20.3226 22.5374 20.3224C23.2758 20.3224 23.8834 20.8835 23.9564 21.6027L23.9642 21.7482L22.8939 21.7482C22.8937 21.5514 22.7342 21.3917 22.5374 21.3917Z" fill="white"/>
<path d="M22.5378 15.6873C21.7501 15.6873 21.1116 15.0488 21.1116 14.2611L21.1116 8.55663C21.1116 7.769 21.7501 7.13051 22.5378 7.13051C23.3254 7.13051 23.9639 7.769 23.9639 8.55663L23.9639 14.2611C23.9639 15.0488 23.3254 15.6873 22.5378 15.6873Z" fill="white"/>
<path d="M22.8939 8.5564L23.9642 8.5564L23.9642 14.2615L22.8939 14.2615L22.8939 8.5564ZM22.5374 8.19995C22.3407 8.20014 22.1811 8.35971 22.181 8.5564L22.181 14.2615C22.1812 14.4581 22.3408 14.6177 22.5374 14.6179C22.7342 14.6179 22.8937 14.4582 22.8939 14.2615L23.9642 14.2615L23.9564 14.407C23.8833 15.1261 23.2758 15.6873 22.5374 15.6873C21.7501 15.6871 21.1118 15.0488 21.1116 14.2615L21.1116 8.5564L21.1194 8.41089C21.1925 7.69186 21.7992 7.13079 22.5374 7.13062C23.2758 7.13062 23.8834 7.69173 23.9564 8.41089L23.9642 8.5564L22.8939 8.5564C22.8937 8.3596 22.7342 8.19995 22.5374 8.19995Z" fill="white"/>
<path d="M22.5378 42.7837C21.7501 42.7837 21.1116 42.1452 21.1116 41.3576L21.1116 35.6531C21.1116 34.8654 21.7501 34.2269 22.5378 34.2269C23.3254 34.2269 23.9639 34.8654 23.9639 35.6531L23.9639 41.3576C23.9639 42.1452 23.3254 42.7837 22.5378 42.7837Z" fill="white"/>
<path d="M22.8939 35.6528L23.9642 35.6528L23.9642 41.3579L22.8939 41.3579L22.8939 35.6528ZM22.5374 35.2964C22.3407 35.2966 22.1811 35.4561 22.181 35.6528L22.181 41.3579C22.1812 41.5545 22.3408 41.7142 22.5374 41.7144C22.7342 41.7144 22.8937 41.5547 22.8939 41.3579L23.9642 41.3579L23.9564 41.5034C23.8833 42.2225 23.2758 42.7837 22.5374 42.7837C21.7501 42.7835 21.1118 42.1453 21.1116 41.3579L21.1116 35.6528L21.1194 35.5073C21.1925 34.7883 21.7992 34.2272 22.5374 34.2271C23.2758 34.2271 23.8834 34.7882 23.9564 35.5073L23.9642 35.6528L22.8939 35.6528C22.8937 35.456 22.7342 35.2964 22.5374 35.2964Z" fill="white"/>
<path d="M16.833 63.106C16.833 63.8936 16.1945 64.5321 15.4069 64.5321L9.70238 64.5321C8.91476 64.5321 8.27626 63.8936 8.27626 63.106C8.27626 62.3184 8.91476 61.6799 9.70238 61.6799L15.4069 61.6799C16.1945 61.6799 16.833 62.3184 16.833 63.106Z" fill="white"/>
<path d="M9.70215 62.7499L9.70215 61.6796L15.4072 61.6796L15.4072 62.7499L9.70215 62.7499ZM9.3457 63.1063C9.34589 63.303 9.50546 63.4626 9.70215 63.4628L15.4072 63.4628C15.6039 63.4626 15.7635 63.303 15.7637 63.1063C15.7637 62.9095 15.604 62.7501 15.4072 62.7499L15.4072 61.6796L15.5527 61.6874C16.2718 61.7604 16.833 62.3679 16.833 63.1063C16.8328 63.8937 16.1946 64.5319 15.4072 64.5321L9.70215 64.5321L9.55664 64.5243C8.83761 64.4513 8.27654 63.8446 8.27637 63.1063C8.27637 62.3679 8.83748 61.7604 9.55664 61.6874L9.70215 61.6796L9.70215 62.7499C9.50535 62.75 9.3457 62.9095 9.3457 63.1063Z" fill="white"/>
<path d="M16.833 1.42605C16.833 2.21367 16.1945 2.85217 15.4069 2.85217L9.70238 2.85217C8.91476 2.85217 8.27626 2.21368 8.27626 1.42605C8.27626 0.638421 8.91476 -7.67938e-05 9.70238 -7.68627e-05L15.4069 -7.73614e-05C16.1945 -7.74302e-05 16.833 0.638421 16.833 1.42605Z" fill="white"/>
<path d="M9.70215 1.06995L9.70215 -0.000365588L15.4072 -0.000366086L15.4072 1.06995L9.70215 1.06995ZM9.3457 1.42639C9.34589 1.62306 9.50546 1.78271 9.70215 1.78284L15.4072 1.78284C15.6039 1.78265 15.7635 1.62303 15.7637 1.42639C15.7637 1.2296 15.604 1.07013 15.4072 1.06995L15.4072 -0.000366086L15.5527 0.0074464C16.2718 0.0805032 16.833 0.68801 16.833 1.42639C16.8328 2.21375 16.1946 2.85199 15.4072 2.85217L9.70215 2.85217L9.55664 2.84436C8.83761 2.77135 8.27654 2.16465 8.27637 1.42639C8.27637 0.687973 8.83748 0.0804538 9.55664 0.00744693L9.70215 -0.000365588L9.70215 1.06995C9.50535 1.07007 9.3457 1.22956 9.3457 1.42639Z" fill="white"/>
</svg>
