<svg width="25" height="20" viewBox="0 0 25 20" fill="none" xmlns="http://www.w3.org/2000/svg">
<path d="M24.117 5.74841C24.5348 5.74841 24.8734 6.08707 24.8734 6.50482L24.8734 14.2218C24.8734 14.6396 24.5348 14.9782 24.117 14.9782L20.2291 14.9782C19.8113 14.9782 19.4727 14.6396 19.4727 14.2218L19.4727 6.50482C19.4727 6.08707 19.8113 5.74841 20.2291 5.74841L24.117 5.74841Z" fill="white"/>
<path d="M20.6068 6.88318L20.6068 13.8441L23.7386 13.8441L23.7386 6.88318L20.6068 6.88318ZM20.2289 14.9779L20.1517 14.974C19.7958 14.9378 19.5131 14.6551 19.4769 14.2992L19.473 14.222L19.473 6.50525L19.4769 6.42712C19.5132 6.07132 19.7959 5.78847 20.1517 5.75232L20.2289 5.74841L24.1166 5.74841C24.5081 5.74841 24.8306 6.04587 24.8695 6.42712L24.8734 6.50525L24.8734 14.222L24.8695 14.2992C24.8308 14.6806 24.5082 14.9779 24.1166 14.9779L20.2289 14.9779Z" fill="white"/>
<path d="M4.94843 5.74817C5.36618 5.74817 5.70483 6.08682 5.70483 6.50457L5.70483 14.0686C5.70483 14.4864 5.36618 14.825 4.94843 14.825L1.05377 14.825C0.636018 14.825 0.297364 14.4864 0.297364 14.0686L0.297365 6.50457C0.297365 6.08682 0.636018 5.74817 1.05377 5.74817L4.94843 5.74817Z" fill="white"/>
<path d="M1.43237 6.88293L1.43237 13.6906L4.57007 13.6906L4.57007 6.88293L1.43237 6.88293ZM1.05347 14.8253L0.976318 14.8214C0.594935 14.7826 0.297607 14.4601 0.297607 14.0685L0.297607 6.505L0.301514 6.42688C0.337824 6.0711 0.620503 5.78826 0.976318 5.75207L1.05347 5.74817L4.948 5.74817C5.33952 5.74817 5.66203 6.04563 5.70093 6.42688L5.70483 6.505L5.70483 14.0685C5.70483 14.4862 5.36575 14.8253 4.948 14.8253L1.05347 14.8253Z" fill="white"/>
<path d="M12.5887 14.4469C14.9907 14.4467 16.9374 12.4992 16.9374 10.0973C16.9372 7.69548 14.9906 5.74883 12.5887 5.74866C10.1868 5.74866 8.23931 7.69537 8.23914 10.0973L3.32214 10.0973L3.33484 9.62073C3.58305 4.72492 7.63125 0.831664 12.5887 0.831665C17.7059 0.831836 21.8542 4.9801 21.8544 10.0973C21.8544 15.2146 17.706 19.3637 12.5887 19.3639L12.1112 19.3512C7.21555 19.1028 3.32214 15.0547 3.32214 10.0973L8.23914 10.0973C8.23914 12.4994 10.1867 14.4469 12.5887 14.4469Z" fill="#AFAFAF"/>
</svg>
