<svg width="25" height="20" viewBox="0 0 25 20" fill="none" xmlns="http://www.w3.org/2000/svg">
<path d="M24.0366 5.74841C24.4543 5.74841 24.793 6.08707 24.793 6.50482L24.793 14.2218C24.793 14.6396 24.4543 14.9782 24.0366 14.9782L20.1486 14.9782C19.7309 14.9782 19.3922 14.6396 19.3922 14.2218L19.3922 6.50482C19.3922 6.08707 19.7309 5.74841 20.1487 5.74841L24.0366 5.74841Z" fill="white"/>
<path d="M20.5264 6.88318L20.5264 13.8441L23.6582 13.8441L23.6582 6.88318L20.5264 6.88318ZM20.1484 14.9779L20.0713 14.974C19.7153 14.9378 19.4327 14.6551 19.3965 14.2992L19.3926 14.222L19.3926 6.50525L19.3965 6.42712C19.4328 6.07132 19.7154 5.78847 20.0713 5.75232L20.1484 5.74841L24.0361 5.74841C24.4277 5.74841 24.7502 6.04587 24.7891 6.42712L24.793 6.50525L24.793 14.222L24.7891 14.2992C24.7503 14.6806 24.4278 14.9779 24.0361 14.9779L20.1484 14.9779Z" fill="white"/>
<path d="M4.86725 5.74817C5.285 5.74817 5.62366 6.08682 5.62366 6.50457L5.62366 14.0686C5.62366 14.4864 5.285 14.825 4.86725 14.825L0.972591 14.825C0.554841 14.825 0.216188 14.4864 0.216188 14.0686L0.216188 6.50457C0.216188 6.08682 0.554841 5.74817 0.972591 5.74817L4.86725 5.74817Z" fill="white"/>
<path d="M1.3512 6.88293L1.3512 13.6906L4.48889 13.6906L4.48889 6.88293L1.3512 6.88293ZM0.97229 14.8253L0.895141 14.8214C0.513759 14.7826 0.21643 14.4601 0.21643 14.0685L0.216431 6.505L0.220337 6.42688C0.256647 6.0711 0.539326 5.78826 0.895142 5.75207L0.97229 5.74817L4.86682 5.74817C5.25834 5.74817 5.58085 6.04563 5.61975 6.42688L5.62366 6.505L5.62366 14.0685C5.62366 14.4862 5.28457 14.8253 4.86682 14.8253L0.97229 14.8253Z" fill="white"/>
<path d="M12.5082 14.4469C14.9101 14.4467 16.8568 12.4992 16.8568 10.0973C16.8566 7.69548 14.91 5.74883 12.5082 5.74866C10.1062 5.74866 8.15874 7.69537 8.15857 10.0973L3.24158 10.0973L3.25427 9.62073C3.50248 4.72492 7.55068 0.831664 12.5082 0.831665C17.6254 0.831836 21.7736 4.9801 21.7738 10.0973C21.7738 15.2146 17.6255 19.3637 12.5082 19.3639L12.0306 19.3512C7.13499 19.1028 3.24158 15.0547 3.24158 10.0973L8.15857 10.0973C8.15857 12.4994 10.1061 14.4469 12.5082 14.4469Z" fill="#22AC00"/>
</svg>
