<svg width="19" height="26" viewBox="0 0 19 26" fill="none" xmlns="http://www.w3.org/2000/svg">
<path d="M4.9386 1.56585C4.9386 1.1481 5.27725 0.809448 5.695 0.809448L13.412 0.809448C13.8298 0.809448 14.1684 1.1481 14.1684 1.56585V5.45377C14.1684 5.87152 13.8298 6.21017 13.412 6.21017L5.695 6.21017C5.27725 6.21017 4.9386 5.87152 4.9386 5.45377L4.9386 1.56585Z" fill="white"/>
<path d="M6.07336 5.07605L13.0343 5.07605V1.94421L6.07336 1.94421L6.07336 5.07605ZM14.1681 5.45398L14.1642 5.53113C14.128 5.88708 13.8453 6.16976 13.4894 6.20593L13.4122 6.20984L5.69543 6.20984L5.61731 6.20593C5.26151 6.16962 4.97866 5.88698 4.9425 5.53113L4.9386 5.45398L4.9386 1.56628C4.9386 1.17476 5.23606 0.852252 5.61731 0.813354L5.69543 0.809448L13.4122 0.809448L13.4894 0.813354C13.8708 0.852098 14.1681 1.17465 14.1681 1.56628V5.45398Z" fill="white"/>
<path d="M4.9386 20.735C4.9386 20.3173 5.27725 19.9786 5.695 19.9786H13.259C13.6768 19.9786 14.0154 20.3173 14.0154 20.735V24.6297C14.0154 25.0475 13.6768 25.3861 13.259 25.3861H5.695C5.27725 25.3861 4.9386 25.0475 4.9386 24.6297L4.9386 20.735Z" fill="white"/>
<path d="M6.07336 24.2511H12.881V21.1134H6.07336L6.07336 24.2511ZM14.0157 24.63L14.0118 24.7072C13.9731 25.0885 13.6505 25.3859 13.2589 25.3859H5.69543L5.61731 25.382C5.26153 25.3456 4.97869 25.063 4.9425 24.7072L4.9386 24.63L4.9386 20.7355C4.9386 20.344 5.23606 20.0214 5.61731 19.9825L5.69543 19.9786H13.2589C13.6767 19.9786 14.0157 20.3177 14.0157 20.7355V24.63Z" fill="white"/>
<path d="M13.6371 13.0942C13.6369 10.6923 11.6894 8.74561 9.28748 8.74561C6.88566 8.74578 4.93901 10.6924 4.93884 13.0942C4.93884 15.4962 6.88556 17.4437 9.28748 17.4438L9.28748 22.3608L8.81091 22.3481C3.9151 22.0999 0.0218506 18.0517 0.0218506 13.0942C0.0220222 7.97705 4.17029 3.82878 9.28748 3.82861C14.4048 3.82861 18.5539 7.97695 18.5541 13.0942L18.5414 13.5718C18.293 18.4674 14.2449 22.3608 9.28748 22.3608L9.28748 17.4438C11.6895 17.4438 13.6371 15.4963 13.6371 13.0942Z" fill="#22AC00"/>
</svg>
