<svg width="19" height="26" viewBox="0 0 19 26" fill="none" xmlns="http://www.w3.org/2000/svg">
<path d="M5.01929 1.56585C5.01929 1.1481 5.35794 0.809448 5.77569 0.809448L13.4927 0.809448C13.9105 0.809448 14.2491 1.1481 14.2491 1.56585V5.45377C14.2491 5.87152 13.9105 6.21017 13.4927 6.21017L5.77569 6.21017C5.35794 6.21017 5.01929 5.87152 5.01929 5.45377L5.01929 1.56585Z" fill="white"/>
<path d="M6.15405 5.07605L13.115 5.07605V1.94421L6.15405 1.94421L6.15405 5.07605ZM14.2488 5.45398L14.2449 5.53113C14.2087 5.88708 13.926 6.16976 13.5701 6.20593L13.4929 6.20984L5.77612 6.20984L5.698 6.20593C5.34219 6.16962 5.05934 5.88698 5.02319 5.53113L5.01929 5.45398L5.01929 1.56628C5.01929 1.17476 5.31675 0.852252 5.698 0.813354L5.77612 0.809448L13.4929 0.809448L13.5701 0.813354C13.9515 0.852098 14.2488 1.17465 14.2488 1.56628V5.45398Z" fill="white"/>
<path d="M5.01929 20.7348C5.01929 20.317 5.35794 19.9784 5.77569 19.9784H13.3397C13.7575 19.9784 14.0961 20.317 14.0961 20.7348V24.6295C14.0961 25.0472 13.7575 25.3859 13.3397 25.3859H5.77569C5.35794 25.3859 5.01929 25.0472 5.01929 24.6295L5.01929 20.7348Z" fill="white"/>
<path d="M6.15405 24.2509H12.9617V21.1132H6.15405L6.15405 24.2509ZM14.0964 24.6298L14.0925 24.7069C14.0538 25.0883 13.7312 25.3856 13.3396 25.3856H5.77612L5.698 25.3817C5.34222 25.3454 5.05938 25.0627 5.02319 24.7069L5.01929 24.6298L5.01929 20.7352C5.01929 20.3437 5.31675 20.0212 5.698 19.9823L5.77612 19.9784H13.3396C13.7573 19.9784 14.0964 20.3175 14.0964 20.7352V24.6298Z" fill="white"/>
<path d="M13.7179 13.0941C13.7177 10.6922 11.7702 8.74548 9.36829 8.74548C6.96648 8.74566 5.01982 10.6923 5.01965 13.0941C5.01965 15.4961 6.96637 17.4436 9.36829 17.4437L9.36829 22.3607L8.89172 22.348C3.99591 22.0998 0.102661 18.0516 0.102661 13.0941C0.102833 7.97693 4.2511 3.82866 9.36829 3.82849C14.4856 3.82849 18.6347 7.97682 18.6349 13.0941L18.6222 13.5717C18.3738 18.4673 14.3257 22.3607 9.36829 22.3607L9.36829 17.4437C11.7703 17.4437 13.7179 15.4962 13.7179 13.0941Z" fill="#AFAFAF"/>
</svg>
