<svg width="24" height="24" viewBox="0 0 24 24" fill="none" xmlns="http://www.w3.org/2000/svg">
<path d="M7.77661 16.3661H15.9768V8.16589H7.77661V16.3661ZM20.6116 19.5751L20.6047 19.7206C20.5367 20.392 20.0027 20.926 19.3313 20.994L19.1858 21.0009H4.56763C3.82931 21.0007 3.22258 20.4397 3.14966 19.7206L3.14185 19.5751V4.95691C3.14203 4.16955 3.78027 3.53131 4.56763 3.53113H19.1858L19.3313 3.53894C20.0504 3.61186 20.6114 4.21859 20.6116 4.95691V19.5751Z" fill="#22AC00"/>
<path d="M7.77661 2.10508C7.77661 1.31745 8.41511 0.678955 9.20274 0.678955H14.9072C15.6949 0.678955 16.3334 1.31745 16.3334 2.10508C16.3334 2.89271 15.6949 3.53121 14.9072 3.53121H9.20274C8.41511 3.53121 7.77661 2.89271 7.77661 2.10508Z" fill="white"/>
<path d="M14.9075 2.46118V3.53149H9.20239V2.46118H14.9075ZM15.2639 2.10474C15.2637 1.90807 15.1042 1.74842 14.9075 1.74829H9.20239C9.00576 1.74848 8.84613 1.9081 8.84595 2.10474C8.84595 2.30153 9.00564 2.461 9.20239 2.46118V3.53149L9.05688 3.52368C8.33778 3.45062 7.77661 2.84312 7.77661 2.10474C7.7768 1.31738 8.41504 0.679141 9.20239 0.678955H14.9075L15.053 0.686768C15.772 0.759776 16.3331 1.36648 16.3333 2.10474C16.3333 2.84316 15.7721 3.45067 15.053 3.52368L14.9075 3.53149V2.46118C15.1043 2.46106 15.2639 2.30157 15.2639 2.10474Z" fill="white"/>
<path d="M7.77661 22.4275C7.77661 21.6398 8.41511 21.0013 9.20274 21.0013H14.9072C15.6949 21.0013 16.3334 21.6398 16.3334 22.4275C16.3334 23.2151 15.6949 23.8536 14.9072 23.8536H9.20274C8.41511 23.8536 7.77661 23.2151 7.77661 22.4275Z" fill="white"/>
<path d="M14.9075 22.7836V23.8539H9.20239V22.7836H14.9075ZM15.2639 22.4271C15.2637 22.2305 15.1042 22.0708 14.9075 22.0707H9.20239C9.00576 22.0709 8.84613 22.2305 8.84595 22.4271C8.84595 22.6239 9.00564 22.7834 9.20239 22.7836V23.8539L9.05688 23.8461C8.33778 23.773 7.77661 23.1655 7.77661 22.4271C7.7768 21.6398 8.41504 21.0015 9.20239 21.0013H14.9075L15.053 21.0092C15.772 21.0822 16.3331 21.6889 16.3333 22.4271C16.3333 23.1655 15.7721 23.7731 15.053 23.8461L14.9075 23.8539V22.7836C15.1043 22.7834 15.2639 22.624 15.2639 22.4271Z" fill="white"/>
<path d="M22.0382 16.7229C21.2506 16.7229 20.6121 16.0844 20.6121 15.2968L20.6121 9.59227C20.6121 8.80465 21.2506 8.16615 22.0382 8.16615C22.8258 8.16615 23.4643 8.80465 23.4643 9.59228L23.4643 15.2968C23.4643 16.0844 22.8258 16.7229 22.0382 16.7229Z" fill="white"/>
<path d="M22.3943 9.59204L23.4646 9.59204L23.4646 15.2971L22.3943 15.2971L22.3943 9.59204ZM22.0378 9.2356C21.8412 9.23578 21.6815 9.39536 21.6814 9.59204L21.6814 15.2971C21.6816 15.4938 21.8412 15.6534 22.0378 15.6536C22.2346 15.6536 22.3941 15.4939 22.3943 15.2971L23.4646 15.2971L23.4568 15.4426C23.3837 16.1617 22.7762 16.7229 22.0378 16.7229C21.2505 16.7227 20.6122 16.0845 20.6121 15.2971L20.6121 9.59204L20.6199 9.44653C20.6929 8.7275 21.2996 8.16643 22.0378 8.16626C22.7763 8.16626 23.3838 8.72737 23.4568 9.44653L23.4646 9.59204L22.3943 9.59204C22.3942 9.39524 22.2347 9.2356 22.0378 9.2356Z" fill="white"/>
<path d="M1.7158 16.7229C0.928171 16.7229 0.289673 16.0844 0.289673 15.2968L0.289673 9.59227C0.289673 8.80465 0.928171 8.16615 1.7158 8.16615C2.50342 8.16615 3.14192 8.80465 3.14192 9.59228L3.14192 15.2968C3.14192 16.0844 2.50343 16.7229 1.7158 16.7229Z" fill="white"/>
<path d="M2.0719 9.59204L3.14221 9.59204L3.14221 15.2971L2.0719 15.2971L2.0719 9.59204ZM1.71545 9.2356C1.51878 9.23578 1.35913 9.39536 1.35901 9.59204L1.35901 15.2971C1.35919 15.4938 1.51882 15.6534 1.71545 15.6536C1.91225 15.6536 2.07171 15.4939 2.0719 15.2971L3.14221 15.2971L3.1344 15.4426C3.06134 16.1617 2.45384 16.7229 1.71545 16.7229C0.9281 16.7227 0.289858 16.0845 0.289673 15.2971L0.289673 9.59204L0.297485 9.44653C0.370494 8.7275 0.9772 8.16643 1.71545 8.16626C2.45387 8.16626 3.06139 8.72737 3.1344 9.44653L3.14221 9.59204L2.0719 9.59204C2.07177 9.39524 1.91228 9.2356 1.71545 9.2356Z" fill="white"/>
</svg>
