<svg width="26" height="26" viewBox="0 0 26 26" fill="none" xmlns="http://www.w3.org/2000/svg">
<path d="M8.3988 1.31902C8.3988 0.897901 8.74019 0.556519 9.16131 0.556519L16.9406 0.556519C17.3617 0.556519 17.7031 0.897903 17.7031 1.31902V5.23829C17.7031 5.6594 17.3617 6.00079 16.9406 6.00079L9.16131 6.00079C8.74019 6.00079 8.3988 5.6594 8.3988 5.23828V1.31902Z" fill="white"/>
<path d="M9.54236 4.8573L16.559 4.8573V1.70007L9.54236 1.70007V4.8573ZM17.7035 5.23816L17.6996 5.31628C17.6632 5.67502 17.3776 5.96034 17.0189 5.99695L16.9408 6.00085L9.1615 6.00085L9.08337 5.99695C8.69886 5.95792 8.3988 5.63297 8.3988 5.23816V1.31921C8.3988 0.924404 8.69886 0.599458 9.08337 0.560425L9.1615 0.556519L16.9408 0.556519L17.0189 0.560425C17.4032 0.599657 17.7035 0.924552 17.7035 1.31921V5.23816Z" fill="white"/>
<path d="M8.39807 20.6425C8.39807 20.2214 8.73946 19.88 9.16057 19.88H16.7856C17.2067 19.88 17.5481 20.2214 17.5481 20.6425V24.5686C17.5481 24.9897 17.2067 25.3311 16.7856 25.3311H9.16057C8.73946 25.3311 8.39807 24.9897 8.39807 24.5686V20.6425Z" fill="white"/>
<path d="M9.54163 24.1876H16.4039V21.0236H9.54163V24.1876ZM17.5485 24.5685L17.5446 24.6466C17.5081 25.0053 17.2226 25.2907 16.8639 25.3273L16.7858 25.3312H9.16077L9.08264 25.3273C8.69813 25.2882 8.39807 24.9633 8.39807 24.5685V20.6427C8.39807 20.2479 8.69813 19.9229 9.08264 19.8839L9.16077 19.88H16.7858L16.8639 19.8839C17.2482 19.9231 17.5485 20.248 17.5485 20.6427V24.5685Z" fill="white"/>
<path d="M20.4686 17.7063C20.0474 17.7063 19.7061 17.3649 19.7061 16.9438L19.7061 9.31877C19.7061 8.89765 20.0474 8.55627 20.4686 8.55627L24.3887 8.55627C24.8099 8.55627 25.1512 8.89765 25.1512 9.31877L25.1513 16.9438C25.1513 17.3649 24.8099 17.7063 24.3887 17.7063L20.4686 17.7063Z" fill="white"/>
<path d="M24.0078 16.5627L24.0078 9.70044L20.8496 9.70044L20.8496 16.5627L24.0078 16.5627ZM24.3887 8.55591L24.4668 8.55981C24.8255 8.59627 25.1109 8.88178 25.1475 9.24048L25.1514 9.3186L25.1514 16.9436L25.1475 17.0217C25.1084 17.4062 24.7835 17.7063 24.3887 17.7063L20.4688 17.7063C20.0739 17.7063 19.749 17.4062 19.71 17.0217L19.7061 16.9436L19.7061 9.3186L19.71 9.24048C19.7492 8.85614 20.0741 8.55591 20.4687 8.55591L24.3887 8.55591Z" fill="white"/>
<path d="M1.15435 17.7064C0.73323 17.7064 0.391846 17.365 0.391846 16.9439L0.391845 9.31889C0.391845 8.89778 0.733229 8.55639 1.15435 8.55639L5.07066 8.55639C5.49178 8.55639 5.83316 8.89777 5.83316 9.31889L5.83316 16.9439C5.83316 17.365 5.49178 17.7064 5.07066 17.7064L1.15435 17.7064Z" fill="white"/>
<path d="M4.6897 16.5629L4.6897 9.70056L1.5354 9.70056L1.5354 16.5629L4.6897 16.5629ZM5.07056 8.55603L5.14868 8.55994C5.50743 8.59638 5.79277 8.88189 5.82934 9.2406L5.83325 9.31873L5.83325 16.9437L5.82935 17.0219C5.79032 17.4064 5.46537 17.7064 5.07056 17.7064L1.15454 17.7064C0.759732 17.7064 0.434785 17.4064 0.395752 17.0219L0.391846 16.9437L0.391845 9.31873L0.395751 9.2406C0.434949 8.85626 0.759853 8.55603 1.15454 8.55603L5.07056 8.55603Z" fill="white"/>
<path d="M17.167 12.9408C17.167 10.5194 15.2046 8.55612 12.7832 8.55603C10.3618 8.55603 8.39844 10.5194 8.39844 12.9408C8.39853 15.3622 10.3618 17.3246 12.7832 17.3246L12.7832 22.2816L12.3027 22.2689C7.52643 22.027 3.69618 18.1975 3.4541 13.4213L3.44238 12.9408C3.44238 7.78209 7.6245 3.59998 12.7832 3.59998L13.2637 3.61169C18.199 3.86184 22.124 7.94328 22.124 12.9408L22.1113 13.4213C21.8612 18.3565 17.7806 22.2815 12.7832 22.2816L12.7832 17.3246C15.2045 17.3245 17.1669 15.3621 17.167 12.9408Z" fill="#22AC00"/>
</svg>
