<svg width="25" height="26" viewBox="0 0 25 26" fill="none" xmlns="http://www.w3.org/2000/svg">
<path d="M8.13599 1.31902C8.13599 0.897901 8.47737 0.556519 8.89849 0.556519L16.6777 0.556519C17.0989 0.556519 17.4402 0.897903 17.4402 1.31902V5.23829C17.4402 5.6594 17.0989 6.00079 16.6777 6.00079L8.89849 6.00079C8.47737 6.00079 8.13599 5.6594 8.13599 5.23828V1.31902Z" fill="white"/>
<path d="M9.27954 4.8573L16.2961 4.8573V1.70007L9.27954 1.70007V4.8573ZM17.4407 5.23816L17.4368 5.31628C17.4003 5.67502 17.1148 5.96034 16.7561 5.99695L16.678 6.00085L8.89868 6.00085L8.82056 5.99695C8.43604 5.95792 8.13599 5.63297 8.13599 5.23816V1.31921C8.13599 0.924404 8.43604 0.599458 8.82056 0.560425L8.89868 0.556519L16.678 0.556519L16.7561 0.560425C17.1404 0.599657 17.4407 0.924552 17.4407 1.31921V5.23816Z" fill="white"/>
<path d="M8.13525 20.6425C8.13525 20.2214 8.47664 19.88 8.89776 19.88H16.5228C16.9439 19.88 17.2853 20.2214 17.2853 20.6425V24.5686C17.2853 24.9897 16.9439 25.3311 16.5228 25.3311H8.89776C8.47664 25.3311 8.13525 24.9897 8.13525 24.5686V20.6425Z" fill="white"/>
<path d="M9.27881 24.1876H16.1411V21.0236H9.27881V24.1876ZM17.2856 24.5685L17.2817 24.6466C17.2453 25.0053 16.9598 25.2907 16.6011 25.3273L16.5229 25.3312H8.89795L8.81982 25.3273C8.43531 25.2882 8.13525 24.9633 8.13525 24.5685V20.6427C8.13525 20.2479 8.43531 19.9229 8.81982 19.8839L8.89795 19.88H16.5229L16.6011 19.8839C16.9854 19.9231 17.2856 20.248 17.2856 20.6427V24.5685Z" fill="white"/>
<path d="M20.2277 17.7063C19.8066 17.7063 19.4652 17.3649 19.4652 16.9438L19.4652 9.31877C19.4652 8.89765 19.8066 8.55627 20.2277 8.55627L24.1479 8.55627C24.569 8.55627 24.9104 8.89765 24.9104 9.31877L24.9104 16.9438C24.9104 17.3649 24.569 17.7063 24.1479 17.7063L20.2277 17.7063Z" fill="white"/>
<path d="M23.767 16.5627L23.767 9.70044L20.6088 9.70044L20.6088 16.5627L23.767 16.5627ZM24.1478 8.55591L24.226 8.55981C24.5847 8.59627 24.87 8.88178 24.9066 9.24048L24.9105 9.3186L24.9105 16.9436L24.9066 17.0217C24.8676 17.4062 24.5426 17.7063 24.1478 17.7063L20.2279 17.7063C19.8331 17.7063 19.5081 17.4062 19.4691 17.0217L19.4652 16.9436L19.4652 9.3186L19.4691 9.24048C19.5083 8.85614 19.8332 8.55591 20.2279 8.55591L24.1478 8.55591Z" fill="white"/>
<path d="M0.891409 17.7064C0.47029 17.7064 0.128906 17.365 0.128906 16.9439L0.128906 9.31889C0.128906 8.89778 0.470289 8.55639 0.891408 8.55639L4.80772 8.55639C5.22884 8.55639 5.57022 8.89777 5.57022 9.31889L5.57022 16.9439C5.57022 17.365 5.22884 17.7064 4.80772 17.7064L0.891409 17.7064Z" fill="white"/>
<path d="M4.42676 16.5629L4.42676 9.70056L1.27246 9.70056L1.27246 16.5629L4.42676 16.5629ZM4.80762 8.55603L4.88574 8.55994C5.24449 8.59638 5.52983 8.88189 5.56641 9.2406L5.57031 9.31873L5.57031 16.9437L5.56641 17.0219C5.52738 17.4064 5.20243 17.7064 4.80762 17.7064L0.891602 17.7064C0.496792 17.7064 0.171845 17.4064 0.132812 17.0219L0.128906 16.9437L0.128906 9.31873L0.132812 9.2406C0.172009 8.85626 0.496914 8.55603 0.891601 8.55603L4.80762 8.55603Z" fill="white"/>
<path d="M16.9042 12.9408C16.9042 10.5194 14.9417 8.55612 12.5204 8.55603C10.099 8.55603 8.13562 10.5194 8.13562 12.9408C8.13571 15.3622 10.099 17.3246 12.5204 17.3246L12.5204 22.2816L12.0399 22.2689C7.26362 22.027 3.43336 18.1975 3.19128 13.4213L3.17957 12.9408C3.17957 7.78209 7.36168 3.59998 12.5204 3.59998L13.0009 3.61169C17.9362 3.86184 21.8612 7.94328 21.8612 12.9408L21.8485 13.4213C21.5984 18.3565 17.5178 22.2815 12.5204 22.2816L12.5204 17.3246C14.9417 17.3245 16.9041 15.3621 16.9042 12.9408Z" fill="#AFAFAF"/>
</svg>
