<svg width="25" height="24" viewBox="0 0 25 24" fill="none" xmlns="http://www.w3.org/2000/svg">
<path d="M8.40198 16.3661H16.6022V8.16589H8.40198V16.3661ZM21.2369 19.5751L21.2301 19.7206C21.1621 20.392 20.6281 20.926 19.9567 20.994L19.8112 21.0009H5.19299C4.45467 21.0007 3.84794 20.4397 3.77502 19.7206L3.76721 19.5751V4.95691C3.7674 4.16955 4.40564 3.53131 5.19299 3.53113H19.8112L19.9567 3.53894C20.6758 3.61186 21.2368 4.21859 21.2369 4.95691V19.5751Z" fill="#AFAFAF"/>
<path d="M8.40198 2.10508C8.40198 1.31745 9.04048 0.678955 9.8281 0.678955H15.5326C16.3202 0.678955 16.9587 1.31745 16.9587 2.10508C16.9587 2.89271 16.3202 3.53121 15.5326 3.53121H9.8281C9.04048 3.53121 8.40198 2.89271 8.40198 2.10508Z" fill="white"/>
<path d="M15.5328 2.46118V3.53149H9.82776V2.46118H15.5328ZM15.8893 2.10474C15.8891 1.90807 15.7295 1.74842 15.5328 1.74829H9.82776C9.63112 1.74848 9.4715 1.9081 9.47131 2.10474C9.47131 2.30153 9.63101 2.461 9.82776 2.46118V3.53149L9.68225 3.52368C8.96314 3.45062 8.40198 2.84312 8.40198 2.10474C8.40216 1.31738 9.0404 0.679141 9.82776 0.678955H15.5328L15.6783 0.686768C16.3974 0.759776 16.9584 1.36648 16.9586 2.10474C16.9586 2.84316 16.3975 3.45067 15.6783 3.52368L15.5328 3.53149V2.46118C15.7296 2.46106 15.8893 2.30157 15.8893 2.10474Z" fill="white"/>
<path d="M8.40198 22.4275C8.40198 21.6398 9.04048 21.0013 9.8281 21.0013H15.5326C16.3202 21.0013 16.9587 21.6398 16.9587 22.4275C16.9587 23.2151 16.3202 23.8536 15.5326 23.8536H9.8281C9.04048 23.8536 8.40198 23.2151 8.40198 22.4275Z" fill="white"/>
<path d="M15.5328 22.7836V23.8539H9.82776V22.7836H15.5328ZM15.8893 22.4271C15.8891 22.2305 15.7295 22.0708 15.5328 22.0707H9.82776C9.63112 22.0709 9.4715 22.2305 9.47131 22.4271C9.47131 22.6239 9.63101 22.7834 9.82776 22.7836V23.8539L9.68225 23.8461C8.96314 23.773 8.40198 23.1655 8.40198 22.4271C8.40216 21.6398 9.0404 21.0015 9.82776 21.0013H15.5328L15.6783 21.0092C16.3974 21.0822 16.9584 21.6889 16.9586 22.4271C16.9586 23.1655 16.3975 23.7731 15.6783 23.8461L15.5328 23.8539V22.7836C15.7296 22.7834 15.8893 22.624 15.8893 22.4271Z" fill="white"/>
<path d="M22.6636 16.7229C21.8759 16.7229 21.2374 16.0844 21.2374 15.2968L21.2374 9.59227C21.2374 8.80465 21.8759 8.16615 22.6636 8.16615C23.4512 8.16615 24.0897 8.80465 24.0897 9.59228L24.0897 15.2968C24.0897 16.0844 23.4512 16.7229 22.6636 16.7229Z" fill="white"/>
<path d="M23.0197 9.59204L24.09 9.59204L24.09 15.2971L23.0197 15.2971L23.0197 9.59204ZM22.6632 9.2356C22.4665 9.23578 22.3069 9.39536 22.3068 9.59204L22.3068 15.2971C22.3069 15.4938 22.4666 15.6534 22.6632 15.6536C22.86 15.6536 23.0195 15.4939 23.0197 15.2971L24.09 15.2971L24.0822 15.4426C24.0091 16.1617 23.4016 16.7229 22.6632 16.7229C21.8759 16.7227 21.2376 16.0845 21.2374 15.2971L21.2374 9.59204L21.2452 9.44653C21.3182 8.7275 21.925 8.16643 22.6632 8.16626C23.4016 8.16626 24.0091 8.72737 24.0822 9.44653L24.09 9.59204L23.0197 9.59204C23.0195 9.39524 22.86 9.2356 22.6632 9.2356Z" fill="white"/>
<path d="M2.34116 16.7229C1.55354 16.7229 0.915039 16.0844 0.915039 15.2968L0.915039 9.59227C0.915039 8.80465 1.55354 8.16615 2.34116 8.16615C3.12879 8.16615 3.76729 8.80465 3.76729 9.59228L3.76729 15.2968C3.76729 16.0844 3.12879 16.7229 2.34116 16.7229Z" fill="white"/>
<path d="M2.69727 9.59204L3.76758 9.59204L3.76758 15.2971L2.69727 15.2971L2.69727 9.59204ZM2.34082 9.2356C2.14415 9.23578 1.9845 9.39536 1.98437 9.59204L1.98437 15.2971C1.98456 15.4938 2.14419 15.6534 2.34082 15.6536C2.53761 15.6536 2.69708 15.4939 2.69727 15.2971L3.76758 15.2971L3.75977 15.4426C3.68671 16.1617 3.0792 16.7229 2.34082 16.7229C1.55347 16.7227 0.915225 16.0845 0.915039 15.2971L0.915039 9.59204L0.922851 9.44653C0.99586 8.7275 1.60257 8.16643 2.34082 8.16626C3.07924 8.16626 3.68676 8.72737 3.75977 9.44653L3.76758 9.59204L2.69727 9.59204C2.69714 9.39524 2.53765 9.2356 2.34082 9.2356Z" fill="white"/>
</svg>
