<svg width="34" height="34" viewBox="0 0 34 34" fill="none" xmlns="http://www.w3.org/2000/svg">
<path d="M16.9555 23.0646L22.7539 17.2662L16.9555 11.4678L11.1571 17.2662L16.9555 23.0646ZM28.3003 16.2581L28.3983 16.3658C28.825 16.8887 28.825 17.6438 28.3983 18.1667L28.3003 18.2744L17.9637 28.611C17.4415 29.133 16.6158 29.1653 16.0557 28.7084L15.9473 28.611L5.61072 18.2744C5.05411 17.7175 5.05411 16.8149 5.61072 16.2581L15.9473 5.92145L16.0557 5.82409C16.6158 5.36715 17.4415 5.3995 17.9637 5.92145L28.3003 16.2581Z" fill="#AFAFAF"/>
<path d="M6.87146 12.9803C6.31452 12.4234 6.31452 11.5204 6.87146 10.9635L10.9052 6.92981C11.4621 6.37287 12.3651 6.37287 12.922 6.92981C13.4789 7.48675 13.4789 8.38972 12.922 8.94666L8.88831 12.9803C8.33137 13.5373 7.4284 13.5373 6.87146 12.9803Z" fill="white"/>
<path d="M12.1655 8.18987L12.9224 8.94669L8.88827 12.9808L8.13144 12.224L12.1655 8.18987ZM12.1655 7.68578C12.0263 7.54684 11.8006 7.54679 11.6615 7.68578L7.62735 11.7199C7.48844 11.8591 7.48844 12.0848 7.62735 12.224C7.7665 12.3631 7.99219 12.363 8.13144 12.224L8.88827 12.9808L8.77985 13.0782C8.21971 13.535 7.39333 13.5022 6.87122 12.9801C6.3146 12.4232 6.3146 11.5206 6.87122 10.9637L10.9053 6.92964L11.0137 6.83228C11.5738 6.37547 12.3995 6.40774 12.9217 6.92964C13.4438 7.45179 13.4766 8.27814 13.0197 8.83828L12.9224 8.94669L12.1655 8.18987C12.3046 8.05062 12.3047 7.82496 12.1655 7.68578Z" fill="white"/>
<path d="M21.2411 27.3506C20.6842 26.7936 20.6842 25.8907 21.2411 25.3337L25.2748 21.3C25.8317 20.7431 26.7347 20.7431 27.2916 21.3C27.8486 21.857 27.8486 22.76 27.2916 23.3169L23.2579 27.3506C22.701 27.9075 21.798 27.9075 21.2411 27.3506Z" fill="white"/>
<path d="M26.5352 22.5601L27.292 23.3169L23.2579 27.351L22.5011 26.5942L26.5352 22.5601ZM26.5352 22.056C26.396 21.9171 26.1702 21.917 26.0311 22.056L21.997 26.0901C21.8581 26.2293 21.8581 26.455 21.997 26.5942C22.1361 26.7334 22.3618 26.7332 22.5011 26.5942L23.2579 27.351L23.1495 27.4484C22.5893 27.9052 21.763 27.8725 21.2408 27.3503C20.6842 26.7935 20.6842 25.8909 21.2408 25.334L25.2749 21.2999L25.3834 21.2025C25.9434 20.7457 26.7692 20.778 27.2913 21.2999C27.8134 21.822 27.8463 22.6484 27.3894 23.2085L27.292 23.3169L26.5352 22.5601C26.6742 22.4209 26.6743 22.1952 26.5352 22.056Z" fill="white"/>
<path d="M27.2917 13.2325C26.7348 13.7895 25.8318 13.7895 25.2749 13.2325L21.2412 9.19885C20.6843 8.64192 20.6843 7.73894 21.2412 7.18201C21.7981 6.62507 22.7011 6.62507 23.2581 7.18201L27.2917 11.2157C27.8487 11.7726 27.8487 12.6756 27.2917 13.2325Z" fill="white"/>
<path d="M22.5013 7.93846L23.2581 7.18164L27.2922 11.2157L26.5354 11.9726L22.5013 7.93846ZM21.9972 7.93846C21.8582 8.07766 21.8582 8.30339 21.9972 8.44255L26.0313 12.4767C26.1705 12.6156 26.3962 12.6156 26.5354 12.4767C26.6745 12.3375 26.6744 12.1118 26.5354 11.9726L27.2922 11.2157L27.3896 11.3242C27.8464 11.8843 27.8136 12.7107 27.2915 13.2328C26.7346 13.7894 25.832 13.7894 25.2751 13.2328L21.241 9.19869L21.1437 9.09027C20.6869 8.53022 20.7191 7.70448 21.241 7.18233C21.7632 6.66019 22.5895 6.62738 23.1497 7.08427L23.2581 7.18164L22.5013 7.93846C22.362 7.7994 22.1364 7.79928 21.9972 7.93846Z" fill="white"/>
<path d="M12.9221 27.6027C12.3652 28.1596 11.4622 28.1596 10.9053 27.6027L6.87158 23.569C6.31465 23.012 6.31465 22.1091 6.87158 21.5521C7.42852 20.9952 8.33149 20.9952 8.88843 21.5521L12.9221 25.5858C13.4791 26.1428 13.4791 27.0457 12.9221 27.6027Z" fill="white"/>
<path d="M8.13164 22.3086L8.88847 21.5518L12.9226 25.5859L12.1657 26.3427L8.13164 22.3086ZM7.62755 22.3086C7.48862 22.4478 7.48856 22.6735 7.62755 22.8127L11.6617 26.8468C11.8008 26.9857 12.0266 26.9857 12.1657 26.8468C12.3049 26.7076 12.3047 26.4819 12.1657 26.3427L12.9226 25.5859L13.0199 25.6943C13.4768 26.2544 13.444 27.0808 12.9219 27.6029C12.365 28.1595 11.4624 28.1595 10.9055 27.6029L6.87142 23.5688L6.77405 23.4604C6.31724 22.9003 6.34952 22.0746 6.87142 21.5524C7.39356 21.0303 8.21991 20.9975 8.78005 21.4544L8.88847 21.5518L8.13164 22.3086C7.99239 22.1695 7.76673 22.1694 7.62755 22.3086Z" fill="white"/>
</svg>
