<svg width="34" height="34" viewBox="0 0 34 34" fill="none" xmlns="http://www.w3.org/2000/svg">
<path d="M17.3306 23.0645L23.129 17.2661L17.3306 11.4677L11.5322 17.2661L17.3306 23.0645ZM28.6754 16.2579L28.7735 16.3657C29.2001 16.8885 29.2001 17.6437 28.7735 18.1666L28.6754 18.2743L18.3388 28.6109C17.8166 29.1328 16.9909 29.1652 16.4309 28.7083L16.3224 28.6109L5.98584 18.2743C5.42923 17.7174 5.42923 16.8148 5.98584 16.2579L16.3224 5.92133L16.4309 5.82397C16.9909 5.36703 17.8166 5.39938 18.3388 5.92133L28.6754 16.2579Z" fill="#22AC00"/>
<path d="M7.24658 12.9803C6.68965 12.4234 6.68965 11.5204 7.24658 10.9635L11.2803 6.92981C11.8372 6.37287 12.7402 6.37287 13.2971 6.92981C13.8541 7.48675 13.8541 8.38972 13.2971 8.94666L9.26343 12.9803C8.70649 13.5373 7.80352 13.5373 7.24658 12.9803Z" fill="white"/>
<path d="M12.5407 8.18987L13.2975 8.94669L9.26339 12.9808L8.50656 12.224L12.5407 8.18987ZM12.5407 7.68578C12.4015 7.54684 12.1757 7.54679 12.0366 7.68578L8.00247 11.7199C7.86356 11.8591 7.86356 12.0848 8.00247 12.224C8.14163 12.3631 8.36731 12.363 8.50656 12.224L9.26339 12.9808L9.15497 13.0782C8.59483 13.535 7.76845 13.5022 7.24634 12.9801C6.68973 12.4232 6.68973 11.5206 7.24634 10.9637L11.2804 6.92964L11.3889 6.83228C11.9489 6.37547 12.7746 6.40774 13.2968 6.92964C13.8189 7.45179 13.8518 8.27814 13.3949 8.83828L13.2975 8.94669L12.5407 8.18987C12.6797 8.05062 12.6798 7.82496 12.5407 7.68578Z" fill="white"/>
<path d="M21.6162 27.3505C21.0593 26.7935 21.0593 25.8906 21.6162 25.3336L25.6499 21.2999C26.2068 20.743 27.1098 20.743 27.6667 21.2999C28.2237 21.8569 28.2237 22.7598 27.6667 23.3168L23.6331 27.3505C23.0761 27.9074 22.1731 27.9074 21.6162 27.3505Z" fill="white"/>
<path d="M26.9103 22.56L27.6671 23.3168L23.633 27.3509L22.8762 26.5941L26.9103 22.56ZM26.9103 22.0559C26.7711 21.917 26.5454 21.9169 26.4062 22.0559L22.3721 26.09C22.2332 26.2292 22.2332 26.4549 22.3721 26.5941C22.5113 26.7332 22.7369 26.7331 22.8762 26.5941L23.633 27.3509L23.5246 27.4483C22.9645 27.9051 22.1381 27.8723 21.616 27.3502C21.0594 26.7933 21.0594 25.8907 21.616 25.3339L25.6501 21.2998L25.7585 21.2024C26.3185 20.7456 27.1443 20.7779 27.6664 21.2998C28.1886 21.8219 28.2214 22.6483 27.7645 23.2084L27.6671 23.3168L26.9103 22.56C27.0494 22.4207 27.0495 22.1951 26.9103 22.0559Z" fill="white"/>
<path d="M27.6667 13.2324C27.1098 13.7894 26.2068 13.7894 25.6499 13.2324L21.6162 9.19873C21.0593 8.6418 21.0593 7.73882 21.6162 7.18189C22.1731 6.62495 23.0761 6.62495 23.6331 7.18189L27.6667 11.2156C28.2237 11.7725 28.2237 12.6755 27.6667 13.2324Z" fill="white"/>
<path d="M22.8763 7.93834L23.6331 7.18152L27.6672 11.2156L26.9104 11.9724L22.8763 7.93834ZM22.3722 7.93834C22.2332 8.07754 22.2332 8.30327 22.3722 8.44243L26.4063 12.4765C26.5455 12.6154 26.7712 12.6154 26.9104 12.4765C27.0495 12.3374 27.0494 12.1117 26.9104 11.9724L27.6672 11.2156L27.7646 11.324C28.2214 11.8842 28.1886 12.7106 27.6665 13.2327C27.1096 13.7893 26.207 13.7893 25.6501 13.2327L21.616 9.19857L21.5187 9.09015C21.0619 8.53009 21.0941 7.70435 21.616 7.18221C22.1382 6.66007 22.9645 6.62725 23.5247 7.08415L23.6331 7.18152L22.8763 7.93834C22.737 7.79927 22.5114 7.79916 22.3722 7.93834Z" fill="white"/>
<path d="M13.2971 27.6025C12.7402 28.1595 11.8372 28.1595 11.2803 27.6025L7.24658 23.5688C6.68965 23.0119 6.68965 22.1089 7.24658 21.552C7.80352 20.9951 8.70649 20.9951 9.26343 21.552L13.2971 25.5857C13.8541 26.1426 13.8541 27.0456 13.2971 27.6025Z" fill="white"/>
<path d="M8.50664 22.3085L9.26347 21.5516L13.2976 25.5857L12.5407 26.3426L8.50664 22.3085ZM8.00255 22.3085C7.86362 22.4477 7.86356 22.6734 8.00255 22.8125L12.0367 26.8466C12.1758 26.9856 12.4016 26.9856 12.5407 26.8466C12.6799 26.7075 12.6797 26.4818 12.5407 26.3426L13.2976 25.5857L13.3949 25.6941C13.8518 26.2543 13.819 27.0807 13.2969 27.6028C12.74 28.1594 11.8374 28.1594 11.2805 27.6028L7.24642 23.5687L7.14905 23.4603C6.69224 22.9002 6.72452 22.0745 7.24642 21.5523C7.76856 21.0302 8.59491 20.9974 9.15505 21.4543L9.26347 21.5516L8.50664 22.3085C8.36739 22.1694 8.14173 22.1693 8.00255 22.3085Z" fill="white"/>
</svg>
