<svg width="36" height="36" viewBox="0 0 36 36" fill="none" xmlns="http://www.w3.org/2000/svg">
<path d="M22.8932 6.62364C23.191 6.32587 23.6738 6.32587 23.9715 6.62364L29.4723 12.1244C29.7701 12.4222 29.7701 12.905 29.4723 13.2027L26.701 15.9741C26.4032 16.2719 25.9204 16.2719 25.6226 15.9741L20.1219 10.4733C19.8241 10.1755 19.8241 9.69276 20.1219 9.39498L22.8932 6.62364Z" fill="white"/>
<path d="M21.1999 9.9342L26.1614 14.8957L28.3939 12.6632L23.4324 7.7017L21.1999 9.9342ZM26.7014 15.9743L26.6434 16.0268C26.3639 16.2547 25.9603 16.2545 25.6808 16.0268L25.6227 15.9743L20.122 10.4735L20.0695 10.4155C19.8252 10.116 19.8428 9.67407 20.122 9.39489L22.8931 6.62378C23.1722 6.34461 23.6142 6.32701 23.9137 6.5713L23.9717 6.62378L29.4725 12.1246L29.525 12.1826C29.769 12.4821 29.7515 12.9241 29.4725 13.2032L26.7014 15.9743Z" fill="white"/>
<path d="M9.22902 20.287C9.52679 19.9892 10.0096 19.9892 10.3074 20.287L15.6991 25.6787C15.9968 25.9765 15.9968 26.4592 15.6991 26.757L12.9229 29.5332C12.6251 29.8309 12.1424 29.8309 11.8446 29.5332L6.45287 24.1415C6.1551 23.8437 6.15509 23.3609 6.45287 23.0631L9.22902 20.287Z" fill="white"/>
<path d="M7.53086 23.6024L12.3832 28.4547L14.6206 26.2174L9.76819 21.365L7.53086 23.6024ZM12.9232 29.5334L12.8652 29.5858C12.5858 29.8137 12.1821 29.8136 11.9026 29.5858L11.8446 29.5334L6.45293 24.1417L6.40045 24.0837C6.15616 23.7842 6.17376 23.3422 6.45293 23.0631L9.22888 20.2871C9.50805 20.0079 9.95 19.9903 10.2495 20.2346L10.3075 20.2871L15.6992 25.6788L15.7517 25.7368C15.9957 26.0363 15.9783 26.4783 15.6992 26.7574L12.9232 29.5334Z" fill="white"/>
<path d="M19.8561 26.7616C19.5583 26.4638 19.5583 25.981 19.8561 25.6832L25.2478 20.2915C25.5455 19.9938 26.0283 19.9938 26.3261 20.2915L29.0981 23.0635C29.3959 23.3613 29.3959 23.8441 29.0981 24.1419L23.7064 29.5336C23.4086 29.8314 22.9258 29.8314 22.6281 29.5336L19.8561 26.7616Z" fill="white"/>
<path d="M23.1673 28.4556L28.0197 23.6032L25.7865 21.37L20.9341 26.2224L23.1673 28.4556ZM29.0983 23.0632L29.1508 23.1212C29.3787 23.4007 29.3786 23.8043 29.1508 24.0838L29.0983 24.1418L23.7066 29.5335L23.6486 29.586C23.3491 29.8303 22.9072 29.8127 22.628 29.5335L19.8562 26.7617C19.577 26.4825 19.5594 26.0406 19.8037 25.7411L19.8562 25.6831L25.2479 20.2914L25.3059 20.2389C25.6054 19.9949 26.0474 20.0123 26.3265 20.2914L29.0983 23.0632Z" fill="white"/>
<path d="M6.18309 13.089C5.88532 12.7912 5.88532 12.3084 6.18309 12.0106L11.5748 6.61893C11.8726 6.32115 12.3554 6.32115 12.6531 6.61893L15.4224 9.38818C15.7202 9.68595 15.7202 10.1687 15.4224 10.4665L10.0307 15.8582C9.73291 16.156 9.25012 16.156 8.95234 15.8582L6.18309 13.089Z" fill="white"/>
<path d="M9.49158 14.7802L14.344 9.92785L12.1135 7.69742L7.26115 12.5498L9.49158 14.7802ZM15.4226 9.38785L15.4751 9.44585C15.703 9.7253 15.7028 10.1289 15.4751 10.4085L15.4226 10.4665L10.0309 15.8582L9.97288 15.9106C9.67339 16.1549 9.23144 16.1373 8.95227 15.8582L6.18323 13.0891C5.90406 12.8099 5.88646 12.368 6.13075 12.0685L6.18323 12.0105L11.5749 6.61881L11.6329 6.56633C11.9324 6.32227 12.3744 6.33972 12.6535 6.61881L15.4226 9.38785Z" fill="white"/>
<path d="M20.8757 21.0415C22.5879 19.3294 22.5885 16.5534 20.8764 14.8412C19.1642 13.129 16.3876 13.129 14.6754 14.8412C12.9633 16.5534 12.9639 19.3294 14.6761 21.0415L11.1709 24.5467L10.8402 24.198C7.63387 20.6495 7.63332 15.2333 10.8395 11.6848L11.1709 11.3368C14.8187 7.68902 20.7331 7.68902 24.3808 11.3368L24.7123 11.6848C28.0252 15.3515 27.9146 21.0129 24.3808 24.5467L24.0321 24.8774C20.3655 28.1903 14.7047 28.0803 11.1709 24.5467L14.6761 21.0415C16.3883 22.7536 19.1635 22.7536 20.8757 21.0415Z" fill="#22AC00"/>
</svg>
