<svg width="37" height="36" viewBox="0 0 37 36" fill="none" xmlns="http://www.w3.org/2000/svg">
<path d="M23.6298 6.62376C23.9276 6.32599 24.4103 6.32599 24.7081 6.62377L30.2089 12.1245C30.5066 12.4223 30.5066 12.9051 30.2089 13.2029L27.4375 15.9742C27.1398 16.272 26.657 16.272 26.3592 15.9742L20.8584 10.4734C20.5607 10.1757 20.5607 9.69288 20.8584 9.3951L23.6298 6.62376Z" fill="white"/>
<path d="M21.9364 9.93432L26.8979 14.8958L29.1304 12.6633L24.1689 7.70183L21.9364 9.93432ZM27.4379 15.9744L27.3799 16.0269C27.1005 16.2548 26.6968 16.2546 26.4173 16.0269L26.3593 15.9744L20.8585 10.4736L20.806 10.4156C20.5617 10.1161 20.5794 9.67419 20.8585 9.39501L23.6296 6.6239C23.9088 6.34473 24.3508 6.32713 24.6502 6.57142L24.7083 6.6239L30.209 12.1247L30.2615 12.1827C30.5055 12.4822 30.4881 12.9242 30.209 13.2033L27.4379 15.9744Z" fill="white"/>
<path d="M9.96559 20.2871C10.2634 19.9893 10.7462 19.9893 11.0439 20.2871L16.4356 25.6788C16.7334 25.9766 16.7334 26.4594 16.4356 26.7571L13.6595 29.5333C13.3617 29.8311 12.8789 29.8311 12.5811 29.5333L7.18944 24.1416C6.89167 23.8438 6.89167 23.361 7.18944 23.0632L9.96559 20.2871Z" fill="white"/>
<path d="M8.26743 23.6025L13.1198 28.4549L15.3571 26.2175L10.5048 21.3652L8.26743 23.6025ZM13.6598 29.5335L13.6018 29.586C13.3224 29.8139 12.9187 29.8137 12.6392 29.586L12.5812 29.5335L7.18951 24.1418L7.13703 24.0838C6.89273 23.7843 6.91033 23.3424 7.18951 23.0632L9.96545 20.2872C10.2446 20.0081 10.6866 19.9905 10.9861 20.2348L11.0441 20.2872L16.4358 25.6789L16.4882 25.7369C16.7323 26.0364 16.7148 26.4784 16.4358 26.7575L13.6598 29.5335Z" fill="white"/>
<path d="M20.5926 26.7617C20.2949 26.4639 20.2949 25.9811 20.5926 25.6834L25.9843 20.2917C26.2821 19.9939 26.7649 19.9939 27.0627 20.2917L29.8347 23.0636C30.1325 23.3614 30.1325 23.8442 29.8347 24.142L24.443 29.5337C24.1452 29.8315 23.6624 29.8315 23.3646 29.5337L20.5926 26.7617Z" fill="white"/>
<path d="M23.9039 28.4557L28.7563 23.6033L26.5231 21.3702L21.6707 26.2225L23.9039 28.4557ZM29.8349 23.0633L29.8874 23.1213C30.1152 23.4008 30.1151 23.8044 29.8874 24.0839L29.8349 24.142L24.4432 29.5336L24.3852 29.5861C24.0857 29.8304 23.6438 29.8128 23.3646 29.5336L20.5928 26.7618C20.3136 26.4827 20.296 26.0407 20.5403 25.7412L20.5928 25.6832L25.9845 20.2915L26.0425 20.2391C26.342 19.995 26.784 20.0125 27.0631 20.2915L29.8349 23.0633Z" fill="white"/>
<path d="M6.91966 13.0891C6.62189 12.7913 6.62189 12.3085 6.91966 12.0108L12.3114 6.61905C12.6091 6.32127 13.0919 6.32127 13.3897 6.61905L16.159 9.3883C16.4567 9.68607 16.4567 10.1689 16.159 10.4666L10.7673 15.8583C10.4695 16.1561 9.98669 16.1561 9.68891 15.8583L6.91966 13.0891Z" fill="white"/>
<path d="M10.2281 14.7804L15.0805 9.92797L12.8501 7.69754L7.99772 12.5499L10.2281 14.7804ZM16.1591 9.38797L16.2116 9.44598C16.4395 9.72542 16.4394 10.1291 16.2116 10.4086L16.1591 10.4666L10.7675 15.8583L10.7095 15.9108C10.41 16.1551 9.96802 16.1374 9.68884 15.8583L6.9198 13.0892C6.64063 12.8101 6.62303 12.3681 6.86732 12.0686L6.9198 12.0106L12.3115 6.61893L12.3695 6.56645C12.669 6.3224 13.111 6.33984 13.3901 6.61893L16.1591 9.38797Z" fill="white"/>
<path d="M21.6123 21.0417C23.3244 19.3295 23.325 16.5536 21.6129 14.8414C19.9007 13.1291 17.1242 13.1291 15.412 14.8414C13.6999 16.5536 13.7005 19.3295 15.4126 21.0417L11.9075 24.5468L11.5767 24.1981C8.37045 20.6497 8.36989 15.2334 11.576 11.6849L11.9075 11.3369C15.5552 7.68914 21.4697 7.68914 25.1174 11.3369L25.4489 11.6849C28.7618 15.3516 28.6512 21.013 25.1174 24.5468L24.7687 24.8776C21.102 28.1905 15.4413 28.0805 11.9075 24.5468L15.4126 21.0417C17.1248 22.7537 19.9001 22.7537 21.6123 21.0417Z" fill="#AFAFAF"/>
</svg>
