<svg width="53" height="24" viewBox="0 0 53 24" fill="none" xmlns="http://www.w3.org/2000/svg">
<path d="M8.11853 16.3661H44.8412V8.16589H8.11853V16.3661ZM49.476 19.5751L49.4691 19.7206C49.3962 20.4398 48.7887 21.0009 48.0502 21.0009H4.90955C4.17122 21.0007 3.5645 20.4397 3.49158 19.7206L3.48376 19.5751V4.95691C3.48395 4.16955 4.12219 3.53131 4.90955 3.53113H48.0502C48.8377 3.53113 49.4758 4.16944 49.476 4.95691V19.5751Z" fill="#22AC00"/>
<path d="M8.11853 2.10508C8.11853 1.31745 8.75703 0.678955 9.54466 0.678955H15.2492C16.0368 0.678955 16.6753 1.31745 16.6753 2.10508C16.6753 2.89271 16.0368 3.53121 15.2492 3.53121H9.54465C8.75703 3.53121 8.11853 2.89271 8.11853 2.10508Z" fill="white"/>
<path d="M15.2494 2.46118V3.53149H9.54431V2.46118H15.2494ZM15.6058 2.10474C15.6056 1.90807 15.4461 1.74842 15.2494 1.74829H9.54431C9.34768 1.74848 9.18805 1.9081 9.18787 2.10474C9.18787 2.30153 9.34756 2.461 9.54431 2.46118V3.53149L9.3988 3.52368C8.6797 3.45062 8.11853 2.84312 8.11853 2.10474C8.11872 1.31738 8.75696 0.679141 9.54431 0.678955H15.2494L15.3949 0.686768C16.1139 0.759776 16.675 1.36648 16.6752 2.10474C16.6752 2.84316 16.1141 3.45067 15.3949 3.52368L15.2494 3.53149V2.46118C15.4462 2.46106 15.6058 2.30157 15.6058 2.10474Z" fill="white"/>
<path d="M36.285 2.10508C36.285 1.31745 36.9235 0.678955 37.7112 0.678955H43.4157C44.2033 0.678955 44.8418 1.31745 44.8418 2.10508C44.8418 2.89271 44.2033 3.53121 43.4157 3.53121H37.7112C36.9235 3.53121 36.285 2.89271 36.285 2.10508Z" fill="white"/>
<path d="M43.4159 2.46118V3.53149H37.7108V2.46118H43.4159ZM43.7723 2.10474C43.7722 1.90807 43.6126 1.74842 43.4159 1.74829H37.7108C37.5142 1.74848 37.3546 1.9081 37.3544 2.10474C37.3544 2.30153 37.5141 2.461 37.7108 2.46118V3.53149L37.5653 3.52368C36.8462 3.45062 36.285 2.84312 36.285 2.10474C36.2852 1.31738 36.9235 0.679141 37.7108 0.678955H43.4159L43.5614 0.686768C44.2804 0.759776 44.8415 1.36648 44.8417 2.10474C44.8417 2.84316 44.2806 3.45067 43.5614 3.52368L43.4159 3.53149V2.46118C43.6127 2.46106 43.7723 2.30157 43.7723 2.10474Z" fill="white"/>
<path d="M22.38 2.10508C22.38 1.31745 23.0185 0.678955 23.8061 0.678955H29.5106C30.2983 0.678955 30.9368 1.31745 30.9368 2.10508C30.9368 2.89271 30.2983 3.53121 29.5106 3.53121H23.8061C23.0185 3.53121 22.38 2.89271 22.38 2.10508Z" fill="white"/>
<path d="M29.5109 2.46118V3.53149H23.8058V2.46118H29.5109ZM29.8673 2.10474C29.8671 1.90807 29.7075 1.74842 29.5109 1.74829H23.8058C23.6092 1.74848 23.4495 1.9081 23.4493 2.10474C23.4493 2.30153 23.609 2.461 23.8058 2.46118V3.53149L23.6603 3.52368C22.9412 3.45062 22.38 2.84312 22.38 2.10474C22.3802 1.31738 23.0184 0.679141 23.8058 0.678955H29.5109L29.6564 0.686768C30.3754 0.759776 30.9365 1.36648 30.9366 2.10474C30.9366 2.84316 30.3755 3.45067 29.6564 3.52368L29.5109 3.53149V2.46118C29.7077 2.46106 29.8673 2.30157 29.8673 2.10474Z" fill="white"/>
<path d="M8.11853 22.4275C8.11853 21.6398 8.75703 21.0013 9.54466 21.0013H15.2492C16.0368 21.0013 16.6753 21.6398 16.6753 22.4275C16.6753 23.2151 16.0368 23.8536 15.2492 23.8536H9.54465C8.75703 23.8536 8.11853 23.2151 8.11853 22.4275Z" fill="white"/>
<path d="M15.2494 22.7836V23.8539H9.54431V22.7836H15.2494ZM15.6058 22.4271C15.6056 22.2305 15.4461 22.0708 15.2494 22.0707H9.54431C9.34768 22.0709 9.18805 22.2305 9.18787 22.4271C9.18787 22.6239 9.34756 22.7834 9.54431 22.7836V23.8539L9.3988 23.8461C8.6797 23.773 8.11853 23.1655 8.11853 22.4271C8.11872 21.6398 8.75696 21.0015 9.54431 21.0013H15.2494L15.3949 21.0092C16.1139 21.0822 16.675 21.6889 16.6752 22.4271C16.6752 23.1655 16.1141 23.7731 15.3949 23.8461L15.2494 23.8539V22.7836C15.4462 22.7834 15.6058 22.624 15.6058 22.4271Z" fill="white"/>
<path d="M36.285 22.4275C36.285 21.6398 36.9235 21.0013 37.7112 21.0013H43.4157C44.2033 21.0013 44.8418 21.6398 44.8418 22.4275C44.8418 23.2151 44.2033 23.8536 43.4157 23.8536H37.7112C36.9235 23.8536 36.285 23.2151 36.285 22.4275Z" fill="white"/>
<path d="M43.4159 22.7836V23.8539H37.7108V22.7836H43.4159ZM43.7723 22.4271C43.7722 22.2305 43.6126 22.0708 43.4159 22.0707H37.7108C37.5142 22.0709 37.3546 22.2305 37.3544 22.4271C37.3544 22.6239 37.5141 22.7834 37.7108 22.7836V23.8539L37.5653 23.8461C36.8462 23.773 36.285 23.1655 36.285 22.4271C36.2852 21.6398 36.9235 21.0015 37.7108 21.0013H43.4159L43.5614 21.0092C44.2804 21.0822 44.8415 21.6889 44.8417 22.4271C44.8417 23.1655 44.2806 23.7731 43.5614 23.8461L43.4159 23.8539V22.7836C43.6127 22.7834 43.7723 22.624 43.7723 22.4271Z" fill="white"/>
<path d="M22.38 22.4275C22.38 21.6398 23.0185 21.0013 23.8061 21.0013H29.5106C30.2983 21.0013 30.9368 21.6398 30.9368 22.4275C30.9368 23.2151 30.2983 23.8536 29.5106 23.8536H23.8061C23.0185 23.8536 22.38 23.2151 22.38 22.4275Z" fill="white"/>
<path d="M29.5109 22.7836V23.8539H23.8058V22.7836H29.5109ZM29.8673 22.4271C29.8671 22.2305 29.7075 22.0708 29.5109 22.0707H23.8058C23.6092 22.0709 23.4495 22.2305 23.4493 22.4271C23.4493 22.6239 23.609 22.7834 23.8058 22.7836V23.8539L23.6603 23.8461C22.9412 23.773 22.38 23.1655 22.38 22.4271C22.3802 21.6398 23.0184 21.0015 23.8058 21.0013H29.5109L29.6564 21.0092C30.3754 21.0822 30.9365 21.6889 30.9366 22.4271C30.9366 23.1655 30.3755 23.7731 29.6564 23.8461L29.5109 23.8539V22.7836C29.7077 22.7834 29.8673 22.624 29.8673 22.4271Z" fill="white"/>
<path d="M2.05772 16.7229C1.27009 16.7229 0.631592 16.0844 0.631592 15.2968L0.631591 9.59227C0.631591 8.80465 1.27009 8.16615 2.05772 8.16615C2.84534 8.16615 3.48384 8.80465 3.48384 9.59228L3.48384 15.2968C3.48384 16.0844 2.84534 16.7229 2.05772 16.7229Z" fill="white"/>
<path d="M2.41382 9.59204L3.48413 9.59204L3.48413 15.2971L2.41382 15.2971L2.41382 9.59204ZM2.05737 9.2356C1.8607 9.23578 1.70105 9.39536 1.70093 9.59204L1.70093 15.2971C1.70111 15.4938 1.86074 15.6534 2.05737 15.6536C2.25417 15.6536 2.41363 15.4939 2.41382 15.2971L3.48413 15.2971L3.47632 15.4426C3.40326 16.1617 2.79575 16.7229 2.05737 16.7229C1.27002 16.7227 0.631777 16.0845 0.631592 15.2971L0.631591 9.59204L0.639404 9.44653C0.712413 8.7275 1.31912 8.16643 2.05737 8.16626C2.79579 8.16626 3.40331 8.72737 3.47632 9.44653L3.48413 9.59204L2.41382 9.59204C2.41369 9.39524 2.2542 9.2356 2.05737 9.2356Z" fill="white"/>
<path d="M50.9024 16.7229C50.1148 16.7229 49.4763 16.0844 49.4763 15.2968L49.4763 9.59227C49.4763 8.80465 50.1148 8.16615 50.9024 8.16615C51.6901 8.16615 52.3286 8.80465 52.3286 9.59228L52.3286 15.2968C52.3286 16.0844 51.6901 16.7229 50.9024 16.7229Z" fill="white"/>
<path d="M51.2585 9.59204L52.3289 9.59204L52.3289 15.2971L51.2585 15.2971L51.2585 9.59204ZM50.9021 9.2356C50.7054 9.23578 50.5458 9.39536 50.5457 9.59204L50.5457 15.2971C50.5458 15.4938 50.7055 15.6534 50.9021 15.6536C51.0989 15.6536 51.2584 15.4939 51.2585 15.2971L52.3289 15.2971L52.321 15.4426C52.248 16.1617 51.6405 16.7229 50.9021 16.7229C50.1147 16.7227 49.4765 16.0845 49.4763 15.2971L49.4763 9.59204L49.4841 9.44653C49.5571 8.7275 50.1638 8.16643 50.9021 8.16626C51.6405 8.16626 52.248 8.72737 52.321 9.44653L52.3289 9.59204L51.2585 9.59204C51.2584 9.39524 51.0989 9.2356 50.9021 9.2356Z" fill="white"/>
</svg>
