<svg width="52" height="24" viewBox="0 0 52 24" fill="none" xmlns="http://www.w3.org/2000/svg">
<path d="M7.7644 16.3661H44.4871V8.16589H7.7644V16.3661ZM49.1218 19.5751L49.115 19.7206C49.0421 20.4398 48.4345 21.0009 47.696 21.0009H4.55542C3.8171 21.0007 3.21037 20.4397 3.13745 19.7206L3.12964 19.5751V4.95691C3.12982 4.16955 3.76807 3.53131 4.55542 3.53113H47.696C48.4836 3.53113 49.1216 4.16944 49.1218 4.95691V19.5751Z" fill="#AFAFAF"/>
<path d="M7.76477 2.10508C7.76477 1.31745 8.40327 0.678955 9.1909 0.678955H14.8954C15.683 0.678955 16.3215 1.31745 16.3215 2.10508C16.3215 2.89271 15.683 3.53121 14.8954 3.53121H9.1909C8.40327 3.53121 7.76477 2.89271 7.76477 2.10508Z" fill="white"/>
<path d="M14.8956 2.46118V3.53149H9.19055V2.46118H14.8956ZM15.2521 2.10474C15.2519 1.90807 15.0923 1.74842 14.8956 1.74829H9.19055C8.99392 1.74848 8.83429 1.9081 8.83411 2.10474C8.83411 2.30153 8.9938 2.461 9.19055 2.46118V3.53149L9.04504 3.52368C8.32594 3.45062 7.76477 2.84312 7.76477 2.10474C7.76496 1.31738 8.4032 0.679141 9.19055 0.678955H14.8956L15.0411 0.686768C15.7602 0.759776 16.3212 1.36648 16.3214 2.10474C16.3214 2.84316 15.7603 3.45067 15.0411 3.52368L14.8956 3.53149V2.46118C15.0924 2.46106 15.2521 2.30157 15.2521 2.10474Z" fill="white"/>
<path d="M35.9279 2.10508C35.9279 1.31745 36.5664 0.678955 37.354 0.678955H43.0585C43.8461 0.678955 44.4846 1.31745 44.4846 2.10508C44.4846 2.89271 43.8461 3.53121 43.0585 3.53121H37.354C36.5664 3.53121 35.9279 2.89271 35.9279 2.10508Z" fill="white"/>
<path d="M43.0587 2.46118V3.53149H37.3536V2.46118H43.0587ZM43.4152 2.10474C43.415 1.90807 43.2554 1.74842 43.0587 1.74829H37.3536C37.157 1.74848 36.9974 1.9081 36.9972 2.10474C36.9972 2.30153 37.1569 2.461 37.3536 2.46118V3.53149L37.2081 3.52368C36.489 3.45062 35.9279 2.84312 35.9279 2.10474C35.928 1.31738 36.5663 0.679141 37.3536 0.678955H43.0587L43.2042 0.686768C43.9233 0.759776 44.4843 1.36648 44.4845 2.10474C44.4845 2.84316 43.9234 3.45067 43.2042 3.52368L43.0587 3.53149V2.46118C43.2555 2.46106 43.4152 2.30157 43.4152 2.10474Z" fill="white"/>
<path d="M22.0232 2.10508C22.0232 1.31745 22.6617 0.678955 23.4493 0.678955H29.1538C29.9414 0.678955 30.5799 1.31745 30.5799 2.10508C30.5799 2.89271 29.9414 3.53121 29.1538 3.53121H23.4493C22.6617 3.53121 22.0232 2.89271 22.0232 2.10508Z" fill="white"/>
<path d="M29.1541 2.46118V3.53149H23.449V2.46118H29.1541ZM29.5105 2.10474C29.5103 1.90807 29.3507 1.74842 29.1541 1.74829H23.449C23.2523 1.74848 23.0927 1.9081 23.0925 2.10474C23.0925 2.30153 23.2522 2.461 23.449 2.46118V3.53149L23.3035 3.52368C22.5844 3.45062 22.0232 2.84312 22.0232 2.10474C22.0234 1.31738 22.6616 0.679141 23.449 0.678955H29.1541L29.2996 0.686768C30.0186 0.759776 30.5797 1.36648 30.5798 2.10474C30.5798 2.84316 30.0187 3.45067 29.2996 3.52368L29.1541 3.53149V2.46118C29.3509 2.46106 29.5105 2.30157 29.5105 2.10474Z" fill="white"/>
<path d="M7.76477 22.4275C7.76477 21.6398 8.40327 21.0013 9.1909 21.0013H14.8954C15.683 21.0013 16.3215 21.6398 16.3215 22.4275C16.3215 23.2151 15.683 23.8536 14.8954 23.8536H9.1909C8.40327 23.8536 7.76477 23.2151 7.76477 22.4275Z" fill="white"/>
<path d="M14.8956 22.7836V23.8539H9.19055V22.7836H14.8956ZM15.2521 22.4271C15.2519 22.2305 15.0923 22.0708 14.8956 22.0707H9.19055C8.99392 22.0709 8.83429 22.2305 8.83411 22.4271C8.83411 22.6239 8.9938 22.7834 9.19055 22.7836V23.8539L9.04504 23.8461C8.32594 23.773 7.76477 23.1655 7.76477 22.4271C7.76496 21.6398 8.4032 21.0015 9.19055 21.0013H14.8956L15.0411 21.0092C15.7602 21.0822 16.3212 21.6889 16.3214 22.4271C16.3214 23.1655 15.7603 23.7731 15.0411 23.8461L14.8956 23.8539V22.7836C15.0924 22.7834 15.2521 22.624 15.2521 22.4271Z" fill="white"/>
<path d="M35.9279 22.4275C35.9279 21.6398 36.5664 21.0013 37.354 21.0013H43.0585C43.8461 21.0013 44.4846 21.6398 44.4846 22.4275C44.4846 23.2151 43.8461 23.8536 43.0585 23.8536H37.354C36.5664 23.8536 35.9279 23.2151 35.9279 22.4275Z" fill="white"/>
<path d="M43.0587 22.7836V23.8539H37.3536V22.7836H43.0587ZM43.4152 22.4271C43.415 22.2305 43.2554 22.0708 43.0587 22.0707H37.3536C37.157 22.0709 36.9974 22.2305 36.9972 22.4271C36.9972 22.6239 37.1569 22.7834 37.3536 22.7836V23.8539L37.2081 23.8461C36.489 23.773 35.9279 23.1655 35.9279 22.4271C35.928 21.6398 36.5663 21.0015 37.3536 21.0013H43.0587L43.2042 21.0092C43.9233 21.0822 44.4843 21.6889 44.4845 22.4271C44.4845 23.1655 43.9234 23.7731 43.2042 23.8461L43.0587 23.8539V22.7836C43.2555 22.7834 43.4152 22.624 43.4152 22.4271Z" fill="white"/>
<path d="M22.0232 22.4275C22.0232 21.6398 22.6617 21.0013 23.4493 21.0013H29.1538C29.9414 21.0013 30.5799 21.6398 30.5799 22.4275C30.5799 23.2151 29.9414 23.8536 29.1538 23.8536H23.4493C22.6617 23.8536 22.0232 23.2151 22.0232 22.4275Z" fill="white"/>
<path d="M29.1541 22.7836V23.8539H23.449V22.7836H29.1541ZM29.5105 22.4271C29.5103 22.2305 29.3507 22.0708 29.1541 22.0707H23.449C23.2523 22.0709 23.0927 22.2305 23.0925 22.4271C23.0925 22.6239 23.2522 22.7834 23.449 22.7836V23.8539L23.3035 23.8461C22.5844 23.773 22.0232 23.1655 22.0232 22.4271C22.0234 21.6398 22.6616 21.0015 23.449 21.0013H29.1541L29.2996 21.0092C30.0186 21.0822 30.5797 21.6889 30.5798 22.4271C30.5798 23.1655 30.0187 23.7731 29.2996 23.8461L29.1541 23.8539V22.7836C29.3509 22.7834 29.5105 22.624 29.5105 22.4271Z" fill="white"/>
<path d="M1.70359 16.7229C0.915964 16.7229 0.277466 16.0844 0.277466 15.2968L0.277466 9.59227C0.277465 8.80465 0.915964 8.16615 1.70359 8.16615C2.49122 8.16615 3.12972 8.80465 3.12972 9.59228L3.12972 15.2968C3.12972 16.0844 2.49122 16.7229 1.70359 16.7229Z" fill="white"/>
<path d="M2.05969 9.59204L3.13 9.59204L3.13 15.2971L2.05969 15.2971L2.05969 9.59204ZM1.70325 9.2356C1.50658 9.23578 1.34693 9.39536 1.3468 9.59204L1.3468 15.2971C1.34699 15.4938 1.50661 15.6534 1.70325 15.6536C1.90004 15.6536 2.05951 15.4939 2.05969 15.2971L3.13 15.2971L3.12219 15.4426C3.04914 16.1617 2.44163 16.7229 1.70325 16.7229C0.915893 16.7227 0.277651 16.0845 0.277466 15.2971L0.277466 9.59204L0.285278 9.44653C0.358287 8.7275 0.964993 8.16643 1.70325 8.16626C2.44167 8.16626 3.04919 8.72737 3.12219 9.44653L3.13 9.59204L2.05969 9.59204C2.05957 9.39524 1.90008 9.2356 1.70325 9.2356Z" fill="white"/>
<path d="M50.5456 16.7229C49.758 16.7229 49.1195 16.0844 49.1195 15.2968L49.1195 9.59227C49.1195 8.80465 49.758 8.16615 50.5456 8.16615C51.3333 8.16615 51.9718 8.80465 51.9718 9.59228L51.9718 15.2968C51.9718 16.0844 51.3333 16.7229 50.5456 16.7229Z" fill="white"/>
<path d="M50.9017 9.59204L51.972 9.59204L51.972 15.2971L50.9017 15.2971L50.9017 9.59204ZM50.5453 9.2356C50.3486 9.23578 50.189 9.39536 50.1888 9.59204L50.1888 15.2971C50.189 15.4938 50.3487 15.6534 50.5453 15.6536C50.7421 15.6536 50.9015 15.4939 50.9017 15.2971L51.972 15.2971L51.9642 15.4426C51.8912 16.1617 51.2837 16.7229 50.5453 16.7229C49.7579 16.7227 49.1197 16.0845 49.1195 15.2971L49.1195 9.59204L49.1273 9.44653C49.2003 8.7275 49.807 8.16643 50.5453 8.16626C51.2837 8.16626 51.8912 8.72737 51.9642 9.44653L51.972 9.59204L50.9017 9.59204C50.9016 9.39524 50.7421 9.2356 50.5453 9.2356Z" fill="white"/>
</svg>
