<svg width="24" height="53" viewBox="0 0 24 53" fill="none" xmlns="http://www.w3.org/2000/svg">
<path d="M7.99377 7.90466L7.99377 44.6273L16.194 44.6273L16.194 7.90466L7.99377 7.90466ZM4.78479 49.2621L4.63928 49.2552C3.92001 49.1823 3.35901 48.5748 3.35901 47.8363L3.35901 4.69568C3.35918 3.95736 3.92016 3.35063 4.63928 3.27771L4.78479 3.2699L19.403 3.2699C20.1903 3.27008 20.8285 3.90832 20.8287 4.69568L20.8287 47.8363C20.8287 48.6238 20.1904 49.2619 19.403 49.2621L4.78479 49.2621Z" fill="#AFAFAF"/>
<path d="M22.2548 7.90491C23.0424 7.90491 23.6809 8.5434 23.6809 9.33103L23.6809 15.0355C23.6809 15.8232 23.0424 16.4617 22.2548 16.4617C21.4672 16.4617 20.8287 15.8232 20.8287 15.0355L20.8287 9.33103C20.8287 8.5434 21.4672 7.90491 22.2548 7.90491Z" fill="white"/>
<path d="M21.8987 15.0358L20.8284 15.0358L20.8284 9.33069L21.8987 9.33069L21.8987 15.0358ZM22.2551 15.3922C22.4518 15.392 22.6114 15.2325 22.6116 15.0358L22.6116 9.33069C22.6114 9.13405 22.4518 8.97443 22.2551 8.97424C22.0583 8.97424 21.8989 9.13394 21.8987 9.33069L20.8284 9.33069L20.8362 9.18518C20.9092 8.46607 21.5167 7.90491 22.2551 7.90491C23.0425 7.90509 23.6807 8.54333 23.6809 9.33069L23.6809 15.0358L23.6731 15.1813C23.6001 15.9003 22.9934 16.4614 22.2551 16.4615C21.5167 16.4615 20.9092 15.9004 20.8362 15.1813L20.8284 15.0358L21.8987 15.0358C21.8988 15.2326 22.0583 15.3922 22.2551 15.3922Z" fill="white"/>
<path d="M22.2548 36.0709C23.0424 36.0709 23.6809 36.7094 23.6809 37.497L23.6809 43.2015C23.6809 43.9892 23.0424 44.6277 22.2548 44.6277C21.4672 44.6277 20.8287 43.9892 20.8287 43.2015L20.8287 37.497C20.8287 36.7094 21.4672 36.0709 22.2548 36.0709Z" fill="white"/>
<path d="M21.8987 43.2018L20.8284 43.2018L20.8284 37.4967L21.8987 37.4967L21.8987 43.2018ZM22.2551 43.5582C22.4518 43.558 22.6114 43.3985 22.6116 43.2018L22.6116 37.4967C22.6114 37.3001 22.4518 37.1404 22.2551 37.1403C22.0583 37.1403 21.8989 37.3 21.8987 37.4967L20.8284 37.4967L20.8362 37.3512C20.9092 36.6321 21.5167 36.0709 22.2551 36.0709C23.0425 36.0711 23.6807 36.7093 23.6809 37.4967L23.6809 43.2018L23.6731 43.3473C23.6001 44.0663 22.9934 44.6274 22.2551 44.6276C21.5167 44.6276 20.9092 44.0664 20.8362 43.3473L20.8284 43.2018L21.8987 43.2018C21.8988 43.3986 22.0583 43.5582 22.2551 43.5582Z" fill="white"/>
<path d="M22.2548 22.166C23.0424 22.166 23.6809 22.8045 23.6809 23.5921L23.6809 29.2966C23.6809 30.0843 23.0424 30.7228 22.2548 30.7228C21.4672 30.7228 20.8287 30.0843 20.8287 29.2966L20.8287 23.5921C20.8287 22.8045 21.4672 22.166 22.2548 22.166Z" fill="white"/>
<path d="M21.8987 29.2969L20.8284 29.2969L20.8284 23.5918L21.8987 23.5918L21.8987 29.2969ZM22.2551 29.6533C22.4518 29.6531 22.6114 29.4936 22.6116 29.2969L22.6116 23.5918C22.6114 23.3952 22.4518 23.2355 22.2551 23.2354C22.0583 23.2354 21.8989 23.395 21.8987 23.5918L20.8284 23.5918L20.8362 23.4463C20.9092 22.7272 21.5167 22.166 22.2551 22.166C23.0425 22.1662 23.6807 22.8044 23.6809 23.5918L23.6809 29.2969L23.6731 29.4424C23.6001 30.1614 22.9934 30.7225 22.2551 30.7227C21.5167 30.7227 20.9092 30.1615 20.8362 29.4424L20.8284 29.2969L21.8987 29.2969C21.8988 29.4937 22.0583 29.6533 22.2551 29.6533Z" fill="white"/>
<path d="M1.9324 7.90491C2.72002 7.90491 3.35852 8.5434 3.35852 9.33103L3.35852 15.0355C3.35852 15.8232 2.72002 16.4617 1.93239 16.4617C1.14477 16.4617 0.50627 15.8232 0.50627 15.0355L0.50627 9.33103C0.50627 8.5434 1.14477 7.90491 1.9324 7.90491Z" fill="white"/>
<path d="M1.57629 15.0358L0.505981 15.0358L0.505981 9.33069L1.57629 9.33069L1.57629 15.0358ZM1.93274 15.3922C2.12941 15.392 2.28906 15.2325 2.28918 15.0358L2.28918 9.33069C2.289 9.13405 2.12937 8.97443 1.93274 8.97424C1.73595 8.97424 1.57648 9.13394 1.57629 9.33069L0.505981 9.33069L0.513794 9.18518C0.586851 8.46607 1.19436 7.90491 1.93274 7.90491C2.72009 7.90509 3.35833 8.54333 3.35852 9.33069L3.35852 15.0358L3.35071 15.1813C3.2777 15.9003 2.67099 16.4614 1.93274 16.4615C1.19432 16.4615 0.5868 15.9004 0.513794 15.1813L0.505981 15.0358L1.57629 15.0358C1.57642 15.2326 1.73591 15.3922 1.93274 15.3922Z" fill="white"/>
<path d="M1.9324 36.0709C2.72002 36.0709 3.35852 36.7094 3.35852 37.497L3.35852 43.2015C3.35852 43.9892 2.72002 44.6277 1.93239 44.6277C1.14477 44.6277 0.50627 43.9892 0.50627 43.2015L0.50627 37.497C0.50627 36.7094 1.14477 36.0709 1.9324 36.0709Z" fill="white"/>
<path d="M1.57629 43.2018L0.505981 43.2018L0.505981 37.4967L1.57629 37.4967L1.57629 43.2018ZM1.93274 43.5582C2.12941 43.558 2.28906 43.3985 2.28918 43.2018L2.28918 37.4967C2.289 37.3001 2.12937 37.1404 1.93274 37.1403C1.73595 37.1403 1.57648 37.3 1.57629 37.4967L0.505981 37.4967L0.513794 37.3512C0.586851 36.6321 1.19436 36.0709 1.93274 36.0709C2.72009 36.0711 3.35833 36.7093 3.35852 37.4967L3.35852 43.2018L3.35071 43.3473C3.2777 44.0663 2.67099 44.6274 1.93274 44.6276C1.19432 44.6276 0.5868 44.0664 0.513794 43.3473L0.505981 43.2018L1.57629 43.2018C1.57642 43.3986 1.73591 43.5582 1.93274 43.5582Z" fill="white"/>
<path d="M1.9324 22.166C2.72002 22.166 3.35852 22.8045 3.35852 23.5921L3.35852 29.2966C3.35852 30.0843 2.72002 30.7228 1.93239 30.7228C1.14477 30.7228 0.50627 30.0843 0.50627 29.2966L0.50627 23.5921C0.50627 22.8045 1.14477 22.166 1.9324 22.166Z" fill="white"/>
<path d="M1.57629 29.2969L0.505981 29.2969L0.505981 23.5918L1.57629 23.5918L1.57629 29.2969ZM1.93274 29.6533C2.12941 29.6531 2.28906 29.4936 2.28918 29.2969L2.28918 23.5918C2.289 23.3952 2.12937 23.2355 1.93274 23.2354C1.73595 23.2354 1.57648 23.395 1.57629 23.5918L0.505981 23.5918L0.513794 23.4463C0.586851 22.7272 1.19436 22.166 1.93274 22.166C2.72009 22.1662 3.35833 22.8044 3.35852 23.5918L3.35852 29.2969L3.35071 29.4424C3.2777 30.1614 2.67099 30.7225 1.93274 30.7227C1.19432 30.7227 0.5868 30.1615 0.513794 29.4424L0.505981 29.2969L1.57629 29.2969C1.57642 29.4937 1.73591 29.6533 1.93274 29.6533Z" fill="white"/>
<path d="M7.63715 1.84373C7.63715 1.0561 8.27564 0.417603 9.06327 0.417603H14.7678C15.5554 0.417603 16.1939 1.0561 16.1939 1.84373C16.1939 2.63135 15.5554 3.26985 14.7678 3.26985H9.06327C8.27564 3.26985 7.63715 2.63135 7.63715 1.84373Z" fill="white"/>
<path d="M14.768 2.19983V3.27014H9.06293V2.19983H14.768ZM15.1245 1.84338C15.1243 1.64671 14.9647 1.48706 14.768 1.48694H9.06293C8.86629 1.48712 8.70667 1.64675 8.70648 1.84338C8.70648 2.04018 8.86618 2.19964 9.06293 2.19983V3.27014L8.91742 3.26233C8.19831 3.18927 7.63715 2.58177 7.63715 1.84338C7.63733 1.05603 8.27557 0.417788 9.06293 0.417603H14.768L14.9135 0.425415C15.6325 0.498424 16.1936 1.10513 16.1938 1.84338C16.1938 2.5818 15.6327 3.18932 14.9135 3.26233L14.768 3.27014V2.19983C14.9648 2.1997 15.1245 2.04021 15.1245 1.84338Z" fill="white"/>
<path d="M7.63715 50.6886C7.63715 49.9009 8.27564 49.2625 9.06327 49.2625H14.7678C15.5554 49.2625 16.1939 49.9009 16.1939 50.6886C16.1939 51.4762 15.5554 52.1147 14.7678 52.1147H9.06327C8.27564 52.1147 7.63715 51.4762 7.63715 50.6886Z" fill="white"/>
<path d="M14.768 51.0447V52.115H9.06293V51.0447H14.768ZM15.1245 50.6882C15.1243 50.4916 14.9647 50.3319 14.768 50.3318H9.06293C8.86629 50.332 8.70667 50.4916 8.70648 50.6882C8.70648 50.885 8.86618 51.0445 9.06293 51.0447V52.115L8.91742 52.1072C8.19831 52.0341 7.63715 51.4266 7.63715 50.6882C7.63733 49.9009 8.27557 49.2626 9.06293 49.2625H14.768L14.9135 49.2703C15.6325 49.3433 16.1936 49.95 16.1938 50.6882C16.1938 51.4267 15.6327 52.0342 14.9135 52.1072L14.768 52.115V51.0447C14.9648 51.0446 15.1245 50.8851 15.1245 50.6882Z" fill="white"/>
</svg>
