<svg width="24" height="53" viewBox="0 0 24 53" fill="none" xmlns="http://www.w3.org/2000/svg">
<path d="M8.20428 7.90466L8.20428 44.6273L16.4045 44.6273L16.4045 7.90466L8.20428 7.90466ZM4.9953 49.2621L4.84979 49.2552C4.13052 49.1823 3.56952 48.5748 3.56952 47.8363L3.56952 4.69568C3.56969 3.95736 4.13067 3.35063 4.84979 3.27771L4.9953 3.2699L19.6135 3.2699C20.4008 3.27008 21.0391 3.90832 21.0392 4.69568L21.0392 47.8363C21.0392 48.6238 20.4009 49.2619 19.6135 49.2621L4.9953 49.2621Z" fill="#22AC00"/>
<path d="M22.4652 7.90491C23.2529 7.90491 23.8914 8.5434 23.8914 9.33103L23.8914 15.0355C23.8914 15.8232 23.2529 16.4617 22.4652 16.4617C21.6776 16.4617 21.0391 15.8232 21.0391 15.0355L21.0391 9.33103C21.0391 8.5434 21.6776 7.90491 22.4652 7.90491Z" fill="white"/>
<path d="M22.1091 15.0358L21.0388 15.0358L21.0388 9.33069L22.1091 9.33069L22.1091 15.0358ZM22.4656 15.3922C22.6622 15.392 22.8219 15.2325 22.822 15.0358L22.822 9.33069C22.8218 9.13405 22.6622 8.97443 22.4656 8.97424C22.2688 8.97424 22.1093 9.13394 22.1091 9.33069L21.0388 9.33069L21.0466 9.18518C21.1197 8.46607 21.7272 7.90491 22.4656 7.90491C23.2529 7.90509 23.8912 8.54333 23.8914 9.33069L23.8914 15.0358L23.8835 15.1813C23.8105 15.9003 23.2038 16.4614 22.4656 16.4615C21.7272 16.4615 21.1196 15.9004 21.0466 15.1813L21.0388 15.0358L22.1091 15.0358C22.1093 15.2326 22.2687 15.3922 22.4656 15.3922Z" fill="white"/>
<path d="M22.4652 36.0709C23.2529 36.0709 23.8914 36.7094 23.8914 37.497L23.8914 43.2015C23.8914 43.9892 23.2529 44.6277 22.4652 44.6277C21.6776 44.6277 21.0391 43.9892 21.0391 43.2015L21.0391 37.497C21.0391 36.7094 21.6776 36.0709 22.4652 36.0709Z" fill="white"/>
<path d="M22.1091 43.2018L21.0388 43.2018L21.0388 37.4967L22.1091 37.4967L22.1091 43.2018ZM22.4656 43.5582C22.6622 43.558 22.8219 43.3985 22.822 43.2018L22.822 37.4967C22.8218 37.3001 22.6622 37.1404 22.4656 37.1403C22.2688 37.1403 22.1093 37.3 22.1091 37.4967L21.0388 37.4967L21.0466 37.3512C21.1197 36.6321 21.7272 36.0709 22.4656 36.0709C23.2529 36.0711 23.8912 36.7093 23.8914 37.4967L23.8914 43.2018L23.8835 43.3473C23.8105 44.0663 23.2038 44.6274 22.4656 44.6276C21.7272 44.6276 21.1196 44.0664 21.0466 43.3473L21.0388 43.2018L22.1091 43.2018C22.1093 43.3986 22.2687 43.5582 22.4656 43.5582Z" fill="white"/>
<path d="M22.4652 22.166C23.2529 22.166 23.8914 22.8045 23.8914 23.5921L23.8914 29.2966C23.8914 30.0843 23.2529 30.7228 22.4652 30.7228C21.6776 30.7228 21.0391 30.0843 21.0391 29.2966L21.0391 23.5921C21.0391 22.8045 21.6776 22.166 22.4652 22.166Z" fill="white"/>
<path d="M22.1091 29.2969L21.0388 29.2969L21.0388 23.5918L22.1091 23.5918L22.1091 29.2969ZM22.4656 29.6533C22.6622 29.6531 22.8219 29.4936 22.822 29.2969L22.822 23.5918C22.8218 23.3952 22.6622 23.2355 22.4656 23.2354C22.2688 23.2354 22.1093 23.395 22.1091 23.5918L21.0388 23.5918L21.0466 23.4463C21.1197 22.7272 21.7272 22.166 22.4656 22.166C23.2529 22.1662 23.8912 22.8044 23.8914 23.5918L23.8914 29.2969L23.8835 29.4424C23.8105 30.1614 23.2038 30.7225 22.4656 30.7227C21.7272 30.7227 21.1196 30.1615 21.0466 29.4424L21.0388 29.2969L22.1091 29.2969C22.1093 29.4937 22.2687 29.6533 22.4656 29.6533Z" fill="white"/>
<path d="M2.14284 7.90491C2.93047 7.90491 3.56897 8.5434 3.56897 9.33103L3.56897 15.0355C3.56897 15.8232 2.93047 16.4617 2.14284 16.4617C1.35522 16.4617 0.716719 15.8232 0.716719 15.0355L0.716719 9.33103C0.716719 8.5434 1.35522 7.90491 2.14284 7.90491Z" fill="white"/>
<path d="M1.78674 15.0358L0.71643 15.0358L0.716431 9.33069L1.78674 9.33069L1.78674 15.0358ZM2.14319 15.3922C2.33986 15.392 2.49951 15.2325 2.49963 15.0358L2.49963 9.33069C2.49945 9.13405 2.33982 8.97443 2.14319 8.97424C1.9464 8.97424 1.78693 9.13394 1.78674 9.33069L0.716431 9.33069L0.724243 9.18518C0.7973 8.46607 1.40481 7.90491 2.14319 7.90491C2.93054 7.90509 3.56878 8.54333 3.56897 9.33069L3.56897 15.0358L3.56116 15.1813C3.48815 15.9003 2.88144 16.4614 2.14319 16.4615C1.40477 16.4615 0.79725 15.9004 0.724243 15.1813L0.71643 15.0358L1.78674 15.0358C1.78687 15.2326 1.94636 15.3922 2.14319 15.3922Z" fill="white"/>
<path d="M2.14284 36.0709C2.93047 36.0709 3.56897 36.7094 3.56897 37.497L3.56897 43.2015C3.56897 43.9892 2.93047 44.6277 2.14284 44.6277C1.35522 44.6277 0.716719 43.9892 0.716719 43.2015L0.716719 37.497C0.716719 36.7094 1.35522 36.0709 2.14284 36.0709Z" fill="white"/>
<path d="M1.78674 43.2018L0.71643 43.2018L0.716431 37.4967L1.78674 37.4967L1.78674 43.2018ZM2.14319 43.5582C2.33986 43.558 2.49951 43.3985 2.49963 43.2018L2.49963 37.4967C2.49945 37.3001 2.33982 37.1404 2.14319 37.1403C1.9464 37.1403 1.78693 37.3 1.78674 37.4967L0.716431 37.4967L0.724243 37.3512C0.7973 36.6321 1.40481 36.0709 2.14319 36.0709C2.93054 36.0711 3.56878 36.7093 3.56897 37.4967L3.56897 43.2018L3.56116 43.3473C3.48815 44.0663 2.88144 44.6274 2.14319 44.6276C1.40477 44.6276 0.79725 44.0664 0.724243 43.3473L0.71643 43.2018L1.78674 43.2018C1.78687 43.3986 1.94636 43.5582 2.14319 43.5582Z" fill="white"/>
<path d="M2.14284 22.166C2.93047 22.166 3.56897 22.8045 3.56897 23.5921L3.56897 29.2966C3.56897 30.0843 2.93047 30.7228 2.14284 30.7228C1.35522 30.7228 0.716719 30.0843 0.716719 29.2966L0.716719 23.5921C0.716719 22.8045 1.35522 22.166 2.14284 22.166Z" fill="white"/>
<path d="M1.78674 29.2969L0.71643 29.2969L0.716431 23.5918L1.78674 23.5918L1.78674 29.2969ZM2.14319 29.6533C2.33986 29.6531 2.49951 29.4936 2.49963 29.2969L2.49963 23.5918C2.49945 23.3952 2.33982 23.2355 2.14319 23.2354C1.9464 23.2354 1.78693 23.395 1.78674 23.5918L0.716431 23.5918L0.724243 23.4463C0.7973 22.7272 1.40481 22.166 2.14319 22.166C2.93054 22.1662 3.56878 22.8044 3.56897 23.5918L3.56897 29.2969L3.56116 29.4424C3.48815 30.1614 2.88144 30.7225 2.14319 30.7227C1.40477 30.7227 0.79725 30.1615 0.724243 29.4424L0.71643 29.2969L1.78674 29.2969C1.78687 29.4937 1.94636 29.6533 2.14319 29.6533Z" fill="white"/>
<path d="M7.84766 1.84373C7.84766 1.0561 8.48615 0.417603 9.27378 0.417603H14.9783C15.7659 0.417603 16.4044 1.0561 16.4044 1.84373C16.4044 2.63135 15.7659 3.26985 14.9783 3.26985H9.27378C8.48615 3.26985 7.84766 2.63135 7.84766 1.84373Z" fill="white"/>
<path d="M14.9785 2.19983V3.27014H9.27344V2.19983H14.9785ZM15.335 1.84338C15.3348 1.64671 15.1752 1.48706 14.9785 1.48694H9.27344C9.0768 1.48712 8.91718 1.64675 8.91699 1.84338C8.91699 2.04018 9.07669 2.19964 9.27344 2.19983V3.27014L9.12793 3.26233C8.40882 3.18927 7.84766 2.58177 7.84766 1.84338C7.84784 1.05603 8.48608 0.417788 9.27344 0.417603H14.9785L15.124 0.425415C15.8431 0.498424 16.4041 1.10513 16.4043 1.84338C16.4043 2.5818 15.8432 3.18932 15.124 3.26233L14.9785 3.27014V2.19983C15.1753 2.1997 15.335 2.04021 15.335 1.84338Z" fill="white"/>
<path d="M7.84766 50.6886C7.84766 49.9009 8.48615 49.2625 9.27378 49.2625H14.9783C15.7659 49.2625 16.4044 49.9009 16.4044 50.6886C16.4044 51.4762 15.7659 52.1147 14.9783 52.1147H9.27378C8.48615 52.1147 7.84766 51.4762 7.84766 50.6886Z" fill="white"/>
<path d="M14.9785 51.0447V52.115H9.27344V51.0447H14.9785ZM15.335 50.6882C15.3348 50.4916 15.1752 50.3319 14.9785 50.3318H9.27344C9.0768 50.332 8.91718 50.4916 8.91699 50.6882C8.91699 50.885 9.07669 51.0445 9.27344 51.0447V52.115L9.12793 52.1072C8.40882 52.0341 7.84766 51.4266 7.84766 50.6882C7.84784 49.9009 8.48608 49.2626 9.27344 49.2625H14.9785L15.124 49.2703C15.8431 49.3433 16.4041 49.95 16.4043 50.6882C16.4043 51.4267 15.8432 52.0342 15.124 52.1072L14.9785 52.115V51.0447C15.1753 51.0446 15.335 50.8851 15.335 50.6882Z" fill="white"/>
</svg>
