<svg width="44" height="18" viewBox="0 0 44 18" fill="none" xmlns="http://www.w3.org/2000/svg">
<path d="M3.02783 16.124V4.7959C3.0276 4.33268 2.65126 3.95703 2.18799 3.95703C1.72492 3.95726 1.34935 4.33283 1.34912 4.7959V16.124C1.34916 16.5873 1.7248 16.9627 2.18799 16.9629V17.8018C1.31941 17.8015 0.605136 17.1418 0.519043 16.2959L0.510254 16.124V4.7959C0.510488 3.86942 1.26151 3.1184 2.18799 3.11816C3.11467 3.11816 3.86647 3.86927 3.8667 4.7959V16.124L3.85791 16.2959C3.77181 17.142 3.05677 17.8018 2.18799 17.8018V16.9629C2.65138 16.9629 3.0278 16.5874 3.02783 16.124Z" fill="white"/>
<path d="M42.8843 16.124V4.7959C42.884 4.33268 42.5077 3.95703 42.0444 3.95703C41.5814 3.95726 41.2058 4.33283 41.2056 4.7959V16.124C41.2056 16.5873 41.5812 16.9627 42.0444 16.9629V17.8018C41.1759 17.8015 40.4616 17.1418 40.3755 16.2959L40.3667 16.124V4.7959C40.3669 3.86942 41.118 3.1184 42.0444 3.11816C42.9711 3.11816 43.7229 3.86927 43.7231 4.7959V16.124L43.7144 16.2959C43.6283 17.142 42.9132 17.8018 42.0444 17.8018V16.9629C42.5078 16.9629 42.8842 16.5874 42.8843 16.124Z" fill="white"/>
<path d="M15.1943 16.963V17.8019H4.70605V16.963H15.1943ZM15.6142 16.543V14.4453H4.28613V16.543C4.28613 16.7748 4.47434 16.963 4.70605 16.963V17.8019L4.57714 17.795C3.94252 17.7305 3.44727 17.1947 3.44727 16.543V13.6064H16.4531V16.543L16.4462 16.672C16.3818 17.3066 15.846 17.8019 15.1943 17.8019V16.963C15.426 16.963 15.6142 16.7748 15.6142 16.543Z" fill="white"/>
<path d="M27.3611 16.963V17.8019H16.8729V16.963H27.3611ZM27.7811 16.543V14.4453H16.453V16.543C16.453 16.7748 16.6412 16.963 16.8729 16.963V17.8019L16.744 17.795C16.1094 17.7305 15.6141 17.1947 15.6141 16.543V13.6064H28.6199V16.543L28.6131 16.672C28.5487 17.3066 28.0128 17.8019 27.3611 17.8019V16.963C27.5929 16.963 27.7811 16.7748 27.7811 16.543Z" fill="white"/>
<path d="M39.5274 16.963V17.8019H29.0392V16.963H39.5274ZM39.9473 16.543V14.4453H28.6193V16.543C28.6193 16.7748 28.8075 16.963 29.0392 16.963V17.8019L28.9103 17.795C28.2757 17.7305 27.7804 17.1947 27.7804 16.543V13.6064H40.7862V16.543L40.7794 16.672C40.7149 17.3066 40.1791 17.8019 39.5274 17.8019V16.963C39.7591 16.963 39.9473 16.7748 39.9473 16.543Z" fill="white"/>
<path d="M15.6142 2.27856C15.614 1.81534 15.2376 1.43969 14.7744 1.43969H5.12499C4.66192 1.43993 4.28636 1.81549 4.28613 2.27856V12.7678H15.6142V2.27856ZM16.4531 13.6066H3.44727V2.27856C3.4475 1.35208 4.19851 0.601064 5.12499 0.60083H14.7744C15.701 0.60083 16.4528 1.35193 16.4531 2.27856V13.6066Z" fill="white"/>
<path d="M27.7811 2.27856C27.7808 1.81534 27.4045 1.43969 26.9412 1.43969H17.2919C16.8288 1.43993 16.4532 1.81549 16.453 2.27856V12.7678H27.7811V2.27856ZM28.6199 13.6066H15.6141V2.27856C15.6144 1.35208 16.3654 0.601064 17.2919 0.60083H26.9412C27.8679 0.60083 28.6197 1.35193 28.6199 2.27856V13.6066Z" fill="white"/>
<path d="M39.9473 2.27856C39.9471 1.81534 39.5708 1.43969 39.1075 1.43969H29.4581C28.9951 1.43993 28.6195 1.81549 28.6193 2.27856V12.7678H39.9473V2.27856ZM40.7862 13.6066H27.7804V2.27856C27.7806 1.35208 28.5316 0.601064 29.4581 0.60083H39.1075C40.0342 0.60083 40.786 1.35193 40.7862 2.27856V13.6066Z" fill="white"/>
</svg>
